<ttFont>
    <TTGlyph name="A" xMin="-27" yMin="0" xMax="741" yMax="820">
      <contour>
        <pt x="187" y="21" on="1"/>
        <pt x="187" y="0" on="1"/>
        <pt x="-27" y="0" on="1"/>
        <pt x="-27" y="21" on="1"/>
        <pt x="71" y="61" on="1"/>
        <pt x="360" y="820" on="1"/>
        <pt x="376" y="820" on="1"/>
        <pt x="649" y="36" on="1"/>
        <pt x="741" y="21" on="1"/>
        <pt x="741" y="0" on="1"/>
        <pt x="447" y="0" on="1"/>
        <pt x="447" y="21" on="1"/>
        <pt x="529" y="34" on="1"/>
        <pt x="444" y="271" on="1"/>
        <pt x="178" y="271" on="1"/>
        <pt x="97" y="61" on="1"/>
      </contour>
      <contour>
        <pt x="317" y="644" on="1"/>
        <pt x="186" y="292" on="1"/>
        <pt x="437" y="292" on="1"/>
      </contour>
    </TTGlyph>
    <TTGlyph name="AE" xMin="-38" yMin="0" xMax="1060" yMax="800">
      <contour>
        <pt x="831" y="560" on="1"/>
        <pt x="858" y="560" on="1"/>
        <pt x="858" y="244" on="1"/>
        <pt x="831" y="244" on="1"/>
        <pt x="772" y="391" on="1"/>
        <pt x="652" y="391" on="1"/>
        <pt x="652" y="24" on="1"/>
        <pt x="951" y="24" on="1"/>
        <pt x="1033" y="244" on="1"/>
        <pt x="1060" y="244" on="1"/>
        <pt x="1060" y="0" on="1"/>
        <pt x="543" y="0" on="1"/>
        <pt x="543" y="309" on="1"/>
        <pt x="251" y="309" on="1"/>
        <pt x="87" y="60" on="1"/>
        <pt x="176" y="21" on="1"/>
        <pt x="176" y="0" on="1"/>
        <pt x="-38" y="0" on="1"/>
        <pt x="-38" y="21" on="1"/>
        <pt x="57" y="60" on="1"/>
        <pt x="519" y="764" on="1"/>
        <pt x="434" y="778" on="1"/>
        <pt x="434" y="800" on="1"/>
        <pt x="1037" y="800" on="1"/>
        <pt x="1037" y="571" on="1"/>
        <pt x="1010" y="571" on="1"/>
        <pt x="933" y="775" on="1"/>
        <pt x="652" y="775" on="1"/>
        <pt x="652" y="415" on="1"/>
        <pt x="772" y="415" on="1"/>
      </contour>
      <contour>
        <pt x="265" y="330" on="1"/>
        <pt x="543" y="330" on="1"/>
        <pt x="543" y="751" on="1"/>
      </contour>
    </TTGlyph>
    <TTGlyph name="Aacute" xMin="-27" yMin="0" xMax="741" yMax="992">
      <component glyphName="A" x="0" y="0" flags="0x1204"/>
      <component glyphName="acute.case" x="295" y="39" flags="0x1004"/>
    </TTGlyph>
    <TTGlyph name="Acircumflex" xMin="-27" yMin="0" xMax="741" yMax="977">
      <component glyphName="A" x="0" y="0" flags="0x1204"/>
      <component glyphName="circumflex.case" x="181" y="13" flags="0x1004"/>
    </TTGlyph>
    <TTGlyph name="Adieresis" xMin="-27" yMin="0" xMax="741" yMax="976">
      <component glyphName="A" x="0" y="0" flags="0x1204"/>
      <component glyphName="dieresis.case" x="185" y="25" flags="0x1004"/>
    </TTGlyph>
    <TTGlyph name="Agrave" xMin="-27" yMin="0" xMax="741" yMax="992">
      <component glyphName="A" x="0" y="0" flags="0x1204"/>
      <component glyphName="grave.case" x="158" y="39" flags="0x1004"/>
    </TTGlyph>
    <TTGlyph name="Aring" xMin="-27" yMin="0" xMax="741" yMax="978">
      <contour>
        <pt x="275" y="922" on="0"/>
        <pt x="330" y="978" on="0"/>
        <pt x="409" y="978" on="0"/>
        <pt x="464" y="922" on="0"/>
        <pt x="464" y="844" on="0"/>
        <pt x="415" y="794" on="0"/>
        <pt x="386" y="789" on="1"/>
        <pt x="649" y="36" on="1"/>
        <pt x="741" y="21" on="1"/>
        <pt x="741" y="0" on="1"/>
        <pt x="447" y="0" on="1"/>
        <pt x="447" y="21" on="1"/>
        <pt x="529" y="34" on="1"/>
        <pt x="444" y="271" on="1"/>
        <pt x="178" y="271" on="1"/>
        <pt x="97" y="61" on="1"/>
        <pt x="187" y="21" on="1"/>
        <pt x="187" y="0" on="1"/>
        <pt x="-27" y="0" on="1"/>
        <pt x="-27" y="21" on="1"/>
        <pt x="71" y="61" on="1"/>
        <pt x="348" y="790" on="1"/>
        <pt x="322" y="795" on="0"/>
        <pt x="275" y="844" on="0"/>
      </contour>
      <contour>
        <pt x="317" y="644" on="1"/>
        <pt x="186" y="292" on="1"/>
        <pt x="437" y="292" on="1"/>
      </contour>
      <contour>
        <pt x="394" y="945" on="0"/>
        <pt x="344" y="945" on="0"/>
        <pt x="307" y="908" on="0"/>
        <pt x="307" y="858" on="0"/>
        <pt x="344" y="821" on="0"/>
        <pt x="394" y="821" on="0"/>
        <pt x="432" y="858" on="0"/>
        <pt x="432" y="908" on="0"/>
      </contour>
    </TTGlyph>
    <TTGlyph name="Atilde" xMin="-27" yMin="0" xMax="741" yMax="977">
      <component glyphName="A" x="0" y="0" flags="0x1204"/>
      <component glyphName="tilde.case" x="160" y="20" flags="0x1004"/>
    </TTGlyph>
    <TTGlyph name="B" xMin="38" yMin="0" xMax="689" yMax="800">
      <contour>
        <pt x="689" y="216" on="1"/>
        <pt x="689" y="106" on="0"/>
        <pt x="528" y="0" on="0"/>
        <pt x="391" y="0" on="1"/>
        <pt x="38" y="0" on="1"/>
        <pt x="38" y="21" on="1"/>
        <pt x="130" y="36" on="1"/>
        <pt x="130" y="764" on="1"/>
        <pt x="38" y="778" on="1"/>
        <pt x="38" y="800" on="1"/>
        <pt x="343" y="800" on="1"/>
        <pt x="502" y="800" on="0"/>
        <pt x="637" y="711" on="0"/>
        <pt x="637" y="613" on="1"/>
        <pt x="637" y="469" on="0"/>
        <pt x="455" y="429" on="1"/>
        <pt x="455" y="424" on="1"/>
        <pt x="689" y="393" on="0"/>
      </contour>
      <contour>
        <pt x="391" y="407" on="1"/>
        <pt x="240" y="407" on="1"/>
        <pt x="240" y="24" on="1"/>
        <pt x="391" y="24" on="1"/>
        <pt x="476" y="24" on="0"/>
        <pt x="570" y="123" on="0"/>
        <pt x="570" y="215" on="1"/>
        <pt x="570" y="226" on="1"/>
        <pt x="570" y="317" on="0"/>
        <pt x="477" y="407" on="0"/>
      </contour>
      <contour>
        <pt x="343" y="775" on="1"/>
        <pt x="240" y="775" on="1"/>
        <pt x="240" y="432" on="1"/>
        <pt x="351" y="432" on="1"/>
        <pt x="431" y="432" on="0"/>
        <pt x="517" y="522" on="0"/>
        <pt x="517" y="605" on="1"/>
        <pt x="517" y="611" on="1"/>
        <pt x="517" y="775" on="0"/>
      </contour>
    </TTGlyph>
    <TTGlyph name="C" xMin="52" yMin="-20" xMax="680" yMax="820">
      <contour>
        <pt x="654" y="820" on="1"/>
        <pt x="675" y="820" on="1"/>
        <pt x="675" y="572" on="1"/>
        <pt x="654" y="572" on="1"/>
        <pt x="592" y="727" on="1"/>
        <pt x="516" y="797" on="0"/>
        <pt x="419" y="797" on="1"/>
        <pt x="312" y="797" on="0"/>
        <pt x="248" y="716" on="1"/>
        <pt x="182" y="633" on="0"/>
        <pt x="182" y="492" on="1"/>
        <pt x="182" y="309" on="1"/>
        <pt x="182" y="167" on="0"/>
        <pt x="245" y="84" on="1"/>
        <pt x="307" y="3" on="0"/>
        <pt x="414" y="3" on="1"/>
        <pt x="465" y="3" on="0"/>
        <pt x="567" y="48" on="0"/>
        <pt x="601" y="86" on="1"/>
        <pt x="659" y="247" on="1"/>
        <pt x="680" y="247" on="1"/>
        <pt x="680" y="-10" on="1"/>
        <pt x="659" y="-10" on="1"/>
        <pt x="587" y="41" on="1"/>
        <pt x="511" y="-20" on="0"/>
        <pt x="331" y="-20" on="0"/>
        <pt x="198" y="41" on="0"/>
        <pt x="150" y="96" on="1"/>
        <pt x="52" y="212" on="0"/>
        <pt x="52" y="400" on="1"/>
        <pt x="52" y="586" on="0"/>
        <pt x="153" y="702" on="1"/>
        <pt x="255" y="820" on="0"/>
        <pt x="419" y="820" on="1"/>
        <pt x="509" y="820" on="0"/>
        <pt x="587" y="763" on="1"/>
      </contour>
    </TTGlyph>
    <TTGlyph name="Ccedilla" xMin="52" yMin="-242" xMax="680" yMax="820">
      <contour>
        <pt x="654" y="820" on="1"/>
        <pt x="675" y="820" on="1"/>
        <pt x="675" y="572" on="1"/>
        <pt x="654" y="572" on="1"/>
        <pt x="592" y="727" on="1"/>
        <pt x="515" y="797" on="0"/>
        <pt x="313" y="797" on="0"/>
        <pt x="182" y="635" on="0"/>
        <pt x="182" y="492" on="1"/>
        <pt x="182" y="309" on="1"/>
        <pt x="182" y="165" on="0"/>
        <pt x="308" y="3" on="0"/>
        <pt x="414" y="3" on="1"/>
        <pt x="465" y="3" on="0"/>
        <pt x="567" y="48" on="0"/>
        <pt x="601" y="86" on="1"/>
        <pt x="659" y="247" on="1"/>
        <pt x="680" y="247" on="1"/>
        <pt x="680" y="-10" on="1"/>
        <pt x="659" y="-10" on="1"/>
        <pt x="587" y="41" on="1"/>
        <pt x="510" y="-20" on="0"/>
        <pt x="414" y="-20" on="1"/>
        <pt x="407" y="-20" on="1"/>
        <pt x="399" y="-54" on="1"/>
        <pt x="521" y="-59" on="0"/>
        <pt x="521" y="-146" on="1"/>
        <pt x="521" y="-194" on="0"/>
        <pt x="448" y="-242" on="0"/>
        <pt x="354" y="-242" on="0"/>
        <pt x="323" y="-233" on="1"/>
        <pt x="329" y="-211" on="1"/>
        <pt x="341" y="-214" on="0"/>
        <pt x="390" y="-214" on="0"/>
        <pt x="436" y="-182" on="0"/>
        <pt x="436" y="-151" on="1"/>
        <pt x="436" y="-87" on="0"/>
        <pt x="364" y="-79" on="1"/>
        <pt x="380" y="-18" on="1"/>
        <pt x="230" y="-6" on="0"/>
        <pt x="52" y="222" on="0"/>
        <pt x="52" y="588" on="0"/>
        <pt x="254" y="820" on="0"/>
        <pt x="419" y="820" on="1"/>
        <pt x="509" y="820" on="0"/>
        <pt x="587" y="763" on="1"/>
      </contour>
    </TTGlyph>
    <TTGlyph name="D" xMin="38" yMin="0" xMax="798" yMax="800">
      <contour>
        <pt x="38" y="800" on="1"/>
        <pt x="421" y="800" on="1"/>
        <pt x="503" y="800" on="0"/>
        <pt x="642" y="742" on="0"/>
        <pt x="692" y="690" on="1"/>
        <pt x="798" y="578" on="0"/>
        <pt x="798" y="400" on="1"/>
        <pt x="798" y="220" on="0"/>
        <pt x="693" y="110" on="1"/>
        <pt x="589" y="0" on="0"/>
        <pt x="421" y="0" on="1"/>
        <pt x="38" y="0" on="1"/>
        <pt x="38" y="21" on="1"/>
        <pt x="130" y="36" on="1"/>
        <pt x="130" y="764" on="1"/>
        <pt x="38" y="778" on="1"/>
      </contour>
      <contour>
        <pt x="421" y="775" on="1"/>
        <pt x="240" y="775" on="1"/>
        <pt x="240" y="24" on="1"/>
        <pt x="421" y="24" on="1"/>
        <pt x="532" y="24" on="0"/>
        <pt x="671" y="179" on="0"/>
        <pt x="671" y="323" on="1"/>
        <pt x="671" y="477" on="1"/>
        <pt x="671" y="621" on="0"/>
        <pt x="533" y="775" on="0"/>
      </contour>
    </TTGlyph>
    <TTGlyph name="E" xMin="38" yMin="0" xMax="662" yMax="800">
      <contour>
        <pt x="429" y="560" on="1"/>
        <pt x="455" y="560" on="1"/>
        <pt x="455" y="244" on="1"/>
        <pt x="429" y="244" on="1"/>
        <pt x="369" y="391" on="1"/>
        <pt x="240" y="391" on="1"/>
        <pt x="240" y="24" on="1"/>
        <pt x="554" y="24" on="1"/>
        <pt x="636" y="244" on="1"/>
        <pt x="662" y="244" on="1"/>
        <pt x="662" y="0" on="1"/>
        <pt x="38" y="0" on="1"/>
        <pt x="38" y="21" on="1"/>
        <pt x="130" y="36" on="1"/>
        <pt x="130" y="764" on="1"/>
        <pt x="38" y="778" on="1"/>
        <pt x="38" y="800" on="1"/>
        <pt x="640" y="800" on="1"/>
        <pt x="640" y="571" on="1"/>
        <pt x="613" y="571" on="1"/>
        <pt x="536" y="775" on="1"/>
        <pt x="240" y="775" on="1"/>
        <pt x="240" y="415" on="1"/>
        <pt x="370" y="415" on="1"/>
      </contour>
    </TTGlyph>
    <TTGlyph name="Eacute" xMin="42" yMin="0" xMax="666" yMax="992">
      <component glyphName="E" x="4" y="0" flags="0x1004"/>
      <component glyphName="acute.case" x="315" y="39" flags="0x1004"/>
    </TTGlyph>
    <TTGlyph name="Ecircumflex" xMin="42" yMin="0" xMax="666" yMax="977">
      <component glyphName="E" x="4" y="0" flags="0x1004"/>
      <component glyphName="circumflex.case" x="195" y="13" flags="0x1004"/>
    </TTGlyph>
    <TTGlyph name="Edieresis" xMin="42" yMin="0" xMax="666" yMax="976">
      <component glyphName="E" x="4" y="0" flags="0x1004"/>
      <component glyphName="dieresis.case" x="234" y="25" flags="0x1004"/>
    </TTGlyph>
    <TTGlyph name="Egrave" xMin="42" yMin="0" xMax="666" yMax="993">
      <component glyphName="E" x="4" y="0" flags="0x1004"/>
      <component glyphName="grave.case" x="207" y="40" flags="0x1004"/>
    </TTGlyph>
    <TTGlyph name="Eth" xMin="38" yMin="0" xMax="798" yMax="800">
      <contour>
        <pt x="54" y="375" on="1"/>
        <pt x="54" y="408" on="1"/>
        <pt x="130" y="408" on="1"/>
        <pt x="130" y="764" on="1"/>
        <pt x="38" y="778" on="1"/>
        <pt x="38" y="800" on="1"/>
        <pt x="421" y="800" on="1"/>
        <pt x="503" y="800" on="0"/>
        <pt x="642" y="742" on="0"/>
        <pt x="692" y="690" on="1"/>
        <pt x="798" y="578" on="0"/>
        <pt x="798" y="400" on="1"/>
        <pt x="798" y="220" on="0"/>
        <pt x="693" y="110" on="1"/>
        <pt x="589" y="0" on="0"/>
        <pt x="421" y="0" on="1"/>
        <pt x="38" y="0" on="1"/>
        <pt x="38" y="21" on="1"/>
        <pt x="130" y="36" on="1"/>
        <pt x="130" y="375" on="1"/>
      </contour>
      <contour>
        <pt x="421" y="775" on="1"/>
        <pt x="240" y="775" on="1"/>
        <pt x="240" y="408" on="1"/>
        <pt x="424" y="408" on="1"/>
        <pt x="424" y="375" on="1"/>
        <pt x="240" y="375" on="1"/>
        <pt x="240" y="24" on="1"/>
        <pt x="425" y="24" on="1"/>
        <pt x="535" y="26" on="0"/>
        <pt x="671" y="181" on="0"/>
        <pt x="671" y="323" on="1"/>
        <pt x="671" y="477" on="1"/>
        <pt x="671" y="621" on="0"/>
        <pt x="533" y="775" on="0"/>
      </contour>
    </TTGlyph>
    <TTGlyph name="Euro" xMin="35" yMin="-20" xMax="735" yMax="820">
      <contour>
        <pt x="709" y="820" on="1"/>
        <pt x="730" y="820" on="1"/>
        <pt x="730" y="572" on="1"/>
        <pt x="709" y="572" on="1"/>
        <pt x="647" y="727" on="1"/>
        <pt x="570" y="797" on="0"/>
        <pt x="368" y="797" on="0"/>
        <pt x="237" y="635" on="0"/>
        <pt x="237" y="492" on="1"/>
        <pt x="237" y="469" on="1"/>
        <pt x="504" y="469" on="1"/>
        <pt x="489" y="431" on="1"/>
        <pt x="237" y="431" on="1"/>
        <pt x="237" y="352" on="1"/>
        <pt x="458" y="352" on="1"/>
        <pt x="443" y="314" on="1"/>
        <pt x="237" y="314" on="1"/>
        <pt x="237" y="309" on="1"/>
        <pt x="237" y="165" on="0"/>
        <pt x="363" y="3" on="0"/>
        <pt x="469" y="3" on="1"/>
        <pt x="520" y="3" on="0"/>
        <pt x="622" y="48" on="0"/>
        <pt x="656" y="86" on="1"/>
        <pt x="714" y="247" on="1"/>
        <pt x="735" y="247" on="1"/>
        <pt x="735" y="-10" on="1"/>
        <pt x="714" y="-10" on="1"/>
        <pt x="642" y="41" on="1"/>
        <pt x="565" y="-20" on="0"/>
        <pt x="469" y="-20" on="1"/>
        <pt x="324" y="-20" on="0"/>
        <pt x="135" y="161" on="0"/>
        <pt x="113" y="314" on="1"/>
        <pt x="35" y="314" on="1"/>
        <pt x="35" y="352" on="1"/>
        <pt x="109" y="352" on="1"/>
        <pt x="107" y="382" on="0"/>
        <pt x="107" y="421" on="0"/>
        <pt x="108" y="431" on="1"/>
        <pt x="35" y="431" on="1"/>
        <pt x="35" y="469" on="1"/>
        <pt x="111" y="469" on="1"/>
        <pt x="129" y="629" on="0"/>
        <pt x="325" y="820" on="0"/>
        <pt x="474" y="820" on="1"/>
        <pt x="564" y="820" on="0"/>
        <pt x="642" y="763" on="1"/>
      </contour>
    </TTGlyph>
    <TTGlyph name="F" xMin="38" yMin="0" xMax="640" yMax="800">
      <contour>
        <pt x="332" y="21" on="1"/>
        <pt x="332" y="0" on="1"/>
        <pt x="38" y="0" on="1"/>
        <pt x="38" y="21" on="1"/>
        <pt x="130" y="36" on="1"/>
        <pt x="130" y="764" on="1"/>
        <pt x="38" y="778" on="1"/>
        <pt x="38" y="800" on="1"/>
        <pt x="640" y="800" on="1"/>
        <pt x="640" y="556" on="1"/>
        <pt x="613" y="556" on="1"/>
        <pt x="536" y="775" on="1"/>
        <pt x="240" y="775" on="1"/>
        <pt x="240" y="400" on="1"/>
        <pt x="409" y="400" on="1"/>
        <pt x="468" y="545" on="1"/>
        <pt x="495" y="545" on="1"/>
        <pt x="495" y="229" on="1"/>
        <pt x="468" y="229" on="1"/>
        <pt x="409" y="376" on="1"/>
        <pt x="240" y="376" on="1"/>
        <pt x="240" y="36" on="1"/>
      </contour>
    </TTGlyph>
    <TTGlyph name="G" xMin="52" yMin="-20" xMax="801" yMax="820">
      <contour>
        <pt x="659" y="820" on="1"/>
        <pt x="680" y="820" on="1"/>
        <pt x="680" y="572" on="1"/>
        <pt x="659" y="572" on="1"/>
        <pt x="593" y="737" on="1"/>
        <pt x="521" y="797" on="0"/>
        <pt x="317" y="797" on="0"/>
        <pt x="180" y="634" on="0"/>
        <pt x="180" y="492" on="1"/>
        <pt x="180" y="309" on="1"/>
        <pt x="180" y="166" on="0"/>
        <pt x="308" y="3" on="0"/>
        <pt x="414" y="3" on="1"/>
        <pt x="500" y="3" on="0"/>
        <pt x="595" y="119" on="0"/>
        <pt x="595" y="218" on="1"/>
        <pt x="595" y="331" on="1"/>
        <pt x="502" y="345" on="1"/>
        <pt x="502" y="367" on="1"/>
        <pt x="801" y="367" on="1"/>
        <pt x="801" y="345" on="1"/>
        <pt x="708" y="331" on="1"/>
        <pt x="708" y="218" on="1"/>
        <pt x="708" y="119" on="0"/>
        <pt x="561" y="-20" on="0"/>
        <pt x="414" y="-20" on="1"/>
        <pt x="249" y="-20" on="0"/>
        <pt x="52" y="212" on="0"/>
        <pt x="52" y="587" on="0"/>
        <pt x="258" y="820" on="0"/>
        <pt x="424" y="820" on="1"/>
        <pt x="526" y="820" on="0"/>
        <pt x="598" y="768" on="1"/>
      </contour>
    </TTGlyph>
    <TTGlyph name="H" xMin="38" yMin="0" xMax="822" yMax="800">
      <contour>
        <pt x="822" y="21" on="1"/>
        <pt x="822" y="0" on="1"/>
        <pt x="527" y="0" on="1"/>
        <pt x="527" y="21" on="1"/>
        <pt x="620" y="36" on="1"/>
        <pt x="620" y="411" on="1"/>
        <pt x="240" y="411" on="1"/>
        <pt x="240" y="36" on="1"/>
        <pt x="332" y="21" on="1"/>
        <pt x="332" y="0" on="1"/>
        <pt x="38" y="0" on="1"/>
        <pt x="38" y="21" on="1"/>
        <pt x="130" y="36" on="1"/>
        <pt x="130" y="764" on="1"/>
        <pt x="38" y="778" on="1"/>
        <pt x="38" y="800" on="1"/>
        <pt x="332" y="800" on="1"/>
        <pt x="332" y="778" on="1"/>
        <pt x="240" y="764" on="1"/>
        <pt x="240" y="436" on="1"/>
        <pt x="620" y="436" on="1"/>
        <pt x="620" y="764" on="1"/>
        <pt x="527" y="778" on="1"/>
        <pt x="527" y="800" on="1"/>
        <pt x="822" y="800" on="1"/>
        <pt x="822" y="778" on="1"/>
        <pt x="729" y="764" on="1"/>
        <pt x="729" y="36" on="1"/>
      </contour>
    </TTGlyph>
    <TTGlyph name="I" xMin="38" yMin="0" xMax="332" yMax="800">
      <contour>
        <pt x="332" y="21" on="1"/>
        <pt x="332" y="0" on="1"/>
        <pt x="38" y="0" on="1"/>
        <pt x="38" y="21" on="1"/>
        <pt x="130" y="36" on="1"/>
        <pt x="130" y="764" on="1"/>
        <pt x="38" y="778" on="1"/>
        <pt x="38" y="800" on="1"/>
        <pt x="332" y="800" on="1"/>
        <pt x="332" y="778" on="1"/>
        <pt x="240" y="764" on="1"/>
        <pt x="240" y="36" on="1"/>
      </contour>
    </TTGlyph>
    <TTGlyph name="Iacute" xMin="42" yMin="0" xMax="352" yMax="992">
      <component glyphName="I" x="4" y="0" flags="0x1004"/>
      <component glyphName="acute.case" x="117" y="39" flags="0x1004"/>
    </TTGlyph>
    <TTGlyph name="Icircumflex" xMin="31" yMin="0" xMax="345" yMax="977">
      <component glyphName="I" x="4" y="0" flags="0x1004"/>
      <component glyphName="circumflex.case" x="-3" y="13" flags="0x1004"/>
    </TTGlyph>
    <TTGlyph name="Idieresis" xMin="35" yMin="0" xMax="339" yMax="989">
      <component glyphName="I" x="4" y="0" flags="0x1004"/>
      <component glyphName="dieresis.case" x="11" y="38" flags="0x1004"/>
    </TTGlyph>
    <TTGlyph name="Igrave" xMin="12" yMin="0" xMax="336" yMax="992">
      <component glyphName="I" x="4" y="0" flags="0x1004"/>
      <component glyphName="grave.case" x="-12" y="39" flags="0x1004"/>
    </TTGlyph>
    <TTGlyph name="J" xMin="7" yMin="-20" xMax="420" yMax="800">
      <contour>
        <pt x="278" y="11" on="0"/>
        <pt x="203" y="-20" on="0"/>
        <pt x="86" y="-20" on="0"/>
        <pt x="7" y="32" on="0"/>
        <pt x="7" y="82" on="1"/>
        <pt x="7" y="115" on="0"/>
        <pt x="44" y="156" on="0"/>
        <pt x="98" y="156" on="0"/>
        <pt x="130" y="126" on="0"/>
        <pt x="134" y="112" on="1"/>
        <pt x="137" y="97" on="1"/>
        <pt x="108" y="76" on="0"/>
        <pt x="108" y="29" on="0"/>
        <pt x="132" y="3" on="0"/>
        <pt x="153" y="3" on="1"/>
        <pt x="185" y="3" on="0"/>
        <pt x="218" y="89" on="0"/>
        <pt x="222" y="197" on="1"/>
        <pt x="222" y="764" on="1"/>
        <pt x="130" y="778" on="1"/>
        <pt x="130" y="800" on="1"/>
        <pt x="420" y="800" on="1"/>
        <pt x="420" y="778" on="1"/>
        <pt x="328" y="764" on="1"/>
        <pt x="328" y="197" on="1"/>
        <pt x="328" y="145" on="0"/>
        <pt x="315" y="75" on="0"/>
      </contour>
    </TTGlyph>
    <TTGlyph name="K" xMin="38" yMin="0" xMax="766" yMax="800">
      <contour>
        <pt x="766" y="0" on="1"/>
        <pt x="471" y="0" on="1"/>
        <pt x="471" y="21" on="1"/>
        <pt x="562" y="35" on="1"/>
        <pt x="300" y="430" on="1"/>
        <pt x="240" y="369" on="1"/>
        <pt x="240" y="36" on="1"/>
        <pt x="332" y="21" on="1"/>
        <pt x="332" y="0" on="1"/>
        <pt x="38" y="0" on="1"/>
        <pt x="38" y="21" on="1"/>
        <pt x="130" y="36" on="1"/>
        <pt x="130" y="764" on="1"/>
        <pt x="38" y="778" on="1"/>
        <pt x="38" y="800" on="1"/>
        <pt x="332" y="800" on="1"/>
        <pt x="332" y="778" on="1"/>
        <pt x="240" y="764" on="1"/>
        <pt x="240" y="404" on="1"/>
        <pt x="565" y="736" on="1"/>
        <pt x="456" y="778" on="1"/>
        <pt x="456" y="800" on="1"/>
        <pt x="687" y="800" on="1"/>
        <pt x="687" y="778" on="1"/>
        <pt x="605" y="736" on="1"/>
        <pt x="378" y="508" on="1"/>
        <pt x="698" y="36" on="1"/>
        <pt x="766" y="21" on="1"/>
      </contour>
    </TTGlyph>
    <TTGlyph name="L" xMin="38" yMin="0" xMax="648" yMax="800">
      <contour>
        <pt x="38" y="800" on="1"/>
        <pt x="332" y="800" on="1"/>
        <pt x="332" y="778" on="1"/>
        <pt x="240" y="764" on="1"/>
        <pt x="240" y="24" on="1"/>
        <pt x="539" y="24" on="1"/>
        <pt x="621" y="244" on="1"/>
        <pt x="648" y="244" on="1"/>
        <pt x="648" y="0" on="1"/>
        <pt x="38" y="0" on="1"/>
        <pt x="38" y="21" on="1"/>
        <pt x="130" y="36" on="1"/>
        <pt x="130" y="764" on="1"/>
        <pt x="38" y="778" on="1"/>
      </contour>
    </TTGlyph>
    <TTGlyph name="M" xMin="38" yMin="-10" xMax="970" yMax="800">
      <contour>
        <pt x="132" y="61" on="1"/>
        <pt x="132" y="764" on="1"/>
        <pt x="40" y="778" on="1"/>
        <pt x="40" y="800" on="1"/>
        <pt x="261" y="800" on="1"/>
        <pt x="512" y="158" on="1"/>
        <pt x="768" y="800" on="1"/>
        <pt x="970" y="800" on="1"/>
        <pt x="970" y="778" on="1"/>
        <pt x="878" y="764" on="1"/>
        <pt x="878" y="36" on="1"/>
        <pt x="970" y="21" on="1"/>
        <pt x="970" y="0" on="1"/>
        <pt x="676" y="0" on="1"/>
        <pt x="676" y="21" on="1"/>
        <pt x="768" y="36" on="1"/>
        <pt x="768" y="734" on="1"/>
        <pt x="472" y="-10" on="1"/>
        <pt x="454" y="-10" on="1"/>
        <pt x="156" y="764" on="1"/>
        <pt x="156" y="61" on="1"/>
        <pt x="252" y="21" on="1"/>
        <pt x="252" y="0" on="1"/>
        <pt x="38" y="0" on="1"/>
        <pt x="38" y="21" on="1"/>
      </contour>
    </TTGlyph>
    <TTGlyph name="N" xMin="41" yMin="0" xMax="778" yMax="800">
      <contour>
        <pt x="134" y="61" on="1"/>
        <pt x="134" y="739" on="1"/>
        <pt x="41" y="778" on="1"/>
        <pt x="41" y="800" on="1"/>
        <pt x="227" y="800" on="1"/>
        <pt x="658" y="196" on="1"/>
        <pt x="658" y="739" on="1"/>
        <pt x="565" y="778" on="1"/>
        <pt x="565" y="800" on="1"/>
        <pt x="778" y="800" on="1"/>
        <pt x="778" y="778" on="1"/>
        <pt x="683" y="739" on="1"/>
        <pt x="683" y="0" on="1"/>
        <pt x="658" y="0" on="1"/>
        <pt x="159" y="701" on="1"/>
        <pt x="159" y="61" on="1"/>
        <pt x="255" y="21" on="1"/>
        <pt x="255" y="0" on="1"/>
        <pt x="41" y="0" on="1"/>
        <pt x="41" y="21" on="1"/>
      </contour>
    </TTGlyph>
    <TTGlyph name="Ntilde" xMin="41" yMin="0" xMax="778" yMax="977">
      <component glyphName="N" x="0" y="0" flags="0x1204"/>
      <component glyphName="tilde.case" x="201" y="20" flags="0x1004"/>
    </TTGlyph>
    <TTGlyph name="O" xMin="51" yMin="-20" xMax="805" yMax="820">
      <contour>
        <pt x="51" y="400" on="1"/>
        <pt x="51" y="494" on="0"/>
        <pt x="107" y="648" on="0"/>
        <pt x="158" y="704" on="1"/>
        <pt x="264" y="820" on="0"/>
        <pt x="428" y="820" on="1"/>
        <pt x="510" y="820" on="0"/>
        <pt x="649" y="758" on="0"/>
        <pt x="699" y="702" on="1"/>
        <pt x="805" y="585" on="0"/>
        <pt x="805" y="400" on="1"/>
        <pt x="805" y="216" on="0"/>
        <pt x="700" y="98" on="1"/>
        <pt x="650" y="42" on="0"/>
        <pt x="511" y="-20" on="0"/>
        <pt x="428" y="-20" on="1"/>
        <pt x="263" y="-20" on="0"/>
        <pt x="51" y="215" on="0"/>
      </contour>
      <contour>
        <pt x="681" y="323" on="1"/>
        <pt x="681" y="477" on="1"/>
        <pt x="681" y="622" on="0"/>
        <pt x="610" y="710" on="1"/>
        <pt x="540" y="797" on="0"/>
        <pt x="428" y="797" on="1"/>
        <pt x="316" y="797" on="0"/>
        <pt x="246" y="710" on="1"/>
        <pt x="175" y="622" on="0"/>
        <pt x="175" y="477" on="1"/>
        <pt x="175" y="323" on="1"/>
        <pt x="175" y="175" on="0"/>
        <pt x="246" y="88" on="1"/>
        <pt x="316" y="3" on="0"/>
        <pt x="540" y="3" on="0"/>
        <pt x="610" y="88" on="1"/>
        <pt x="681" y="175" on="0"/>
      </contour>
    </TTGlyph>
    <TTGlyph name="OE" xMin="51" yMin="-20" xMax="1179" yMax="820">
      <contour>
        <pt x="954" y="560" on="1"/>
        <pt x="980" y="560" on="1"/>
        <pt x="980" y="244" on="1"/>
        <pt x="954" y="244" on="1"/>
        <pt x="894" y="391" on="1"/>
        <pt x="777" y="391" on="1"/>
        <pt x="777" y="24" on="1"/>
        <pt x="1071" y="24" on="1"/>
        <pt x="1153" y="244" on="1"/>
        <pt x="1179" y="244" on="1"/>
        <pt x="1179" y="0" on="1"/>
        <pt x="678" y="0" on="1"/>
        <pt x="678" y="91" on="1"/>
        <pt x="587" y="-20" on="0"/>
        <pt x="262" y="-20" on="0"/>
        <pt x="51" y="214" on="0"/>
        <pt x="51" y="587" on="0"/>
        <pt x="262" y="820" on="0"/>
        <pt x="586" y="820" on="0"/>
        <pt x="678" y="709" on="1"/>
        <pt x="678" y="800" on="1"/>
        <pt x="1157" y="800" on="1"/>
        <pt x="1157" y="571" on="1"/>
        <pt x="1130" y="571" on="1"/>
        <pt x="1053" y="775" on="1"/>
        <pt x="777" y="775" on="1"/>
        <pt x="777" y="415" on="1"/>
        <pt x="894" y="415" on="1"/>
      </contour>
      <contour>
        <pt x="179" y="173" on="0"/>
        <pt x="317" y="3" on="0"/>
        <pt x="538" y="3" on="0"/>
        <pt x="667" y="172" on="0"/>
        <pt x="667" y="323" on="1"/>
        <pt x="667" y="477" on="1"/>
        <pt x="667" y="628" on="0"/>
        <pt x="538" y="797" on="0"/>
        <pt x="317" y="797" on="0"/>
        <pt x="179" y="627" on="0"/>
        <pt x="179" y="477" on="1"/>
        <pt x="179" y="323" on="1"/>
      </contour>
    </TTGlyph>
    <TTGlyph name="Oacute" xMin="51" yMin="-20" xMax="805" yMax="992">
      <component glyphName="O" x="0" y="0" flags="0x1204"/>
      <component glyphName="acute.case" x="375" y="39" flags="0x1004"/>
    </TTGlyph>
    <TTGlyph name="Ocircumflex" xMin="51" yMin="-20" xMax="805" yMax="977">
      <component glyphName="O" x="0" y="0" flags="0x1204"/>
      <component glyphName="circumflex.case" x="236" y="13" flags="0x1004"/>
    </TTGlyph>
    <TTGlyph name="Odieresis" xMin="51" yMin="-20" xMax="805" yMax="989">
      <component glyphName="O" x="0" y="0" flags="0x1204"/>
      <component glyphName="dieresis.case" x="251" y="38" flags="0x1004"/>
    </TTGlyph>
    <TTGlyph name="Ograve" xMin="51" yMin="-20" xMax="805" yMax="992">
      <component glyphName="O" x="0" y="0" flags="0x1204"/>
      <component glyphName="grave.case" x="249" y="39" flags="0x1004"/>
    </TTGlyph>
    <TTGlyph name="Oslash" xMin="51" yMin="-22" xMax="805" yMax="822">
      <contour>
        <pt x="428" y="-20" on="1"/>
        <pt x="345" y="-20" on="0"/>
        <pt x="274" y="11" on="1"/>
        <pt x="260" y="-22" on="1"/>
        <pt x="218" y="-22" on="1"/>
        <pt x="240" y="28" on="1"/>
        <pt x="151" y="80" on="0"/>
        <pt x="51" y="274" on="0"/>
        <pt x="51" y="400" on="1"/>
        <pt x="51" y="587" on="0"/>
        <pt x="262" y="820" on="0"/>
        <pt x="428" y="820" on="1"/>
        <pt x="511" y="820" on="0"/>
        <pt x="585" y="787" on="1"/>
        <pt x="601" y="822" on="1"/>
        <pt x="642" y="822" on="1"/>
        <pt x="618" y="769" on="1"/>
        <pt x="706" y="717" on="0"/>
        <pt x="805" y="525" on="0"/>
        <pt x="805" y="400" on="1"/>
        <pt x="805" y="214" on="0"/>
        <pt x="594" y="-20" on="0"/>
      </contour>
      <contour>
        <pt x="175" y="323" on="1"/>
        <pt x="175" y="155" on="0"/>
        <pt x="263" y="69" on="1"/>
        <pt x="566" y="753" on="1"/>
        <pt x="505" y="797" on="0"/>
        <pt x="428" y="797" on="1"/>
        <pt x="317" y="797" on="0"/>
        <pt x="175" y="626" on="0"/>
        <pt x="175" y="477" on="1"/>
      </contour>
      <contour>
        <pt x="428" y="3" on="1"/>
        <pt x="539" y="3" on="0"/>
        <pt x="681" y="174" on="0"/>
        <pt x="681" y="323" on="1"/>
        <pt x="681" y="477" on="1"/>
        <pt x="681" y="639" on="0"/>
        <pt x="595" y="727" on="1"/>
        <pt x="292" y="44" on="1"/>
        <pt x="351" y="3" on="0"/>
      </contour>
    </TTGlyph>
    <TTGlyph name="Otilde" xMin="51" yMin="-20" xMax="805" yMax="977">
      <component glyphName="O" x="0" y="0" flags="0x1204"/>
      <component glyphName="tilde.case" x="227" y="20" flags="0x1004"/>
    </TTGlyph>
    <TTGlyph name="P" xMin="38" yMin="0" xMax="644" yMax="800">
      <contour>
        <pt x="352" y="310" on="1"/>
        <pt x="240" y="310" on="1"/>
        <pt x="240" y="36" on="1"/>
        <pt x="332" y="21" on="1"/>
        <pt x="332" y="0" on="1"/>
        <pt x="38" y="0" on="1"/>
        <pt x="38" y="21" on="1"/>
        <pt x="130" y="36" on="1"/>
        <pt x="130" y="764" on="1"/>
        <pt x="38" y="778" on="1"/>
        <pt x="38" y="800" on="1"/>
        <pt x="352" y="800" on="1"/>
        <pt x="644" y="800" on="0"/>
        <pt x="644" y="555" on="1"/>
        <pt x="644" y="310" on="0"/>
      </contour>
      <contour>
        <pt x="338" y="775" on="1"/>
        <pt x="240" y="775" on="1"/>
        <pt x="240" y="334" on="1"/>
        <pt x="338" y="334" on="1"/>
        <pt x="523" y="334" on="0"/>
        <pt x="523" y="535" on="1"/>
        <pt x="523" y="575" on="1"/>
        <pt x="523" y="775" on="0"/>
      </contour>
    </TTGlyph>
    <TTGlyph name="Q" xMin="51" yMin="-231" xMax="805" yMax="820">
      <contour>
        <pt x="613" y="-208" on="1"/>
        <pt x="613" y="-231" on="1"/>
        <pt x="580" y="-231" on="1"/>
        <pt x="368" y="-231" on="0"/>
        <pt x="368" y="-58" on="1"/>
        <pt x="368" y="-15" on="1"/>
        <pt x="225" y="5" on="0"/>
        <pt x="138" y="118" on="1"/>
        <pt x="51" y="233" on="0"/>
        <pt x="51" y="400" on="1"/>
        <pt x="51" y="586" on="0"/>
        <pt x="158" y="704" on="1"/>
        <pt x="264" y="820" on="0"/>
        <pt x="428" y="820" on="1"/>
        <pt x="510" y="820" on="0"/>
        <pt x="649" y="758" on="0"/>
        <pt x="699" y="702" on="1"/>
        <pt x="805" y="585" on="0"/>
        <pt x="805" y="400" on="1"/>
        <pt x="805" y="235" on="0"/>
        <pt x="718" y="122" on="1"/>
        <pt x="631" y="7" on="0"/>
        <pt x="491" y="-15" on="1"/>
        <pt x="491" y="-82" on="1"/>
        <pt x="491" y="-208" on="0"/>
      </contour>
      <contour>
        <pt x="177" y="174" on="0"/>
        <pt x="317" y="3" on="0"/>
        <pt x="538" y="3" on="0"/>
        <pt x="679" y="174" on="0"/>
        <pt x="679" y="323" on="1"/>
        <pt x="679" y="477" on="1"/>
        <pt x="679" y="626" on="0"/>
        <pt x="538" y="797" on="0"/>
        <pt x="317" y="797" on="0"/>
        <pt x="177" y="626" on="0"/>
        <pt x="177" y="477" on="1"/>
        <pt x="177" y="323" on="1"/>
      </contour>
    </TTGlyph>
    <TTGlyph name="R" xMin="38" yMin="-10" xMax="746" yMax="800">
      <contour>
        <pt x="729" y="69" on="1"/>
        <pt x="746" y="51" on="1"/>
        <pt x="692" y="-10" on="0"/>
        <pt x="619" y="-10" on="1"/>
        <pt x="563" y="-10" on="0"/>
        <pt x="507" y="44" on="0"/>
        <pt x="497" y="109" on="1"/>
        <pt x="478" y="243" on="1"/>
        <pt x="457" y="388" on="0"/>
        <pt x="318" y="388" on="1"/>
        <pt x="240" y="388" on="1"/>
        <pt x="240" y="36" on="1"/>
        <pt x="332" y="21" on="1"/>
        <pt x="332" y="0" on="1"/>
        <pt x="38" y="0" on="1"/>
        <pt x="38" y="21" on="1"/>
        <pt x="130" y="36" on="1"/>
        <pt x="130" y="764" on="1"/>
        <pt x="38" y="778" on="1"/>
        <pt x="38" y="800" on="1"/>
        <pt x="318" y="800" on="1"/>
        <pt x="481" y="800" on="0"/>
        <pt x="627" y="698" on="0"/>
        <pt x="627" y="594" on="1"/>
        <pt x="627" y="422" on="0"/>
        <pt x="419" y="395" on="1"/>
        <pt x="419" y="389" on="1"/>
        <pt x="576" y="367" on="0"/>
        <pt x="601" y="217" on="1"/>
        <pt x="614" y="131" on="1"/>
        <pt x="622" y="81" on="0"/>
        <pt x="631" y="60" on="1"/>
        <pt x="642" y="35" on="0"/>
        <pt x="696" y="35" on="0"/>
      </contour>
      <contour>
        <pt x="318" y="775" on="1"/>
        <pt x="240" y="775" on="1"/>
        <pt x="240" y="412" on="1"/>
        <pt x="352" y="412" on="1"/>
        <pt x="425" y="412" on="0"/>
        <pt x="506" y="501" on="0"/>
        <pt x="506" y="588" on="1"/>
        <pt x="506" y="609" on="1"/>
        <pt x="506" y="775" on="0"/>
      </contour>
    </TTGlyph>
    <TTGlyph name="S" xMin="64" yMin="-20" xMax="606" yMax="820">
      <contour>
        <pt x="537" y="820" on="1"/>
        <pt x="559" y="820" on="1"/>
        <pt x="559" y="616" on="1"/>
        <pt x="537" y="616" on="1"/>
        <pt x="465" y="762" on="1"/>
        <pt x="390" y="798" on="0"/>
        <pt x="215" y="798" on="0"/>
        <pt x="115" y="709" on="0"/>
        <pt x="115" y="636" on="1"/>
        <pt x="115" y="582" on="0"/>
        <pt x="186" y="520" on="0"/>
        <pt x="255" y="502" on="1"/>
        <pt x="434" y="455" on="1"/>
        <pt x="521" y="433" on="0"/>
        <pt x="606" y="326" on="0"/>
        <pt x="606" y="106" on="0"/>
        <pt x="469" y="-20" on="0"/>
        <pt x="354" y="-20" on="1"/>
        <pt x="261" y="-20" on="0"/>
        <pt x="171" y="33" on="1"/>
        <pt x="86" y="-10" on="1"/>
        <pt x="64" y="-10" on="1"/>
        <pt x="64" y="247" on="1"/>
        <pt x="86" y="247" on="1"/>
        <pt x="172" y="61" on="1"/>
        <pt x="255" y="2" on="0"/>
        <pt x="450" y="2" on="0"/>
        <pt x="565" y="95" on="0"/>
        <pt x="565" y="179" on="1"/>
        <pt x="565" y="240" on="0"/>
        <pt x="491" y="311" on="0"/>
        <pt x="408" y="332" on="1"/>
        <pt x="242" y="375" on="1"/>
        <pt x="155" y="398" on="0"/>
        <pt x="67" y="509" on="0"/>
        <pt x="67" y="585" on="1"/>
        <pt x="67" y="691" on="0"/>
        <pt x="191" y="820" on="0"/>
        <pt x="301" y="820" on="1"/>
        <pt x="392" y="820" on="0"/>
        <pt x="464" y="789" on="1"/>
      </contour>
    </TTGlyph>
    <TTGlyph name="T" xMin="24" yMin="0" xMax="675" yMax="800">
      <contour>
        <pt x="645" y="577" on="1"/>
        <pt x="570" y="775" on="1"/>
        <pt x="404" y="775" on="1"/>
        <pt x="404" y="36" on="1"/>
        <pt x="496" y="21" on="1"/>
        <pt x="496" y="0" on="1"/>
        <pt x="202" y="0" on="1"/>
        <pt x="202" y="21" on="1"/>
        <pt x="294" y="36" on="1"/>
        <pt x="294" y="775" on="1"/>
        <pt x="129" y="775" on="1"/>
        <pt x="53" y="577" on="1"/>
        <pt x="24" y="577" on="1"/>
        <pt x="24" y="800" on="1"/>
        <pt x="675" y="800" on="1"/>
        <pt x="675" y="577" on="1"/>
      </contour>
    </TTGlyph>
    <TTGlyph name="Thorn" xMin="38" yMin="0" xMax="676" yMax="800">
      <contour>
        <pt x="336" y="21" on="1"/>
        <pt x="336" y="0" on="1"/>
        <pt x="38" y="0" on="1"/>
        <pt x="38" y="21" on="1"/>
        <pt x="130" y="36" on="1"/>
        <pt x="130" y="764" on="1"/>
        <pt x="38" y="778" on="1"/>
        <pt x="38" y="800" on="1"/>
        <pt x="336" y="800" on="1"/>
        <pt x="336" y="778" on="1"/>
        <pt x="244" y="764" on="1"/>
        <pt x="244" y="624" on="1"/>
        <pt x="356" y="624" on="1"/>
        <pt x="521" y="624" on="0"/>
        <pt x="676" y="519" on="0"/>
        <pt x="676" y="288" on="0"/>
        <pt x="521" y="183" on="0"/>
        <pt x="356" y="183" on="1"/>
        <pt x="244" y="183" on="1"/>
        <pt x="244" y="36" on="1"/>
      </contour>
      <contour>
        <pt x="342" y="600" on="1"/>
        <pt x="244" y="600" on="1"/>
        <pt x="244" y="207" on="1"/>
        <pt x="342" y="207" on="1"/>
        <pt x="548" y="207" on="0"/>
        <pt x="548" y="388" on="1"/>
        <pt x="548" y="418" on="1"/>
        <pt x="548" y="600" on="0"/>
      </contour>
    </TTGlyph>
    <TTGlyph name="U" xMin="26" yMin="-20" xMax="782" yMax="800">
      <contour>
        <pt x="686" y="219" on="1"/>
        <pt x="686" y="99" on="0"/>
        <pt x="552" y="-20" on="0"/>
        <pt x="254" y="-20" on="0"/>
        <pt x="118" y="111" on="0"/>
        <pt x="118" y="219" on="1"/>
        <pt x="118" y="764" on="1"/>
        <pt x="26" y="778" on="1"/>
        <pt x="26" y="800" on="1"/>
        <pt x="320" y="800" on="1"/>
        <pt x="320" y="778" on="1"/>
        <pt x="228" y="764" on="1"/>
        <pt x="228" y="219" on="1"/>
        <pt x="228" y="16" on="0"/>
        <pt x="450" y="16" on="1"/>
        <pt x="662" y="16" on="0"/>
        <pt x="662" y="219" on="1"/>
        <pt x="662" y="739" on="1"/>
        <pt x="569" y="778" on="1"/>
        <pt x="569" y="800" on="1"/>
        <pt x="782" y="800" on="1"/>
        <pt x="782" y="778" on="1"/>
        <pt x="686" y="739" on="1"/>
      </contour>
    </TTGlyph>
    <TTGlyph name="Uacute" xMin="29" yMin="-20" xMax="785" yMax="992">
      <component glyphName="U" x="3" y="0" flags="0x1004"/>
      <component glyphName="acute.case" x="357" y="39" flags="0x1004"/>
    </TTGlyph>
    <TTGlyph name="Ucircumflex" xMin="29" yMin="-20" xMax="785" yMax="977">
      <component glyphName="U" x="3" y="0" flags="0x1004"/>
      <component glyphName="circumflex.case" x="248" y="13" flags="0x1004"/>
    </TTGlyph>
    <TTGlyph name="Udieresis" xMin="29" yMin="-20" xMax="785" yMax="987">
      <component glyphName="U" x="3" y="0" flags="0x1004"/>
      <component glyphName="dieresis.case" x="267" y="36" flags="0x1004"/>
    </TTGlyph>
    <TTGlyph name="Ugrave" xMin="29" yMin="-20" xMax="785" yMax="992">
      <component glyphName="U" x="3" y="0" flags="0x1004"/>
      <component glyphName="grave.case" x="265" y="39" flags="0x1004"/>
    </TTGlyph>
    <TTGlyph name="V" xMin="-28" yMin="-20" xMax="707" yMax="800">
      <contour>
        <pt x="340" y="-20" on="1"/>
        <pt x="52" y="764" on="1"/>
        <pt x="-28" y="778" on="1"/>
        <pt x="-28" y="800" on="1"/>
        <pt x="265" y="800" on="1"/>
        <pt x="265" y="778" on="1"/>
        <pt x="171" y="766" on="1"/>
        <pt x="391" y="167" on="1"/>
        <pt x="607" y="733" on="1"/>
        <pt x="492" y="778" on="1"/>
        <pt x="492" y="800" on="1"/>
        <pt x="707" y="800" on="1"/>
        <pt x="707" y="778" on="1"/>
        <pt x="634" y="734" on="1"/>
        <pt x="348" y="-20" on="1"/>
      </contour>
    </TTGlyph>
    <TTGlyph name="W" xMin="-20" yMin="-20" xMax="1106" yMax="800">
      <contour>
        <pt x="891" y="778" on="1"/>
        <pt x="891" y="800" on="1"/>
        <pt x="1106" y="800" on="1"/>
        <pt x="1106" y="778" on="1"/>
        <pt x="1030" y="734" on="1"/>
        <pt x="744" y="-20" on="1"/>
        <pt x="736" y="-20" on="1"/>
        <pt x="541" y="519" on="1"/>
        <pt x="337" y="-20" on="1"/>
        <pt x="329" y="-20" on="1"/>
        <pt x="47" y="764" on="1"/>
        <pt x="-20" y="778" on="1"/>
        <pt x="-20" y="800" on="1"/>
        <pt x="258" y="800" on="1"/>
        <pt x="258" y="778" on="1"/>
        <pt x="167" y="764" on="1"/>
        <pt x="382" y="172" on="1"/>
        <pt x="528" y="554" on="1"/>
        <pt x="453" y="764" on="1"/>
        <pt x="361" y="778" on="1"/>
        <pt x="361" y="800" on="1"/>
        <pt x="658" y="800" on="1"/>
        <pt x="658" y="778" on="1"/>
        <pt x="572" y="766" on="1"/>
        <pt x="789" y="173" on="1"/>
        <pt x="1004" y="733" on="1"/>
      </contour>
    </TTGlyph>
    <TTGlyph name="X" xMin="-8" yMin="0" xMax="787" yMax="800">
      <contour>
        <pt x="241" y="21" on="1"/>
        <pt x="241" y="0" on="1"/>
        <pt x="2" y="0" on="1"/>
        <pt x="2" y="21" on="1"/>
        <pt x="101" y="77" on="1"/>
        <pt x="330" y="383" on="1"/>
        <pt x="77" y="764" on="1"/>
        <pt x="-8" y="778" on="1"/>
        <pt x="-8" y="800" on="1"/>
        <pt x="295" y="800" on="1"/>
        <pt x="295" y="778" on="1"/>
        <pt x="216" y="766" on="1"/>
        <pt x="410" y="472" on="1"/>
        <pt x="603" y="730" on="1"/>
        <pt x="484" y="778" on="1"/>
        <pt x="484" y="800" on="1"/>
        <pt x="723" y="800" on="1"/>
        <pt x="723" y="778" on="1"/>
        <pt x="628" y="725" on="1"/>
        <pt x="424" y="452" on="1"/>
        <pt x="701" y="35" on="1"/>
        <pt x="787" y="21" on="1"/>
        <pt x="787" y="0" on="1"/>
        <pt x="483" y="0" on="1"/>
        <pt x="483" y="21" on="1"/>
        <pt x="562" y="34" on="1"/>
        <pt x="344" y="362" on="1"/>
        <pt x="123" y="68" on="1"/>
      </contour>
    </TTGlyph>
    <TTGlyph name="Y" xMin="-31" yMin="0" xMax="684" yMax="800">
      <contour>
        <pt x="399" y="373" on="1"/>
        <pt x="399" y="36" on="1"/>
        <pt x="492" y="21" on="1"/>
        <pt x="492" y="0" on="1"/>
        <pt x="198" y="0" on="1"/>
        <pt x="198" y="21" on="1"/>
        <pt x="291" y="36" on="1"/>
        <pt x="291" y="340" on="1"/>
        <pt x="48" y="764" on="1"/>
        <pt x="-31" y="778" on="1"/>
        <pt x="-31" y="800" on="1"/>
        <pt x="270" y="800" on="1"/>
        <pt x="270" y="778" on="1"/>
        <pt x="177" y="764" on="1"/>
        <pt x="387" y="401" on="1"/>
        <pt x="580" y="730" on="1"/>
        <pt x="460" y="778" on="1"/>
        <pt x="460" y="800" on="1"/>
        <pt x="684" y="800" on="1"/>
        <pt x="684" y="778" on="1"/>
        <pt x="607" y="729" on="1"/>
      </contour>
    </TTGlyph>
    <TTGlyph name="Yacute" xMin="-31" yMin="0" xMax="684" yMax="992">
      <component glyphName="acute.case" x="287" y="39" flags="0x1004"/>
      <component glyphName="Y" x="0" y="0" flags="0x1004"/>
    </TTGlyph>
    <TTGlyph name="Z" xMin="27" yMin="0" xMax="640" yMax="800">
      <contour>
        <pt x="80" y="800" on="1"/>
        <pt x="630" y="800" on="1"/>
        <pt x="630" y="775" on="1"/>
        <pt x="161" y="24" on="1"/>
        <pt x="511" y="24" on="1"/>
        <pt x="614" y="229" on="1"/>
        <pt x="640" y="229" on="1"/>
        <pt x="616" y="0" on="1"/>
        <pt x="27" y="0" on="1"/>
        <pt x="27" y="24" on="1"/>
        <pt x="495" y="775" on="1"/>
        <pt x="185" y="775" on="1"/>
        <pt x="82" y="585" on="1"/>
        <pt x="56" y="585" on="1"/>
      </contour>
    </TTGlyph>
    <TTGlyph name="a" xMin="37" yMin="-10" xMax="561" yMax="527">
      <contour>
        <pt x="366" y="99" on="1"/>
        <pt x="341" y="48" on="0"/>
        <pt x="241" y="-10" on="0"/>
        <pt x="117" y="-10" on="0"/>
        <pt x="37" y="57" on="0"/>
        <pt x="37" y="174" on="0"/>
        <pt x="87" y="241" on="0"/>
        <pt x="128" y="262" on="1"/>
        <pt x="201" y="298" on="0"/>
        <pt x="329" y="298" on="1"/>
        <pt x="366" y="298" on="1"/>
        <pt x="366" y="393" on="1"/>
        <pt x="366" y="505" on="0"/>
        <pt x="264" y="505" on="1"/>
        <pt x="219" y="505" on="0"/>
        <pt x="161" y="463" on="0"/>
        <pt x="161" y="408" on="0"/>
        <pt x="189" y="399" on="1"/>
        <pt x="189" y="374" on="0"/>
        <pt x="151" y="336" on="0"/>
        <pt x="125" y="336" on="1"/>
        <pt x="99" y="336" on="0"/>
        <pt x="63" y="373" on="0"/>
        <pt x="63" y="428" on="0"/>
        <pt x="96" y="475" on="0"/>
        <pt x="124" y="492" on="1"/>
        <pt x="180" y="527" on="0"/>
        <pt x="264" y="527" on="1"/>
        <pt x="466" y="527" on="0"/>
        <pt x="466" y="373" on="1"/>
        <pt x="466" y="67" on="1"/>
        <pt x="466" y="22" on="0"/>
        <pt x="503" y="22" on="1"/>
        <pt x="540" y="22" on="0"/>
        <pt x="540" y="65" on="1"/>
        <pt x="561" y="65" on="1"/>
        <pt x="561" y="30" on="0"/>
        <pt x="515" y="-10" on="0"/>
        <pt x="472" y="-10" on="1"/>
        <pt x="429" y="-10" on="0"/>
        <pt x="367" y="44" on="0"/>
      </contour>
      <contour>
        <pt x="366" y="170" on="1"/>
        <pt x="366" y="273" on="1"/>
        <pt x="329" y="273" on="1"/>
        <pt x="251" y="273" on="0"/>
        <pt x="146" y="199" on="0"/>
        <pt x="146" y="123" on="1"/>
        <pt x="146" y="83" on="0"/>
        <pt x="190" y="37" on="0"/>
        <pt x="277" y="37" on="0"/>
        <pt x="360" y="109" on="0"/>
      </contour>
    </TTGlyph>
    <TTGlyph name="aacute" xMin="37" yMin="-10" xMax="561" yMax="769">
      <component glyphName="a" x="0" y="0" flags="0x1204"/>
      <component glyphName="acute" x="200" y="0" flags="0x1004"/>
    </TTGlyph>
    <TTGlyph name="acircumflex" xMin="37" yMin="-10" xMax="561" yMax="759">
      <component glyphName="a" x="0" y="0" flags="0x1204"/>
      <component glyphName="circumflex" x="95" y="0" flags="0x1004"/>
    </TTGlyph>
    <TTGlyph name="acute" xMin="29" yMin="571" xMax="193" yMax="769">
      <contour>
        <pt x="165" y="769" on="0"/>
        <pt x="193" y="741" on="0"/>
        <pt x="193" y="699" on="0"/>
        <pt x="176" y="687" on="1"/>
        <pt x="45" y="571" on="1"/>
        <pt x="29" y="583" on="1"/>
        <pt x="103" y="741" on="1"/>
        <pt x="115" y="769" on="0"/>
        <pt x="146" y="769" on="1"/>
      </contour>
    </TTGlyph>
    <TTGlyph name="acute.case" xMin="24" yMin="810" xMax="235" yMax="953">
      <contour>
        <pt x="201" y="861" on="1"/>
        <pt x="34" y="810" on="1"/>
        <pt x="24" y="827" on="1"/>
        <pt x="156" y="941" on="1"/>
        <pt x="170" y="953" on="0"/>
        <pt x="208" y="953" on="0"/>
        <pt x="235" y="925" on="0"/>
        <pt x="235" y="891" on="0"/>
        <pt x="216" y="866" on="0"/>
      </contour>
    </TTGlyph>
    <TTGlyph name="adieresis" xMin="37" yMin="-10" xMax="561" yMax="729">
      <component glyphName="a" x="0" y="0" flags="0x1204"/>
      <component glyphName="dieresis" x="73" y="-4" flags="0x1004"/>
    </TTGlyph>
    <TTGlyph name="ae" xMin="37" yMin="-10" xMax="836" yMax="527">
      <contour>
        <pt x="468" y="121" on="0"/>
        <pt x="547" y="12" on="0"/>
        <pt x="691" y="12" on="0"/>
        <pt x="797" y="90" on="0"/>
        <pt x="809" y="152" on="1"/>
        <pt x="832" y="152" on="1"/>
        <pt x="818" y="78" on="0"/>
        <pt x="704" y="-10" on="0"/>
        <pt x="540" y="-10" on="0"/>
        <pt x="409" y="69" on="0"/>
        <pt x="381" y="138" on="1"/>
        <pt x="326" y="-10" on="0"/>
        <pt x="178" y="-10" on="1"/>
        <pt x="117" y="-10" on="0"/>
        <pt x="37" y="58" on="0"/>
        <pt x="37" y="173" on="0"/>
        <pt x="87" y="244" on="0"/>
        <pt x="131" y="263" on="1"/>
        <pt x="212" y="298" on="0"/>
        <pt x="329" y="298" on="1"/>
        <pt x="366" y="298" on="1"/>
        <pt x="366" y="393" on="1"/>
        <pt x="366" y="505" on="0"/>
        <pt x="264" y="505" on="1"/>
        <pt x="219" y="505" on="0"/>
        <pt x="161" y="463" on="0"/>
        <pt x="161" y="408" on="0"/>
        <pt x="189" y="399" on="1"/>
        <pt x="189" y="374" on="0"/>
        <pt x="151" y="336" on="0"/>
        <pt x="99" y="336" on="0"/>
        <pt x="63" y="373" on="0"/>
        <pt x="63" y="399" on="1"/>
        <pt x="63" y="456" on="0"/>
        <pt x="181" y="527" on="0"/>
        <pt x="264" y="527" on="1"/>
        <pt x="396" y="527" on="0"/>
        <pt x="441" y="461" on="1"/>
        <pt x="512" y="527" on="0"/>
        <pt x="712" y="527" on="0"/>
        <pt x="834" y="405" on="0"/>
        <pt x="836" y="308" on="1"/>
        <pt x="468" y="308" on="1"/>
        <pt x="468" y="209" on="1"/>
      </contour>
      <contour>
        <pt x="228" y="37" on="1"/>
        <pt x="281" y="37" on="0"/>
        <pt x="366" y="128" on="0"/>
        <pt x="366" y="191" on="1"/>
        <pt x="366" y="273" on="1"/>
        <pt x="329" y="273" on="1"/>
        <pt x="251" y="273" on="0"/>
        <pt x="146" y="199" on="0"/>
        <pt x="146" y="123" on="1"/>
        <pt x="146" y="83" on="0"/>
        <pt x="190" y="37" on="0"/>
      </contour>
      <contour>
        <pt x="616" y="505" on="1"/>
        <pt x="549" y="505" on="0"/>
        <pt x="474" y="412" on="0"/>
        <pt x="469" y="333" on="1"/>
        <pt x="727" y="333" on="1"/>
        <pt x="727" y="505" on="0"/>
      </contour>
    </TTGlyph>
    <TTGlyph name="agrave" xMin="37" yMin="-10" xMax="561" yMax="769">
      <component glyphName="a" x="0" y="0" flags="0x1204"/>
      <component glyphName="grave" x="142" y="0" flags="0x1004"/>
    </TTGlyph>
    <TTGlyph name="ampersand" xMin="51" yMin="-20" xMax="800" yMax="820">
      <contour>
        <pt x="442" y="289" on="1"/>
        <pt x="342" y="289" on="0"/>
        <pt x="342" y="234" on="1"/>
        <pt x="342" y="206" on="0"/>
        <pt x="406" y="206" on="0"/>
        <pt x="419" y="233" on="1"/>
        <pt x="468" y="221" on="0"/>
        <pt x="468" y="178" on="1"/>
        <pt x="468" y="154" on="0"/>
        <pt x="433" y="118" on="0"/>
        <pt x="369" y="118" on="0"/>
        <pt x="319" y="184" on="0"/>
        <pt x="319" y="292" on="0"/>
        <pt x="405" y="376" on="0"/>
        <pt x="479" y="376" on="1"/>
        <pt x="525" y="376" on="0"/>
        <pt x="645" y="357" on="0"/>
        <pt x="722" y="357" on="0"/>
        <pt x="779" y="386" on="0"/>
        <pt x="779" y="412" on="1"/>
        <pt x="779" y="441" on="0"/>
        <pt x="716" y="441" on="0"/>
        <pt x="703" y="413" on="1"/>
        <pt x="654" y="424" on="0"/>
        <pt x="654" y="468" on="1"/>
        <pt x="654" y="492" on="0"/>
        <pt x="689" y="528" on="0"/>
        <pt x="753" y="528" on="0"/>
        <pt x="800" y="469" on="0"/>
        <pt x="800" y="423" on="1"/>
        <pt x="800" y="266" on="0"/>
        <pt x="650" y="266" on="1"/>
        <pt x="607" y="266" on="0"/>
        <pt x="579" y="270" on="1"/>
        <pt x="587" y="230" on="0"/>
        <pt x="587" y="197" on="1"/>
        <pt x="587" y="94" on="0"/>
        <pt x="471" y="-20" on="0"/>
        <pt x="372" y="-20" on="1"/>
        <pt x="210" y="-20" on="0"/>
        <pt x="51" y="109" on="0"/>
        <pt x="51" y="323" on="0"/>
        <pt x="204" y="438" on="0"/>
        <pt x="328" y="444" on="1"/>
        <pt x="328" y="447" on="1"/>
        <pt x="204" y="463" on="0"/>
        <pt x="85" y="550" on="0"/>
        <pt x="85" y="729" on="0"/>
        <pt x="220" y="820" on="0"/>
        <pt x="341" y="820" on="1"/>
        <pt x="422" y="820" on="0"/>
        <pt x="531" y="742" on="0"/>
        <pt x="531" y="677" on="1"/>
        <pt x="531" y="644" on="0"/>
        <pt x="494" y="607" on="0"/>
        <pt x="445" y="607" on="0"/>
        <pt x="411" y="637" on="0"/>
        <pt x="411" y="666" on="1"/>
        <pt x="453" y="685" on="0"/>
        <pt x="453" y="729" on="1"/>
        <pt x="453" y="760" on="0"/>
        <pt x="399" y="797" on="0"/>
        <pt x="352" y="797" on="1"/>
        <pt x="284" y="797" on="0"/>
        <pt x="203" y="717" on="0"/>
        <pt x="203" y="650" on="1"/>
        <pt x="203" y="554" on="0"/>
        <pt x="316" y="463" on="0"/>
        <pt x="425" y="457" on="1"/>
        <pt x="425" y="435" on="1"/>
        <pt x="188" y="420" on="0"/>
        <pt x="188" y="218" on="1"/>
        <pt x="188" y="118" on="0"/>
        <pt x="297" y="3" on="0"/>
        <pt x="461" y="3" on="0"/>
        <pt x="563" y="102" on="0"/>
        <pt x="563" y="195" on="1"/>
        <pt x="563" y="232" on="0"/>
        <pt x="552" y="274" on="1"/>
        <pt x="538" y="276" on="0"/>
        <pt x="514" y="280" on="1"/>
        <pt x="470" y="289" on="0"/>
      </contour>
    </TTGlyph>
    <TTGlyph name="aring" xMin="37" yMin="-10" xMax="561" yMax="761">
      <component glyphName="a" x="0" y="0" flags="0x1204"/>
      <component glyphName="ring" x="131" y="-4" flags="0x1004"/>
    </TTGlyph>
    <TTGlyph name="asciicircum" xMin="61" yMin="267" xMax="512" yMax="674">
      <contour>
        <pt x="267" y="674" on="1"/>
        <pt x="306" y="674" on="1"/>
        <pt x="512" y="267" on="1"/>
        <pt x="462" y="267" on="1"/>
        <pt x="286" y="612" on="1"/>
        <pt x="111" y="267" on="1"/>
        <pt x="61" y="267" on="1"/>
      </contour>
    </TTGlyph>
    <TTGlyph name="asciitilde" xMin="47" yMin="176" xMax="485" yMax="337">
      <contour>
        <pt x="449" y="313" on="1"/>
        <pt x="485" y="302" on="1"/>
        <pt x="482" y="289" on="0"/>
        <pt x="456" y="236" on="0"/>
        <pt x="431" y="203" on="0"/>
        <pt x="388" y="176" on="0"/>
        <pt x="342" y="176" on="0"/>
        <pt x="298" y="198" on="0"/>
        <pt x="274" y="220" on="0"/>
        <pt x="236" y="262" on="0"/>
        <pt x="226" y="271" on="1"/>
        <pt x="195" y="299" on="0"/>
        <pt x="143" y="299" on="0"/>
        <pt x="102" y="250" on="0"/>
        <pt x="94" y="226" on="1"/>
        <pt x="85" y="201" on="1"/>
        <pt x="48" y="212" on="0"/>
        <pt x="47" y="212" on="1"/>
        <pt x="50" y="226" on="0"/>
        <pt x="76" y="277" on="0"/>
        <pt x="101" y="310" on="0"/>
        <pt x="144" y="337" on="0"/>
        <pt x="191" y="337" on="0"/>
        <pt x="235" y="315" on="0"/>
        <pt x="261" y="292" on="0"/>
        <pt x="298" y="251" on="0"/>
        <pt x="308" y="242" on="1"/>
        <pt x="339" y="214" on="0"/>
        <pt x="364" y="214" on="1"/>
        <pt x="412" y="214" on="0"/>
        <pt x="443" y="296" on="1"/>
      </contour>
    </TTGlyph>
    <TTGlyph name="asterisk" xMin="56" yMin="373" xMax="396" yMax="755">
      <contour>
        <pt x="219" y="575" on="1"/>
        <pt x="198" y="727" on="1"/>
        <pt x="198" y="739" on="0"/>
        <pt x="213" y="755" on="0"/>
        <pt x="237" y="755" on="0"/>
        <pt x="252" y="739" on="0"/>
        <pt x="252" y="717" on="0"/>
        <pt x="232" y="586" on="0"/>
        <pt x="232" y="575" on="1"/>
        <pt x="241" y="580" on="0"/>
        <pt x="344" y="663" on="0"/>
        <pt x="363" y="674" on="0"/>
        <pt x="382" y="674" on="0"/>
        <pt x="395" y="652" on="0"/>
        <pt x="395" y="647" on="1"/>
        <pt x="395" y="629" on="0"/>
        <pt x="380" y="622" on="1"/>
        <pt x="371" y="616" on="0"/>
        <pt x="248" y="570" on="0"/>
        <pt x="239" y="564" on="1"/>
        <pt x="248" y="558" on="0"/>
        <pt x="370" y="510" on="0"/>
        <pt x="395" y="496" on="0"/>
        <pt x="395" y="476" on="0"/>
        <pt x="383" y="454" on="0"/>
        <pt x="362" y="454" on="0"/>
        <pt x="344" y="464" on="0"/>
        <pt x="242" y="547" on="0"/>
        <pt x="232" y="552" on="1"/>
        <pt x="253" y="401" on="1"/>
        <pt x="253" y="389" on="0"/>
        <pt x="238" y="373" on="0"/>
        <pt x="226" y="373" on="1"/>
        <pt x="199" y="375" on="0"/>
        <pt x="199" y="401" on="1"/>
        <pt x="199" y="410" on="0"/>
        <pt x="219" y="541" on="0"/>
        <pt x="219" y="552" on="1"/>
        <pt x="210" y="547" on="0"/>
        <pt x="107" y="464" on="0"/>
        <pt x="92" y="455" on="0"/>
        <pt x="72" y="455" on="0"/>
        <pt x="57" y="470" on="0"/>
        <pt x="57" y="497" on="0"/>
        <pt x="81" y="510" on="0"/>
        <pt x="203" y="558" on="0"/>
        <pt x="212" y="564" on="1"/>
        <pt x="203" y="570" on="0"/>
        <pt x="80" y="616" on="0"/>
        <pt x="71" y="622" on="1"/>
        <pt x="56" y="630" on="0"/>
        <pt x="56" y="657" on="0"/>
        <pt x="72" y="672" on="0"/>
        <pt x="91" y="672" on="0"/>
        <pt x="107" y="663" on="0"/>
        <pt x="210" y="580" on="0"/>
      </contour>
    </TTGlyph>
    <TTGlyph name="at" xMin="51" yMin="-10" xMax="845" yMax="810">
      <contour>
        <pt x="845" y="343" on="0"/>
        <pt x="714" y="184" on="0"/>
        <pt x="529" y="184" on="0"/>
        <pt x="500" y="242" on="1"/>
        <pt x="445" y="185" on="0"/>
        <pt x="289" y="185" on="0"/>
        <pt x="205" y="284" on="0"/>
        <pt x="205" y="360" on="1"/>
        <pt x="205" y="480" on="0"/>
        <pt x="363" y="642" on="0"/>
        <pt x="462" y="642" on="1"/>
        <pt x="503" y="642" on="0"/>
        <pt x="568" y="605" on="0"/>
        <pt x="584" y="576" on="1"/>
        <pt x="600" y="625" on="1"/>
        <pt x="682" y="625" on="1"/>
        <pt x="587" y="292" on="1"/>
        <pt x="581" y="270" on="0"/>
        <pt x="581" y="255" on="1"/>
        <pt x="581" y="215" on="0"/>
        <pt x="636" y="215" on="1"/>
        <pt x="709" y="215" on="0"/>
        <pt x="815" y="365" on="0"/>
        <pt x="815" y="464" on="1"/>
        <pt x="815" y="610" on="0"/>
        <pt x="623" y="783" on="0"/>
        <pt x="301" y="783" on="0"/>
        <pt x="80" y="562" on="0"/>
        <pt x="80" y="239" on="0"/>
        <pt x="301" y="20" on="0"/>
        <pt x="462" y="20" on="1"/>
        <pt x="537" y="20" on="0"/>
        <pt x="644" y="50" on="0"/>
        <pt x="703" y="83" on="1"/>
        <pt x="717" y="57" on="1"/>
        <pt x="654" y="22" on="0"/>
        <pt x="538" y="-10" on="0"/>
        <pt x="462" y="-10" on="1"/>
        <pt x="288" y="-10" on="0"/>
        <pt x="51" y="226" on="0"/>
        <pt x="51" y="574" on="0"/>
        <pt x="288" y="810" on="0"/>
        <pt x="638" y="810" on="0"/>
        <pt x="845" y="621" on="0"/>
        <pt x="845" y="464" on="1"/>
      </contour>
      <contour>
        <pt x="495" y="281" on="1"/>
        <pt x="573" y="542" on="1"/>
        <pt x="541" y="611" on="0"/>
        <pt x="399" y="611" on="0"/>
        <pt x="300" y="432" on="0"/>
        <pt x="300" y="326" on="1"/>
        <pt x="300" y="279" on="0"/>
        <pt x="342" y="221" on="0"/>
        <pt x="385" y="221" on="1"/>
        <pt x="451" y="221" on="0"/>
      </contour>
    </TTGlyph>
    <TTGlyph name="atilde" xMin="37" yMin="-10" xMax="561" yMax="737">
      <component glyphName="a" x="0" y="0" flags="0x1204"/>
      <component glyphName="tilde" x="57" y="0" flags="0x1004"/>
    </TTGlyph>
    <TTGlyph name="b" xMin="20" yMin="-11" xMax="598" yMax="800">
      <contour>
        <pt x="20" y="0" on="1"/>
        <pt x="20" y="20" on="1"/>
        <pt x="90" y="30" on="1"/>
        <pt x="90" y="770" on="1"/>
        <pt x="20" y="780" on="1"/>
        <pt x="20" y="800" on="1"/>
        <pt x="190" y="800" on="1"/>
        <pt x="190" y="413" on="1"/>
        <pt x="244" y="527" on="0"/>
        <pt x="359" y="527" on="1"/>
        <pt x="468" y="527" on="0"/>
        <pt x="598" y="378" on="0"/>
        <pt x="598" y="259" on="1"/>
        <pt x="598" y="139" on="0"/>
        <pt x="468" y="-10" on="0"/>
        <pt x="244" y="-10" on="0"/>
        <pt x="190" y="104" on="1"/>
        <pt x="190" y="0" on="1"/>
      </contour>
      <contour>
        <pt x="488" y="209" on="1"/>
        <pt x="488" y="309" on="1"/>
        <pt x="488" y="502" on="0"/>
        <pt x="349" y="502" on="1"/>
        <pt x="282" y="502" on="0"/>
        <pt x="192" y="393" on="0"/>
        <pt x="190" y="316" on="1"/>
        <pt x="190" y="209" on="1"/>
        <pt x="190" y="130" on="0"/>
        <pt x="281" y="15" on="0"/>
        <pt x="349" y="15" on="1"/>
        <pt x="488" y="15" on="0"/>
      </contour>
    </TTGlyph>
    <TTGlyph name="backslash" xMin="42" yMin="0" xMax="404" yMax="700">
      <contour>
        <pt x="352" y="0" on="1"/>
        <pt x="42" y="700" on="1"/>
        <pt x="93" y="700" on="1"/>
        <pt x="404" y="0" on="1"/>
      </contour>
    </TTGlyph>
    <TTGlyph name="bar" xMin="88" yMin="-240" xMax="123" yMax="760">
      <contour>
        <pt x="123" y="760" on="1"/>
        <pt x="123" y="-240" on="1"/>
        <pt x="88" y="-240" on="1"/>
        <pt x="88" y="760" on="1"/>
      </contour>
    </TTGlyph>
    <TTGlyph name="braceleft" xMin="12" yMin="-194" xMax="290" yMax="907">
      <contour>
        <pt x="225" y="531" on="1"/>
        <pt x="225" y="462" on="0"/>
        <pt x="149" y="371" on="0"/>
        <pt x="79" y="356" on="1"/>
        <pt x="149" y="342" on="0"/>
        <pt x="225" y="251" on="0"/>
        <pt x="225" y="182" on="1"/>
        <pt x="225" y="156" on="0"/>
        <pt x="206" y="-36" on="0"/>
        <pt x="206" y="-63" on="1"/>
        <pt x="206" y="-124" on="0"/>
        <pt x="244" y="-175" on="0"/>
        <pt x="290" y="-175" on="1"/>
        <pt x="290" y="-194" on="1"/>
        <pt x="201" y="-194" on="0"/>
        <pt x="109" y="-125" on="0"/>
        <pt x="109" y="-46" on="1"/>
        <pt x="109" y="-13" on="0"/>
        <pt x="130" y="166" on="0"/>
        <pt x="130" y="196" on="1"/>
        <pt x="130" y="348" on="0"/>
        <pt x="12" y="348" on="1"/>
        <pt x="12" y="365" on="1"/>
        <pt x="130" y="365" on="0"/>
        <pt x="130" y="517" on="1"/>
        <pt x="130" y="547" on="0"/>
        <pt x="109" y="726" on="0"/>
        <pt x="109" y="760" on="1"/>
        <pt x="109" y="839" on="0"/>
        <pt x="201" y="907" on="0"/>
        <pt x="290" y="907" on="1"/>
        <pt x="290" y="889" on="1"/>
        <pt x="244" y="889" on="0"/>
        <pt x="206" y="838" on="0"/>
        <pt x="206" y="777" on="1"/>
        <pt x="206" y="749" on="0"/>
        <pt x="225" y="557" on="0"/>
      </contour>
    </TTGlyph>
    <TTGlyph name="braceright" xMin="22" yMin="-194" xMax="301" yMax="907">
      <component glyphName="braceleft" x="313" y="0" scalex="-1.0" scaley="1.0" flags="0x1004"/>
    </TTGlyph>
    <TTGlyph name="bracketleft" xMin="86" yMin="-185" xMax="300" yMax="897">
      <contour>
        <pt x="300" y="-185" on="1"/>
        <pt x="86" y="-185" on="1"/>
        <pt x="86" y="897" on="1"/>
        <pt x="300" y="897" on="1"/>
        <pt x="300" y="867" on="1"/>
        <pt x="187" y="867" on="1"/>
        <pt x="187" y="-155" on="1"/>
        <pt x="300" y="-155" on="1"/>
      </contour>
    </TTGlyph>
    <TTGlyph name="bracketright" xMin="10" yMin="-185" xMax="225" yMax="897">
      <component glyphName="bracketleft" x="311" y="0" scalex="-1.0" scaley="1.0" flags="0x1004"/>
    </TTGlyph>
    <TTGlyph name="brokenbar" xMin="90" yMin="-240" xMax="130" yMax="760">
      <contour>
        <pt x="130" y="760" on="1"/>
        <pt x="130" y="360" on="1"/>
        <pt x="90" y="360" on="1"/>
        <pt x="90" y="760" on="1"/>
      </contour>
      <contour>
        <pt x="130" y="160" on="1"/>
        <pt x="130" y="-240" on="1"/>
        <pt x="90" y="-240" on="1"/>
        <pt x="90" y="160" on="1"/>
      </contour>
    </TTGlyph>
    <TTGlyph name="bullet" xMin="143" yMin="266" xMax="325" yMax="448">
      <contour>
        <pt x="143" y="393" on="0"/>
        <pt x="198" y="448" on="0"/>
        <pt x="234" y="448" on="1"/>
        <pt x="270" y="448" on="0"/>
        <pt x="325" y="393" on="0"/>
        <pt x="325" y="357" on="1"/>
        <pt x="325" y="321" on="0"/>
        <pt x="270" y="266" on="0"/>
        <pt x="196" y="266" on="0"/>
        <pt x="143" y="319" on="0"/>
      </contour>
    </TTGlyph>
    <TTGlyph name="c" xMin="41" yMin="-10" xMax="506" yMax="527">
      <contour>
        <pt x="381" y="369" on="1"/>
        <pt x="408" y="388" on="0"/>
        <pt x="408" y="458" on="0"/>
        <pt x="349" y="505" on="0"/>
        <pt x="300" y="505" on="1"/>
        <pt x="228" y="505" on="0"/>
        <pt x="151" y="402" on="0"/>
        <pt x="151" y="309" on="1"/>
        <pt x="151" y="209" on="1"/>
        <pt x="151" y="120" on="0"/>
        <pt x="226" y="12" on="0"/>
        <pt x="368" y="12" on="0"/>
        <pt x="469" y="89" on="0"/>
        <pt x="481" y="152" on="1"/>
        <pt x="504" y="152" on="1"/>
        <pt x="490" y="78" on="0"/>
        <pt x="379" y="-10" on="0"/>
        <pt x="300" y="-10" on="1"/>
        <pt x="190" y="-10" on="0"/>
        <pt x="41" y="139" on="0"/>
        <pt x="41" y="383" on="0"/>
        <pt x="195" y="527" on="0"/>
        <pt x="300" y="527" on="1"/>
        <pt x="387" y="527" on="0"/>
        <pt x="506" y="440" on="0"/>
        <pt x="506" y="374" on="1"/>
        <pt x="506" y="341" on="0"/>
        <pt x="472" y="306" on="0"/>
        <pt x="417" y="306" on="0"/>
        <pt x="381" y="342" on="0"/>
      </contour>
    </TTGlyph>
    <TTGlyph name="caron" xMin="39" yMin="589" xMax="318" yMax="759">
      <contour>
        <pt x="198" y="589" on="1"/>
        <pt x="159" y="589" on="1"/>
        <pt x="39" y="745" on="1"/>
        <pt x="60" y="759" on="1"/>
        <pt x="178" y="665" on="1"/>
        <pt x="297" y="759" on="1"/>
        <pt x="318" y="745" on="1"/>
      </contour>
    </TTGlyph>
    <TTGlyph name="caron.case" xMin="15" yMin="822" xMax="329" yMax="959">
      <contour>
        <pt x="24" y="959" on="1"/>
        <pt x="171" y="890" on="1"/>
        <pt x="319" y="959" on="1"/>
        <pt x="329" y="943" on="1"/>
        <pt x="201" y="822" on="1"/>
        <pt x="142" y="822" on="1"/>
        <pt x="15" y="943" on="1"/>
      </contour>
    </TTGlyph>
    <TTGlyph name="ccedilla" xMin="41" yMin="-232" xMax="506" yMax="527">
      <contour>
        <pt x="381" y="369" on="1"/>
        <pt x="408" y="389" on="0"/>
        <pt x="408" y="458" on="0"/>
        <pt x="350" y="505" on="0"/>
        <pt x="300" y="505" on="1"/>
        <pt x="228" y="505" on="0"/>
        <pt x="151" y="402" on="0"/>
        <pt x="151" y="309" on="1"/>
        <pt x="151" y="209" on="1"/>
        <pt x="151" y="71" on="0"/>
        <pt x="233" y="27" on="1"/>
        <pt x="261" y="12" on="0"/>
        <pt x="334" y="12" on="0"/>
        <pt x="394" y="32" on="0"/>
        <pt x="418" y="50" on="1"/>
        <pt x="469" y="90" on="0"/>
        <pt x="481" y="152" on="1"/>
        <pt x="504" y="152" on="1"/>
        <pt x="490" y="80" on="0"/>
        <pt x="388" y="-5" on="0"/>
        <pt x="314" y="-9" on="1"/>
        <pt x="306" y="-44" on="1"/>
        <pt x="359" y="-46" on="0"/>
        <pt x="428" y="-89" on="0"/>
        <pt x="428" y="-136" on="1"/>
        <pt x="428" y="-184" on="0"/>
        <pt x="388" y="-210" on="1"/>
        <pt x="354" y="-232" on="0"/>
        <pt x="261" y="-232" on="0"/>
        <pt x="230" y="-223" on="1"/>
        <pt x="236" y="-201" on="1"/>
        <pt x="248" y="-204" on="0"/>
        <pt x="279" y="-204" on="0"/>
        <pt x="307" y="-197" on="0"/>
        <pt x="318" y="-189" on="1"/>
        <pt x="343" y="-171" on="0"/>
        <pt x="343" y="-141" on="1"/>
        <pt x="343" y="-77" on="0"/>
        <pt x="271" y="-69" on="1"/>
        <pt x="287" y="-10" on="1"/>
        <pt x="181" y="-4" on="0"/>
        <pt x="112" y="68" on="1"/>
        <pt x="41" y="143" on="0"/>
        <pt x="41" y="259" on="1"/>
        <pt x="41" y="382" on="0"/>
        <pt x="121" y="458" on="1"/>
        <pt x="194" y="527" on="0"/>
        <pt x="300" y="527" on="1"/>
        <pt x="386" y="527" on="0"/>
        <pt x="506" y="441" on="0"/>
        <pt x="506" y="374" on="1"/>
        <pt x="506" y="339" on="0"/>
        <pt x="470" y="306" on="0"/>
        <pt x="417" y="306" on="0"/>
        <pt x="381" y="342" on="0"/>
      </contour>
    </TTGlyph>
    <TTGlyph name="cedilla" xMin="70" yMin="-232" xMax="268" yMax="9">
      <contour>
        <pt x="159" y="9" on="1"/>
        <pt x="146" y="-44" on="1"/>
        <pt x="268" y="-49" on="0"/>
        <pt x="268" y="-136" on="1"/>
        <pt x="268" y="-184" on="0"/>
        <pt x="195" y="-232" on="0"/>
        <pt x="102" y="-232" on="0"/>
        <pt x="70" y="-223" on="1"/>
        <pt x="76" y="-201" on="1"/>
        <pt x="88" y="-204" on="0"/>
        <pt x="137" y="-204" on="0"/>
        <pt x="183" y="-172" on="0"/>
        <pt x="183" y="-141" on="1"/>
        <pt x="183" y="-77" on="0"/>
        <pt x="111" y="-69" on="1"/>
        <pt x="132" y="9" on="1"/>
      </contour>
    </TTGlyph>
    <TTGlyph name="cent" xMin="45" yMin="-143" xMax="509" yMax="662">
      <contour>
        <pt x="311" y="662" on="1"/>
        <pt x="311" y="527" on="1"/>
        <pt x="396" y="525" on="0"/>
        <pt x="509" y="439" on="0"/>
        <pt x="509" y="374" on="1"/>
        <pt x="509" y="341" on="0"/>
        <pt x="475" y="306" on="0"/>
        <pt x="420" y="306" on="0"/>
        <pt x="384" y="342" on="0"/>
        <pt x="384" y="369" on="1"/>
        <pt x="412" y="388" on="0"/>
        <pt x="412" y="456" on="0"/>
        <pt x="357" y="503" on="0"/>
        <pt x="311" y="505" on="1"/>
        <pt x="311" y="12" on="1"/>
        <pt x="377" y="14" on="0"/>
        <pt x="472" y="91" on="0"/>
        <pt x="485" y="152" on="1"/>
        <pt x="508" y="152" on="1"/>
        <pt x="493" y="79" on="0"/>
        <pt x="387" y="-8" on="0"/>
        <pt x="311" y="-10" on="1"/>
        <pt x="311" y="-143" on="1"/>
        <pt x="275" y="-143" on="1"/>
        <pt x="275" y="-8" on="1"/>
        <pt x="175" y="1" on="0"/>
        <pt x="45" y="147" on="0"/>
        <pt x="45" y="374" on="0"/>
        <pt x="179" y="515" on="0"/>
        <pt x="275" y="525" on="1"/>
        <pt x="275" y="662" on="1"/>
      </contour>
      <contour>
        <pt x="155" y="209" on="1"/>
        <pt x="155" y="129" on="0"/>
        <pt x="215" y="24" on="0"/>
        <pt x="275" y="14" on="1"/>
        <pt x="275" y="503" on="1"/>
        <pt x="217" y="493" on="0"/>
        <pt x="155" y="392" on="0"/>
        <pt x="155" y="309" on="1"/>
      </contour>
    </TTGlyph>
    <TTGlyph name="circumflex" xMin="39" yMin="589" xMax="318" yMax="759">
      <contour>
        <pt x="159" y="759" on="1"/>
        <pt x="198" y="759" on="1"/>
        <pt x="318" y="604" on="1"/>
        <pt x="297" y="589" on="1"/>
        <pt x="178" y="683" on="1"/>
        <pt x="60" y="589" on="1"/>
        <pt x="39" y="604" on="1"/>
      </contour>
    </TTGlyph>
    <TTGlyph name="circumflex.case" xMin="34" yMin="827" xMax="348" yMax="964">
      <contour>
        <pt x="339" y="827" on="1"/>
        <pt x="191" y="896" on="1"/>
        <pt x="43" y="827" on="1"/>
        <pt x="34" y="842" on="1"/>
        <pt x="162" y="964" on="1"/>
        <pt x="221" y="964" on="1"/>
        <pt x="348" y="842" on="1"/>
      </contour>
    </TTGlyph>
    <TTGlyph name="colon" xMin="62" yMin="-10" xMax="181" yMax="459">
      <contour>
        <pt x="79" y="7" on="1"/>
        <pt x="62" y="24" on="0"/>
        <pt x="62" y="75" on="0"/>
        <pt x="99" y="108" on="0"/>
        <pt x="122" y="108" on="1"/>
        <pt x="145" y="108" on="0"/>
        <pt x="181" y="75" on="0"/>
        <pt x="181" y="50" on="1"/>
        <pt x="181" y="25" on="0"/>
        <pt x="147" y="-10" on="0"/>
        <pt x="96" y="-10" on="0"/>
      </contour>
      <contour>
        <pt x="79" y="358" on="1"/>
        <pt x="62" y="375" on="0"/>
        <pt x="62" y="426" on="0"/>
        <pt x="99" y="459" on="0"/>
        <pt x="122" y="459" on="1"/>
        <pt x="145" y="459" on="0"/>
        <pt x="181" y="426" on="0"/>
        <pt x="181" y="401" on="1"/>
        <pt x="181" y="376" on="0"/>
        <pt x="147" y="341" on="0"/>
        <pt x="96" y="341" on="0"/>
      </contour>
    </TTGlyph>
    <TTGlyph name="comma" xMin="48" yMin="-162" xMax="184" yMax="108">
      <contour>
        <pt x="60" y="-162" on="1"/>
        <pt x="49" y="-146" on="1"/>
        <pt x="80" y="-128" on="0"/>
        <pt x="97" y="-104" on="1"/>
        <pt x="128" y="-62" on="0"/>
        <pt x="128" y="-30" on="1"/>
        <pt x="128" y="-10" on="0"/>
        <pt x="83" y="-10" on="0"/>
        <pt x="48" y="25" on="0"/>
        <pt x="48" y="50" on="1"/>
        <pt x="48" y="75" on="0"/>
        <pt x="83" y="108" on="0"/>
        <pt x="143" y="108" on="0"/>
        <pt x="184" y="58" on="0"/>
        <pt x="184" y="16" on="1"/>
        <pt x="184" y="-101" on="0"/>
      </contour>
    </TTGlyph>
    <TTGlyph name="copyright" xMin="49" yMin="-10" xMax="869" yMax="810">
      <contour>
        <pt x="114" y="166" on="0"/>
        <pt x="49" y="315" on="0"/>
        <pt x="49" y="484" on="0"/>
        <pt x="114" y="633" on="0"/>
        <pt x="226" y="745" on="0"/>
        <pt x="375" y="810" on="0"/>
        <pt x="459" y="810" on="1"/>
        <pt x="543" y="810" on="0"/>
        <pt x="692" y="744" on="0"/>
        <pt x="804" y="632" on="0"/>
        <pt x="869" y="483" on="0"/>
        <pt x="869" y="399" on="1"/>
        <pt x="869" y="315" on="0"/>
        <pt x="804" y="166" on="0"/>
        <pt x="692" y="55" on="0"/>
        <pt x="543" y="-10" on="0"/>
        <pt x="459" y="-10" on="1"/>
        <pt x="375" y="-10" on="0"/>
        <pt x="226" y="55" on="0"/>
      </contour>
      <contour>
        <pt x="145" y="611" on="0"/>
        <pt x="87" y="476" on="0"/>
        <pt x="87" y="321" on="0"/>
        <pt x="145" y="186" on="0"/>
        <pt x="246" y="85" on="0"/>
        <pt x="381" y="27" on="0"/>
        <pt x="459" y="27" on="1"/>
        <pt x="537" y="27" on="0"/>
        <pt x="672" y="86" on="0"/>
        <pt x="772" y="187" on="0"/>
        <pt x="830" y="322" on="0"/>
        <pt x="830" y="399" on="1"/>
        <pt x="830" y="476" on="0"/>
        <pt x="772" y="611" on="0"/>
        <pt x="672" y="712" on="0"/>
        <pt x="537" y="771" on="0"/>
        <pt x="382" y="771" on="0"/>
        <pt x="246" y="712" on="0"/>
      </contour>
      <contour>
        <pt x="610" y="662" on="1"/>
        <pt x="629" y="662" on="1"/>
        <pt x="629" y="504" on="1"/>
        <pt x="610" y="504" on="1"/>
        <pt x="571" y="588" on="1"/>
        <pt x="526" y="633" on="0"/>
        <pt x="460" y="633" on="1"/>
        <pt x="319" y="633" on="0"/>
        <pt x="319" y="458" on="1"/>
        <pt x="319" y="341" on="1"/>
        <pt x="319" y="167" on="0"/>
        <pt x="460" y="167" on="1"/>
        <pt x="492" y="167" on="0"/>
        <pt x="558" y="197" on="0"/>
        <pt x="580" y="221" on="1"/>
        <pt x="616" y="309" on="1"/>
        <pt x="635" y="309" on="1"/>
        <pt x="635" y="144" on="1"/>
        <pt x="616" y="144" on="1"/>
        <pt x="570" y="177" on="1"/>
        <pt x="521" y="138" on="0"/>
        <pt x="460" y="138" on="1"/>
        <pt x="354" y="138" on="0"/>
        <pt x="223" y="283" on="0"/>
        <pt x="223" y="517" on="0"/>
        <pt x="354" y="662" on="0"/>
        <pt x="460" y="662" on="1"/>
        <pt x="516" y="662" on="0"/>
        <pt x="567" y="625" on="1"/>
      </contour>
    </TTGlyph>
    <TTGlyph name="currency" xMin="57" yMin="145" xMax="484" yMax="573">
      <contour>
        <pt x="57" y="172" on="1"/>
        <pt x="132" y="248" on="1"/>
        <pt x="93" y="295" on="0"/>
        <pt x="93" y="420" on="0"/>
        <pt x="133" y="470" on="1"/>
        <pt x="58" y="544" on="1"/>
        <pt x="85" y="572" on="1"/>
        <pt x="160" y="497" on="1"/>
        <pt x="208" y="535" on="0"/>
        <pt x="331" y="535" on="0"/>
        <pt x="380" y="496" on="1"/>
        <pt x="457" y="573" on="1"/>
        <pt x="484" y="545" on="1"/>
        <pt x="408" y="469" on="1"/>
        <pt x="448" y="421" on="0"/>
        <pt x="448" y="298" on="0"/>
        <pt x="408" y="248" on="1"/>
        <pt x="484" y="173" on="1"/>
        <pt x="457" y="146" on="1"/>
        <pt x="381" y="221" on="1"/>
        <pt x="333" y="182" on="0"/>
        <pt x="208" y="182" on="0"/>
        <pt x="159" y="220" on="1"/>
        <pt x="84" y="145" on="1"/>
      </contour>
      <contour>
        <pt x="328" y="220" on="0"/>
        <pt x="410" y="301" on="0"/>
        <pt x="410" y="416" on="0"/>
        <pt x="328" y="497" on="0"/>
        <pt x="213" y="497" on="0"/>
        <pt x="132" y="416" on="0"/>
        <pt x="132" y="301" on="0"/>
        <pt x="213" y="220" on="0"/>
      </contour>
    </TTGlyph>
    <TTGlyph name="d" xMin="42" yMin="-10" xMax="620" yMax="800">
      <contour>
        <pt x="450" y="0" on="1"/>
        <pt x="450" y="104" on="1"/>
        <pt x="396" y="-10" on="0"/>
        <pt x="281" y="-10" on="1"/>
        <pt x="173" y="-10" on="0"/>
        <pt x="108" y="64" on="1"/>
        <pt x="42" y="137" on="0"/>
        <pt x="42" y="259" on="1"/>
        <pt x="42" y="381" on="0"/>
        <pt x="108" y="454" on="1"/>
        <pt x="173" y="527" on="0"/>
        <pt x="396" y="527" on="0"/>
        <pt x="450" y="413" on="1"/>
        <pt x="450" y="770" on="1"/>
        <pt x="380" y="780" on="1"/>
        <pt x="380" y="800" on="1"/>
        <pt x="550" y="800" on="1"/>
        <pt x="550" y="30" on="1"/>
        <pt x="620" y="20" on="1"/>
        <pt x="620" y="0" on="1"/>
      </contour>
      <contour>
        <pt x="152" y="309" on="1"/>
        <pt x="152" y="209" on="1"/>
        <pt x="152" y="15" on="0"/>
        <pt x="291" y="15" on="1"/>
        <pt x="357" y="15" on="0"/>
        <pt x="448" y="124" on="0"/>
        <pt x="450" y="201" on="1"/>
        <pt x="450" y="316" on="1"/>
        <pt x="448" y="393" on="0"/>
        <pt x="357" y="502" on="0"/>
        <pt x="291" y="502" on="1"/>
        <pt x="152" y="502" on="0"/>
      </contour>
    </TTGlyph>
    <TTGlyph name="degree" xMin="37" yMin="462" xMax="330" yMax="755">
      <contour>
        <pt x="80" y="505" on="1"/>
        <pt x="37" y="548" on="0"/>
        <pt x="37" y="609" on="1"/>
        <pt x="37" y="671" on="0"/>
        <pt x="80" y="712" on="1"/>
        <pt x="125" y="755" on="0"/>
        <pt x="184" y="755" on="1"/>
        <pt x="244" y="755" on="0"/>
        <pt x="330" y="669" on="0"/>
        <pt x="330" y="609" on="1"/>
        <pt x="330" y="550" on="0"/>
        <pt x="288" y="506" on="1"/>
        <pt x="246" y="462" on="0"/>
        <pt x="123" y="462" on="0"/>
      </contour>
      <contour>
        <pt x="292" y="608" on="1"/>
        <pt x="292" y="630" on="0"/>
        <pt x="274" y="669" on="0"/>
        <pt x="259" y="684" on="1"/>
        <pt x="226" y="717" on="0"/>
        <pt x="184" y="717" on="1"/>
        <pt x="140" y="717" on="0"/>
        <pt x="76" y="653" on="0"/>
        <pt x="76" y="609" on="1"/>
        <pt x="76" y="565" on="0"/>
        <pt x="140" y="501" on="0"/>
        <pt x="184" y="501" on="1"/>
        <pt x="228" y="501" on="0"/>
        <pt x="292" y="565" on="0"/>
      </contour>
    </TTGlyph>
    <TTGlyph name="dieresis" xMin="43" yMin="615" xMax="347" yMax="733">
      <contour>
        <pt x="60" y="632" on="1"/>
        <pt x="43" y="649" on="0"/>
        <pt x="43" y="699" on="0"/>
        <pt x="78" y="733" on="0"/>
        <pt x="128" y="733" on="0"/>
        <pt x="162" y="699" on="0"/>
        <pt x="162" y="649" on="0"/>
        <pt x="128" y="615" on="0"/>
        <pt x="78" y="615" on="0"/>
      </contour>
      <contour>
        <pt x="246" y="632" on="1"/>
        <pt x="229" y="649" on="0"/>
        <pt x="229" y="699" on="0"/>
        <pt x="263" y="733" on="0"/>
        <pt x="313" y="733" on="0"/>
        <pt x="347" y="699" on="0"/>
        <pt x="347" y="649" on="0"/>
        <pt x="313" y="615" on="0"/>
        <pt x="263" y="615" on="0"/>
      </contour>
    </TTGlyph>
    <TTGlyph name="dieresis.case" xMin="24" yMin="833" xMax="328" yMax="951">
      <contour>
        <pt x="41" y="850" on="1"/>
        <pt x="24" y="867" on="0"/>
        <pt x="24" y="917" on="0"/>
        <pt x="59" y="951" on="0"/>
        <pt x="109" y="951" on="0"/>
        <pt x="143" y="917" on="0"/>
        <pt x="143" y="867" on="0"/>
        <pt x="109" y="833" on="0"/>
        <pt x="59" y="833" on="0"/>
      </contour>
      <contour>
        <pt x="227" y="850" on="1"/>
        <pt x="210" y="867" on="0"/>
        <pt x="210" y="917" on="0"/>
        <pt x="245" y="951" on="0"/>
        <pt x="295" y="951" on="0"/>
        <pt x="328" y="917" on="0"/>
        <pt x="328" y="867" on="0"/>
        <pt x="295" y="833" on="0"/>
        <pt x="245" y="833" on="0"/>
      </contour>
    </TTGlyph>
    <TTGlyph name="divide" xMin="71" yMin="143" xMax="520" yMax="571">
      <contour>
        <pt x="242" y="219" on="0"/>
        <pt x="274" y="250" on="0"/>
        <pt x="319" y="250" on="0"/>
        <pt x="350" y="219" on="0"/>
        <pt x="350" y="175" on="0"/>
        <pt x="318" y="143" on="0"/>
        <pt x="274" y="143" on="0"/>
        <pt x="242" y="175" on="0"/>
      </contour>
      <contour>
        <pt x="318" y="463" on="0"/>
        <pt x="274" y="463" on="0"/>
        <pt x="242" y="496" on="0"/>
        <pt x="242" y="540" on="0"/>
        <pt x="274" y="571" on="0"/>
        <pt x="318" y="571" on="0"/>
        <pt x="350" y="540" on="0"/>
        <pt x="350" y="496" on="0"/>
      </contour>
      <contour>
        <pt x="71" y="338" on="1"/>
        <pt x="71" y="376" on="1"/>
        <pt x="520" y="376" on="1"/>
        <pt x="520" y="338" on="1"/>
      </contour>
    </TTGlyph>
    <TTGlyph name="dollar" xMin="65" yMin="-105" xMax="607" yMax="895">
      <contour>
        <pt x="355" y="-20" on="1"/>
        <pt x="341" y="-19" on="1"/>
        <pt x="341" y="-105" on="1"/>
        <pt x="324" y="-105" on="1"/>
        <pt x="324" y="-18" on="1"/>
        <pt x="245" y="-11" on="0"/>
        <pt x="172" y="33" on="1"/>
        <pt x="87" y="-10" on="1"/>
        <pt x="65" y="-10" on="1"/>
        <pt x="65" y="247" on="1"/>
        <pt x="87" y="247" on="1"/>
        <pt x="173" y="61" on="1"/>
        <pt x="242" y="13" on="0"/>
        <pt x="324" y="4" on="1"/>
        <pt x="324" y="359" on="1"/>
        <pt x="243" y="380" on="1"/>
        <pt x="156" y="403" on="0"/>
        <pt x="68" y="510" on="0"/>
        <pt x="68" y="585" on="1"/>
        <pt x="68" y="691" on="0"/>
        <pt x="192" y="820" on="0"/>
        <pt x="302" y="820" on="1"/>
        <pt x="316" y="820" on="0"/>
        <pt x="324" y="819" on="1"/>
        <pt x="324" y="895" on="1"/>
        <pt x="341" y="895" on="1"/>
        <pt x="341" y="818" on="1"/>
        <pt x="346" y="818" on="0"/>
        <pt x="360" y="816" on="1"/>
        <pt x="360" y="895" on="1"/>
        <pt x="376" y="895" on="1"/>
        <pt x="376" y="814" on="1"/>
        <pt x="423" y="806" on="0"/>
        <pt x="465" y="789" on="1"/>
        <pt x="538" y="820" on="1"/>
        <pt x="560" y="820" on="1"/>
        <pt x="560" y="616" on="1"/>
        <pt x="538" y="616" on="1"/>
        <pt x="466" y="762" on="1"/>
        <pt x="424" y="782" on="0"/>
        <pt x="376" y="791" on="1"/>
        <pt x="376" y="467" on="1"/>
        <pt x="435" y="452" on="1"/>
        <pt x="523" y="429" on="0"/>
        <pt x="607" y="326" on="0"/>
        <pt x="607" y="111" on="0"/>
        <pt x="482" y="-14" on="0"/>
        <pt x="376" y="-19" on="1"/>
        <pt x="376" y="-105" on="1"/>
        <pt x="360" y="-105" on="1"/>
        <pt x="360" y="-20" on="1"/>
      </contour>
      <contour>
        <pt x="116" y="636" on="1"/>
        <pt x="116" y="535" on="0"/>
        <pt x="256" y="499" on="1"/>
        <pt x="324" y="481" on="1"/>
        <pt x="324" y="797" on="1"/>
        <pt x="317" y="798" on="0"/>
        <pt x="303" y="798" on="1"/>
        <pt x="216" y="798" on="0"/>
        <pt x="116" y="709" on="0"/>
      </contour>
      <contour>
        <pt x="409" y="337" on="1"/>
        <pt x="376" y="345" on="1"/>
        <pt x="376" y="2" on="1"/>
        <pt x="460" y="6" on="0"/>
        <pt x="566" y="98" on="0"/>
        <pt x="566" y="179" on="1"/>
        <pt x="566" y="241" on="0"/>
        <pt x="491" y="316" on="0"/>
      </contour>
      <contour>
        <pt x="341" y="3" on="1"/>
        <pt x="347" y="2" on="0"/>
        <pt x="360" y="2" on="1"/>
        <pt x="360" y="349" on="1"/>
        <pt x="341" y="354" on="1"/>
      </contour>
      <contour>
        <pt x="360" y="794" on="1"/>
        <pt x="341" y="796" on="1"/>
        <pt x="341" y="476" on="1"/>
        <pt x="360" y="471" on="1"/>
      </contour>
    </TTGlyph>
    <TTGlyph name="dotlessi" xMin="27" yMin="0" xMax="267" yMax="517">
      <contour>
        <pt x="27" y="497" on="1"/>
        <pt x="27" y="517" on="1"/>
        <pt x="197" y="517" on="1"/>
        <pt x="197" y="30" on="1"/>
        <pt x="267" y="20" on="1"/>
        <pt x="267" y="0" on="1"/>
        <pt x="27" y="0" on="1"/>
        <pt x="27" y="20" on="1"/>
        <pt x="97" y="30" on="1"/>
        <pt x="97" y="487" on="1"/>
      </contour>
    </TTGlyph>
    <TTGlyph name="e" xMin="41" yMin="-10" xMax="519" yMax="527">
      <contour>
        <pt x="303" y="12" on="1"/>
        <pt x="339" y="12" on="0"/>
        <pt x="402" y="33" on="0"/>
        <pt x="427" y="52" on="1"/>
        <pt x="480" y="91" on="0"/>
        <pt x="492" y="152" on="1"/>
        <pt x="515" y="152" on="1"/>
        <pt x="501" y="77" on="0"/>
        <pt x="387" y="-10" on="0"/>
        <pt x="305" y="-10" on="1"/>
        <pt x="192" y="-10" on="0"/>
        <pt x="116" y="64" on="1"/>
        <pt x="41" y="138" on="0"/>
        <pt x="41" y="259" on="1"/>
        <pt x="41" y="377" on="0"/>
        <pt x="116" y="453" on="1"/>
        <pt x="188" y="527" on="0"/>
        <pt x="299" y="527" on="1"/>
        <pt x="396" y="527" on="0"/>
        <pt x="456" y="466" on="1"/>
        <pt x="517" y="403" on="0"/>
        <pt x="519" y="308" on="1"/>
        <pt x="151" y="308" on="1"/>
        <pt x="151" y="209" on="1"/>
        <pt x="151" y="120" on="0"/>
        <pt x="190" y="67" on="1"/>
        <pt x="232" y="12" on="0"/>
      </contour>
      <contour>
        <pt x="298" y="505" on="1"/>
        <pt x="231" y="505" on="0"/>
        <pt x="157" y="411" on="0"/>
        <pt x="152" y="333" on="1"/>
        <pt x="409" y="333" on="1"/>
        <pt x="409" y="505" on="0"/>
      </contour>
    </TTGlyph>
    <TTGlyph name="eacute" xMin="41" yMin="-10" xMax="519" yMax="769">
      <component glyphName="e" x="0" y="0" flags="0x1204"/>
      <component glyphName="acute" x="234" y="0" flags="0x1004"/>
    </TTGlyph>
    <TTGlyph name="ecircumflex" xMin="41" yMin="-10" xMax="519" yMax="759">
      <component glyphName="e" x="0" y="0" flags="0x1204"/>
      <component glyphName="circumflex" x="123" y="0" flags="0x1004"/>
    </TTGlyph>
    <TTGlyph name="edieresis" xMin="41" yMin="-10" xMax="519" yMax="729">
      <component glyphName="e" x="0" y="0" flags="0x1204"/>
      <component glyphName="dieresis" x="95" y="-4" flags="0x1004"/>
    </TTGlyph>
    <TTGlyph name="egrave" xMin="41" yMin="-10" xMax="519" yMax="769">
      <component glyphName="e" x="0" y="0" flags="0x1204"/>
      <component glyphName="grave" x="174" y="0" flags="0x1004"/>
    </TTGlyph>
    <TTGlyph name="eight" xMin="51" yMin="-20" xMax="595" yMax="820">
      <contour>
        <pt x="51" y="188" on="1"/>
        <pt x="51" y="312" on="0"/>
        <pt x="167" y="391" on="1"/>
        <pt x="195" y="410" on="0"/>
        <pt x="236" y="431" on="1"/>
        <pt x="190" y="461" on="1"/>
        <pt x="82" y="537" on="0"/>
        <pt x="82" y="715" on="0"/>
        <pt x="225" y="820" on="0"/>
        <pt x="415" y="820" on="0"/>
        <pt x="550" y="731" on="0"/>
        <pt x="550" y="652" on="1"/>
        <pt x="550" y="587" on="0"/>
        <pt x="474" y="495" on="0"/>
        <pt x="405" y="458" on="1"/>
        <pt x="481" y="411" on="0"/>
        <pt x="544" y="357" on="0"/>
        <pt x="595" y="267" on="0"/>
        <pt x="595" y="214" on="1"/>
        <pt x="595" y="105" on="0"/>
        <pt x="433" y="-20" on="0"/>
        <pt x="195" y="-20" on="0"/>
        <pt x="51" y="88" on="0"/>
      </contour>
      <contour>
        <pt x="374" y="342" on="1"/>
        <pt x="265" y="412" on="1"/>
        <pt x="208" y="368" on="0"/>
        <pt x="153" y="248" on="0"/>
        <pt x="153" y="106" on="0"/>
        <pt x="234" y="3" on="0"/>
        <pt x="400" y="3" on="0"/>
        <pt x="500" y="92" on="0"/>
        <pt x="500" y="206" on="0"/>
        <pt x="443" y="295" on="0"/>
      </contour>
      <contour>
        <pt x="257" y="797" on="0"/>
        <pt x="171" y="732" on="0"/>
        <pt x="171" y="641" on="0"/>
        <pt x="221" y="575" on="0"/>
        <pt x="271" y="542" on="1"/>
        <pt x="377" y="475" on="1"/>
        <pt x="459" y="533" on="0"/>
        <pt x="459" y="649" on="1"/>
        <pt x="459" y="714" on="0"/>
        <pt x="379" y="797" on="0"/>
      </contour>
    </TTGlyph>
    <TTGlyph name="emdash" xMin="62" yMin="340" xMax="1072" yMax="374">
      <contour>
        <pt x="1072" y="374" on="1"/>
        <pt x="1072" y="340" on="1"/>
        <pt x="62" y="340" on="1"/>
        <pt x="62" y="374" on="1"/>
      </contour>
    </TTGlyph>
    <TTGlyph name="endash" xMin="62" yMin="339" xMax="572" yMax="375">
      <contour>
        <pt x="572" y="375" on="1"/>
        <pt x="572" y="339" on="1"/>
        <pt x="62" y="339" on="1"/>
        <pt x="62" y="375" on="1"/>
      </contour>
    </TTGlyph>
    <TTGlyph name="equal" xMin="72" yMin="255" xMax="531" yMax="459">
      <contour>
        <pt x="72" y="255" on="1"/>
        <pt x="72" y="293" on="1"/>
        <pt x="531" y="293" on="1"/>
        <pt x="531" y="255" on="1"/>
      </contour>
      <contour>
        <pt x="72" y="421" on="1"/>
        <pt x="72" y="459" on="1"/>
        <pt x="531" y="459" on="1"/>
        <pt x="531" y="421" on="1"/>
      </contour>
    </TTGlyph>
    <TTGlyph name="eth" xMin="41" yMin="-10" xMax="560" yMax="810">
      <contour>
        <pt x="352" y="718" on="1"/>
        <pt x="294" y="762" on="0"/>
        <pt x="192" y="788" on="1"/>
        <pt x="197" y="810" on="1"/>
        <pt x="306" y="784" on="0"/>
        <pt x="383" y="735" on="1"/>
        <pt x="498" y="798" on="1"/>
        <pt x="511" y="776" on="1"/>
        <pt x="406" y="718" on="1"/>
        <pt x="560" y="603" on="0"/>
        <pt x="560" y="372" on="1"/>
        <pt x="560" y="259" on="1"/>
        <pt x="560" y="141" on="0"/>
        <pt x="485" y="64" on="1"/>
        <pt x="412" y="-10" on="0"/>
        <pt x="300" y="-10" on="1"/>
        <pt x="189" y="-10" on="0"/>
        <pt x="116" y="64" on="1"/>
        <pt x="41" y="141" on="0"/>
        <pt x="41" y="259" on="1"/>
        <pt x="41" y="377" on="0"/>
        <pt x="116" y="454" on="1"/>
        <pt x="188" y="527" on="0"/>
        <pt x="300" y="527" on="1"/>
        <pt x="382" y="527" on="0"/>
        <pt x="447" y="493" on="1"/>
        <pt x="440" y="633" on="0"/>
        <pt x="373" y="700" on="1"/>
        <pt x="245" y="629" on="1"/>
        <pt x="233" y="653" on="1"/>
      </contour>
      <contour>
        <pt x="450" y="393" on="1"/>
        <pt x="450" y="421" on="0"/>
        <pt x="448" y="467" on="1"/>
        <pt x="379" y="505" on="0"/>
        <pt x="226" y="505" on="0"/>
        <pt x="151" y="398" on="0"/>
        <pt x="151" y="309" on="1"/>
        <pt x="151" y="209" on="1"/>
        <pt x="151" y="120" on="0"/>
        <pt x="226" y="12" on="0"/>
        <pt x="374" y="12" on="0"/>
        <pt x="450" y="120" on="0"/>
        <pt x="450" y="209" on="1"/>
      </contour>
    </TTGlyph>
    <TTGlyph name="exclam" xMin="69" yMin="-10" xMax="187" yMax="810">
      <contour>
        <pt x="153" y="-10" on="0"/>
        <pt x="103" y="-10" on="0"/>
        <pt x="69" y="25" on="0"/>
        <pt x="69" y="75" on="0"/>
        <pt x="103" y="108" on="0"/>
        <pt x="153" y="108" on="0"/>
        <pt x="187" y="75" on="0"/>
        <pt x="187" y="25" on="0"/>
      </contour>
      <contour>
        <pt x="140" y="165" on="1"/>
        <pt x="116" y="165" on="1"/>
        <pt x="114" y="309" on="0"/>
        <pt x="73" y="708" on="0"/>
        <pt x="73" y="775" on="0"/>
        <pt x="103" y="810" on="0"/>
        <pt x="153" y="810" on="0"/>
        <pt x="183" y="775" on="0"/>
        <pt x="183" y="707" on="0"/>
        <pt x="143" y="308" on="0"/>
      </contour>
    </TTGlyph>
    <TTGlyph name="exclamdown" xMin="56" yMin="-292" xMax="174" yMax="528">
      <component glyphName="exclam" x="-13" y="518" scalex="1.0" scaley="-1.0" flags="0x1004"/>
    </TTGlyph>
    <TTGlyph name="f" xMin="26" yMin="0" xMax="404" yMax="810">
      <contour>
        <pt x="26" y="0" on="1"/>
        <pt x="26" y="20" on="1"/>
        <pt x="96" y="30" on="1"/>
        <pt x="96" y="488" on="1"/>
        <pt x="26" y="498" on="1"/>
        <pt x="26" y="518" on="1"/>
        <pt x="96" y="518" on="1"/>
        <pt x="96" y="602" on="1"/>
        <pt x="96" y="810" on="0"/>
        <pt x="268" y="810" on="1"/>
        <pt x="327" y="810" on="0"/>
        <pt x="404" y="753" on="0"/>
        <pt x="404" y="704" on="1"/>
        <pt x="404" y="674" on="0"/>
        <pt x="371" y="636" on="0"/>
        <pt x="318" y="636" on="0"/>
        <pt x="280" y="674" on="0"/>
        <pt x="280" y="699" on="1"/>
        <pt x="314" y="709" on="0"/>
        <pt x="314" y="746" on="1"/>
        <pt x="314" y="763" on="0"/>
        <pt x="287" y="788" on="0"/>
        <pt x="268" y="788" on="1"/>
        <pt x="229" y="788" on="0"/>
        <pt x="196" y="715" on="0"/>
        <pt x="196" y="633" on="1"/>
        <pt x="196" y="518" on="1"/>
        <pt x="326" y="518" on="1"/>
        <pt x="326" y="498" on="1"/>
        <pt x="196" y="488" on="1"/>
        <pt x="196" y="30" on="1"/>
        <pt x="315" y="20" on="1"/>
        <pt x="315" y="0" on="1"/>
      </contour>
    </TTGlyph>
    <TTGlyph name="five" xMin="25" yMin="-20" xMax="565" yMax="854">
      <contour>
        <pt x="126" y="453" on="1"/>
        <pt x="108" y="466" on="1"/>
        <pt x="152" y="800" on="1"/>
        <pt x="417" y="800" on="1"/>
        <pt x="477" y="800" on="0"/>
        <pt x="532" y="819" on="0"/>
        <pt x="542" y="854" on="1"/>
        <pt x="565" y="853" on="1"/>
        <pt x="557" y="756" on="0"/>
        <pt x="476" y="683" on="0"/>
        <pt x="402" y="683" on="1"/>
        <pt x="163" y="683" on="1"/>
        <pt x="137" y="484" on="1"/>
        <pt x="187" y="498" on="0"/>
        <pt x="242" y="498" on="1"/>
        <pt x="377" y="498" on="0"/>
        <pt x="550" y="345" on="0"/>
        <pt x="550" y="232" on="1"/>
        <pt x="550" y="138" on="0"/>
        <pt x="480" y="62" on="1"/>
        <pt x="446" y="25" on="0"/>
        <pt x="326" y="-20" on="0"/>
        <pt x="156" y="-20" on="0"/>
        <pt x="25" y="84" on="0"/>
        <pt x="25" y="161" on="1"/>
        <pt x="25" y="202" on="0"/>
        <pt x="71" y="249" on="0"/>
        <pt x="133" y="249" on="0"/>
        <pt x="177" y="211" on="0"/>
        <pt x="177" y="175" on="1"/>
        <pt x="124" y="149" on="0"/>
        <pt x="124" y="95" on="1"/>
        <pt x="124" y="54" on="0"/>
        <pt x="193" y="3" on="0"/>
        <pt x="250" y="3" on="1"/>
        <pt x="325" y="3" on="0"/>
        <pt x="412" y="131" on="0"/>
        <pt x="412" y="351" on="0"/>
        <pt x="309" y="470" on="0"/>
        <pt x="224" y="470" on="1"/>
        <pt x="179" y="470" on="0"/>
      </contour>
    </TTGlyph>
    <TTGlyph name="foundryicon" xMin="51" yMin="138" xMax="1007" yMax="316">
      <contour>
        <pt x="1007" y="282" on="1"/>
        <pt x="1007" y="251" on="1"/>
        <pt x="991" y="251" on="1"/>
        <pt x="992" y="249" on="0"/>
        <pt x="992" y="231" on="0"/>
        <pt x="969" y="211" on="0"/>
        <pt x="938" y="211" on="0"/>
        <pt x="935" y="212" on="1"/>
        <pt x="935" y="197" on="1"/>
        <pt x="953" y="197" on="1"/>
        <pt x="992" y="197" on="0"/>
        <pt x="992" y="161" on="1"/>
        <pt x="992" y="153" on="0"/>
        <pt x="986" y="138" on="1"/>
        <pt x="959" y="138" on="1"/>
        <pt x="959" y="167" on="1"/>
        <pt x="913" y="167" on="1"/>
        <pt x="903" y="174" on="0"/>
        <pt x="903" y="207" on="0"/>
        <pt x="917" y="219" on="1"/>
        <pt x="903" y="227" on="0"/>
        <pt x="903" y="263" on="0"/>
        <pt x="926" y="284" on="0"/>
        <pt x="964" y="284" on="0"/>
        <pt x="977" y="274" on="1"/>
        <pt x="985" y="284" on="0"/>
        <pt x="999" y="284" on="0"/>
      </contour>
      <contour>
        <pt x="268" y="251" on="1"/>
        <pt x="245" y="175" on="1"/>
        <pt x="235" y="138" on="0"/>
        <pt x="202" y="138" on="1"/>
        <pt x="183" y="138" on="0"/>
        <pt x="176" y="145" on="1"/>
        <pt x="176" y="171" on="1"/>
        <pt x="193" y="171" on="1"/>
        <pt x="209" y="171" on="0"/>
        <pt x="214" y="182" on="1"/>
        <pt x="200" y="182" on="1"/>
        <pt x="176" y="251" on="1"/>
        <pt x="166" y="251" on="1"/>
        <pt x="166" y="282" on="1"/>
        <pt x="204" y="282" on="1"/>
        <pt x="218" y="233" on="1"/>
        <pt x="223" y="209" on="1"/>
        <pt x="234" y="251" on="1"/>
        <pt x="225" y="251" on="1"/>
        <pt x="225" y="282" on="1"/>
        <pt x="268" y="282" on="1"/>
      </contour>
      <contour>
        <pt x="158" y="212" on="1"/>
        <pt x="158" y="187" on="1"/>
        <pt x="140" y="179" on="0"/>
        <pt x="86" y="179" on="0"/>
        <pt x="51" y="214" on="0"/>
        <pt x="51" y="278" on="0"/>
        <pt x="86" y="316" on="0"/>
        <pt x="135" y="316" on="0"/>
        <pt x="158" y="309" on="1"/>
        <pt x="158" y="269" on="1"/>
        <pt x="127" y="269" on="1"/>
        <pt x="127" y="284" on="1"/>
        <pt x="124" y="285" on="0"/>
        <pt x="118" y="285" on="1"/>
        <pt x="89" y="285" on="0"/>
        <pt x="89" y="212" on="0"/>
        <pt x="126" y="212" on="1"/>
      </contour>
      <contour>
        <pt x="748" y="179" on="1"/>
        <pt x="699" y="179" on="0"/>
        <pt x="699" y="231" on="1"/>
        <pt x="699" y="256" on="0"/>
        <pt x="726" y="284" on="0"/>
        <pt x="772" y="284" on="0"/>
        <pt x="799" y="257" on="0"/>
        <pt x="799" y="207" on="0"/>
        <pt x="772" y="179" on="0"/>
      </contour>
      <contour>
        <pt x="484" y="277" on="1"/>
        <pt x="505" y="284" on="0"/>
        <pt x="520" y="284" on="1"/>
        <pt x="566" y="284" on="0"/>
        <pt x="566" y="246" on="1"/>
        <pt x="566" y="212" on="1"/>
        <pt x="577" y="212" on="1"/>
        <pt x="577" y="185" on="1"/>
        <pt x="570" y="180" on="0"/>
        <pt x="541" y="180" on="0"/>
        <pt x="535" y="187" on="1"/>
        <pt x="526" y="179" on="0"/>
        <pt x="495" y="179" on="0"/>
        <pt x="476" y="195" on="0"/>
        <pt x="476" y="210" on="1"/>
        <pt x="476" y="240" on="0"/>
        <pt x="515" y="240" on="1"/>
        <pt x="531" y="240" on="1"/>
        <pt x="531" y="241" on="1"/>
        <pt x="531" y="251" on="0"/>
        <pt x="509" y="251" on="1"/>
        <pt x="484" y="251" on="1"/>
      </contour>
      <contour>
        <pt x="432" y="212" on="1"/>
        <pt x="461" y="212" on="1"/>
        <pt x="461" y="186" on="1"/>
        <pt x="446" y="179" on="0"/>
        <pt x="424" y="179" on="1"/>
        <pt x="371" y="179" on="0"/>
        <pt x="371" y="230" on="1"/>
        <pt x="371" y="284" on="0"/>
        <pt x="420" y="284" on="1"/>
        <pt x="440" y="284" on="0"/>
        <pt x="464" y="260" on="0"/>
        <pt x="464" y="238" on="0"/>
        <pt x="462" y="224" on="1"/>
        <pt x="407" y="224" on="1"/>
        <pt x="411" y="212" on="0"/>
      </contour>
      <contour>
        <pt x="855" y="266" on="1"/>
        <pt x="864" y="284" on="0"/>
        <pt x="880" y="284" on="1"/>
        <pt x="886" y="284" on="0"/>
        <pt x="892" y="282" on="1"/>
        <pt x="892" y="251" on="1"/>
        <pt x="858" y="251" on="1"/>
        <pt x="858" y="212" on="1"/>
        <pt x="875" y="212" on="1"/>
        <pt x="875" y="182" on="1"/>
        <pt x="813" y="182" on="1"/>
        <pt x="813" y="212" on="1"/>
        <pt x="822" y="212" on="1"/>
        <pt x="822" y="251" on="1"/>
        <pt x="811" y="251" on="1"/>
        <pt x="811" y="282" on="1"/>
        <pt x="845" y="282" on="1"/>
      </contour>
      <contour>
        <pt x="326" y="266" on="1"/>
        <pt x="335" y="284" on="0"/>
        <pt x="351" y="284" on="1"/>
        <pt x="357" y="284" on="0"/>
        <pt x="363" y="282" on="1"/>
        <pt x="363" y="251" on="1"/>
        <pt x="329" y="251" on="1"/>
        <pt x="329" y="212" on="1"/>
        <pt x="346" y="212" on="1"/>
        <pt x="346" y="182" on="1"/>
        <pt x="284" y="182" on="1"/>
        <pt x="284" y="212" on="1"/>
        <pt x="294" y="212" on="1"/>
        <pt x="294" y="251" on="1"/>
        <pt x="282" y="251" on="1"/>
        <pt x="282" y="282" on="1"/>
        <pt x="316" y="282" on="1"/>
      </contour>
      <contour>
        <pt x="589" y="208" on="1"/>
        <pt x="589" y="285" on="1"/>
        <pt x="577" y="285" on="1"/>
        <pt x="577" y="316" on="1"/>
        <pt x="624" y="316" on="1"/>
        <pt x="624" y="212" on="1"/>
        <pt x="638" y="212" on="1"/>
        <pt x="638" y="184" on="1"/>
        <pt x="629" y="180" on="0"/>
        <pt x="616" y="180" on="1"/>
        <pt x="589" y="180" on="0"/>
      </contour>
      <contour>
        <pt x="651" y="180" on="0"/>
        <pt x="651" y="219" on="0"/>
        <pt x="693" y="219" on="0"/>
        <pt x="693" y="180" on="0"/>
      </contour>
      <contour>
        <pt x="735" y="206" on="0"/>
        <pt x="763" y="206" on="0"/>
        <pt x="763" y="256" on="0"/>
        <pt x="735" y="256" on="0"/>
      </contour>
      <contour>
        <pt x="948" y="232" on="1"/>
        <pt x="958" y="232" on="0"/>
        <pt x="958" y="262" on="0"/>
        <pt x="948" y="262" on="1"/>
        <pt x="936" y="262" on="0"/>
        <pt x="936" y="232" on="0"/>
      </contour>
      <contour>
        <pt x="520" y="204" on="1"/>
        <pt x="527" y="204" on="0"/>
        <pt x="531" y="207" on="1"/>
        <pt x="531" y="222" on="1"/>
        <pt x="523" y="222" on="1"/>
        <pt x="510" y="222" on="0"/>
        <pt x="510" y="204" on="0"/>
      </contour>
      <contour>
        <pt x="419" y="258" on="1"/>
        <pt x="409" y="258" on="0"/>
        <pt x="406" y="242" on="1"/>
        <pt x="431" y="242" on="1"/>
        <pt x="431" y="258" on="0"/>
      </contour>
    </TTGlyph>
    <TTGlyph name="four" xMin="0" yMin="0" xMax="539" yMax="800">
      <contour>
        <pt x="0" y="192" on="1"/>
        <pt x="0" y="213" on="1"/>
        <pt x="424" y="800" on="1"/>
        <pt x="447" y="800" on="1"/>
        <pt x="447" y="239" on="1"/>
        <pt x="539" y="239" on="1"/>
        <pt x="539" y="192" on="1"/>
        <pt x="447" y="192" on="1"/>
        <pt x="447" y="36" on="1"/>
        <pt x="539" y="21" on="1"/>
        <pt x="539" y="0" on="1"/>
        <pt x="245" y="0" on="1"/>
        <pt x="245" y="21" on="1"/>
        <pt x="337" y="36" on="1"/>
        <pt x="337" y="192" on="1"/>
      </contour>
      <contour>
        <pt x="49" y="239" on="1"/>
        <pt x="337" y="239" on="1"/>
        <pt x="337" y="638" on="1"/>
      </contour>
    </TTGlyph>
    <TTGlyph name="foursuperior" xMin="13" yMin="375" xMax="310" yMax="800">
      <contour>
        <pt x="13" y="478" on="1"/>
        <pt x="13" y="489" on="1"/>
        <pt x="237" y="800" on="1"/>
        <pt x="262" y="800" on="1"/>
        <pt x="262" y="512" on="1"/>
        <pt x="310" y="512" on="1"/>
        <pt x="310" y="478" on="1"/>
        <pt x="262" y="478" on="1"/>
        <pt x="262" y="404" on="1"/>
        <pt x="310" y="396" on="1"/>
        <pt x="310" y="375" on="1"/>
        <pt x="142" y="375" on="1"/>
        <pt x="142" y="396" on="1"/>
        <pt x="191" y="404" on="1"/>
        <pt x="191" y="478" on="1"/>
      </contour>
      <contour>
        <pt x="60" y="512" on="1"/>
        <pt x="191" y="512" on="1"/>
        <pt x="191" y="693" on="1"/>
      </contour>
    </TTGlyph>
    <TTGlyph name="fraction" xMin="-22" yMin="0" xMax="429" yMax="800">
      <contour>
        <pt x="429" y="800" on="1"/>
        <pt x="30" y="0" on="1"/>
        <pt x="-22" y="0" on="1"/>
        <pt x="378" y="800" on="1"/>
      </contour>
    </TTGlyph>
    <TTGlyph name="g" xMin="15" yMin="-292" xMax="567" yMax="635">
      <contour>
        <pt x="381" y="-27" on="1"/>
        <pt x="186" y="-27" on="1"/>
        <pt x="45" y="-27" on="0"/>
        <pt x="45" y="72" on="1"/>
        <pt x="45" y="117" on="0"/>
        <pt x="94" y="175" on="0"/>
        <pt x="136" y="183" on="1"/>
        <pt x="58" y="234" on="0"/>
        <pt x="58" y="338" on="1"/>
        <pt x="58" y="426" on="0"/>
        <pt x="174" y="527" on="0"/>
        <pt x="344" y="527" on="0"/>
        <pt x="400" y="483" on="1"/>
        <pt x="438" y="486" on="0"/>
        <pt x="476" y="517" on="0"/>
        <pt x="476" y="555" on="0"/>
        <pt x="456" y="574" on="0"/>
        <pt x="442" y="574" on="1"/>
        <pt x="442" y="599" on="0"/>
        <pt x="479" y="635" on="0"/>
        <pt x="531" y="635" on="0"/>
        <pt x="567" y="602" on="0"/>
        <pt x="567" y="574" on="1"/>
        <pt x="567" y="531" on="0"/>
        <pt x="496" y="471" on="0"/>
        <pt x="419" y="465" on="1"/>
        <pt x="466" y="415" on="0"/>
        <pt x="466" y="251" on="0"/>
        <pt x="350" y="150" on="0"/>
        <pt x="261" y="150" on="1"/>
        <pt x="204" y="150" on="0"/>
        <pt x="163" y="169" on="1"/>
        <pt x="133" y="167" on="0"/>
        <pt x="96" y="141" on="0"/>
        <pt x="96" y="94" on="0"/>
        <pt x="147" y="69" on="0"/>
        <pt x="186" y="69" on="1"/>
        <pt x="351" y="69" on="1"/>
        <pt x="431" y="69" on="0"/>
        <pt x="513" y="7" on="0"/>
        <pt x="513" y="-67" on="1"/>
        <pt x="513" y="-163" on="0"/>
        <pt x="382" y="-292" on="0"/>
        <pt x="138" y="-292" on="0"/>
        <pt x="15" y="-215" on="0"/>
        <pt x="15" y="-152" on="1"/>
        <pt x="15" y="-115" on="0"/>
        <pt x="67" y="-60" on="0"/>
        <pt x="112" y="-60" on="1"/>
        <pt x="121" y="-60" on="0"/>
        <pt x="149" y="-64" on="1"/>
        <pt x="118" y="-97" on="0"/>
        <pt x="118" y="-196" on="0"/>
        <pt x="189" y="-273" on="0"/>
        <pt x="363" y="-273" on="0"/>
        <pt x="484" y="-172" on="0"/>
        <pt x="484" y="-109" on="1"/>
        <pt x="484" y="-66" on="0"/>
        <pt x="440" y="-27" on="0"/>
      </contour>
      <contour>
        <pt x="372" y="314" on="1"/>
        <pt x="372" y="363" on="1"/>
        <pt x="372" y="510" on="0"/>
        <pt x="261" y="510" on="1"/>
        <pt x="152" y="510" on="0"/>
        <pt x="152" y="363" on="1"/>
        <pt x="152" y="314" on="1"/>
        <pt x="152" y="245" on="0"/>
        <pt x="206" y="167" on="0"/>
        <pt x="317" y="167" on="0"/>
        <pt x="372" y="245" on="0"/>
      </contour>
    </TTGlyph>
    <TTGlyph name="germandbls" xMin="20" yMin="-10" xMax="621" yMax="820">
      <contour>
        <pt x="537" y="672" on="1"/>
        <pt x="537" y="652" on="0"/>
        <pt x="530" y="619" on="0"/>
        <pt x="495" y="574" on="0"/>
        <pt x="453" y="549" on="0"/>
        <pt x="435" y="540" on="0"/>
        <pt x="376" y="512" on="0"/>
        <pt x="329" y="489" on="0"/>
        <pt x="292" y="452" on="0"/>
        <pt x="292" y="402" on="0"/>
        <pt x="328" y="366" on="0"/>
        <pt x="367" y="351" on="0"/>
        <pt x="398" y="343" on="1"/>
        <pt x="500" y="317" on="1"/>
        <pt x="621" y="286" on="0"/>
        <pt x="621" y="159" on="1"/>
        <pt x="621" y="84" on="0"/>
        <pt x="534" y="-10" on="0"/>
        <pt x="437" y="-10" on="1"/>
        <pt x="250" y="-10" on="0"/>
        <pt x="250" y="84" on="1"/>
        <pt x="250" y="112" on="0"/>
        <pt x="285" y="147" on="0"/>
        <pt x="332" y="147" on="0"/>
        <pt x="363" y="124" on="0"/>
        <pt x="369" y="106" on="1"/>
        <pt x="352" y="86" on="0"/>
        <pt x="352" y="37" on="0"/>
        <pt x="398" y="9" on="0"/>
        <pt x="437" y="9" on="1"/>
        <pt x="500" y="9" on="0"/>
        <pt x="586" y="72" on="0"/>
        <pt x="586" y="117" on="1"/>
        <pt x="586" y="162" on="0"/>
        <pt x="553" y="182" on="1"/>
        <pt x="525" y="198" on="0"/>
        <pt x="477" y="211" on="1"/>
        <pt x="387" y="236" on="1"/>
        <pt x="321" y="255" on="0"/>
        <pt x="255" y="329" on="0"/>
        <pt x="255" y="394" on="1"/>
        <pt x="255" y="449" on="0"/>
        <pt x="288" y="480" on="1"/>
        <pt x="313" y="503" on="0"/>
        <pt x="405" y="548" on="0"/>
        <pt x="437" y="609" on="0"/>
        <pt x="437" y="672" on="1"/>
        <pt x="437" y="802" on="0"/>
        <pt x="326" y="802" on="1"/>
        <pt x="190" y="802" on="0"/>
        <pt x="190" y="605" on="1"/>
        <pt x="190" y="0" on="1"/>
        <pt x="20" y="0" on="1"/>
        <pt x="20" y="20" on="1"/>
        <pt x="90" y="30" on="1"/>
        <pt x="90" y="562" on="1"/>
        <pt x="90" y="820" on="0"/>
        <pt x="326" y="820" on="1"/>
        <pt x="430" y="820" on="0"/>
        <pt x="537" y="740" on="0"/>
      </contour>
    </TTGlyph>
    <TTGlyph name="grave" xMin="-20" yMin="571" xMax="144" yMax="769">
      <contour>
        <pt x="-3" y="687" on="1"/>
        <pt x="-20" y="701" on="0"/>
        <pt x="-20" y="741" on="0"/>
        <pt x="8" y="769" on="0"/>
        <pt x="27" y="769" on="1"/>
        <pt x="57" y="769" on="0"/>
        <pt x="71" y="741" on="1"/>
        <pt x="144" y="583" on="1"/>
        <pt x="128" y="571" on="1"/>
      </contour>
    </TTGlyph>
    <TTGlyph name="grave.case" xMin="24" yMin="810" xMax="235" yMax="953">
      <contour>
        <pt x="59" y="861" on="1"/>
        <pt x="44" y="866" on="0"/>
        <pt x="24" y="891" on="0"/>
        <pt x="24" y="924" on="0"/>
        <pt x="52" y="953" on="0"/>
        <pt x="90" y="953" on="0"/>
        <pt x="104" y="941" on="1"/>
        <pt x="235" y="827" on="1"/>
        <pt x="226" y="810" on="1"/>
      </contour>
    </TTGlyph>
    <TTGlyph name="greater" xMin="66" yMin="139" xMax="455" yMax="577">
      <contour>
        <pt x="455" y="367" on="1"/>
        <pt x="455" y="347" on="1"/>
        <pt x="66" y="139" on="1"/>
        <pt x="66" y="177" on="1"/>
        <pt x="401" y="357" on="1"/>
        <pt x="66" y="539" on="1"/>
        <pt x="66" y="577" on="1"/>
      </contour>
    </TTGlyph>
    <TTGlyph name="guillemotleft" xMin="45" yMin="70" xMax="313" yMax="470">
      <contour>
        <pt x="193" y="277" on="1"/>
        <pt x="304" y="395" on="1"/>
        <pt x="313" y="386" on="1"/>
        <pt x="269" y="270" on="1"/>
        <pt x="313" y="153" on="1"/>
        <pt x="304" y="145" on="1"/>
        <pt x="193" y="263" on="1"/>
      </contour>
      <contour>
        <pt x="218" y="470" on="1"/>
        <pt x="227" y="460" on="1"/>
        <pt x="133" y="270" on="1"/>
        <pt x="227" y="79" on="1"/>
        <pt x="218" y="70" on="1"/>
        <pt x="45" y="261" on="1"/>
        <pt x="45" y="279" on="1"/>
      </contour>
    </TTGlyph>
    <TTGlyph name="guillemotright" xMin="51" yMin="70" xMax="320" yMax="470">
      <component glyphName="guillemotleft" x="365" y="0" scalex="-1.0" scaley="1.0" flags="0x1004"/>
    </TTGlyph>
    <TTGlyph name="guilsinglleft" xMin="45" yMin="70" xMax="227" yMax="470">
      <contour>
        <pt x="45" y="279" on="1"/>
        <pt x="218" y="470" on="1"/>
        <pt x="227" y="460" on="1"/>
        <pt x="133" y="270" on="1"/>
        <pt x="227" y="79" on="1"/>
        <pt x="218" y="70" on="1"/>
        <pt x="45" y="261" on="1"/>
      </contour>
    </TTGlyph>
    <TTGlyph name="guilsinglright" xMin="50" yMin="70" xMax="233" yMax="470">
      <component glyphName="guilsinglleft" x="278" y="0" scalex="-1.0" scaley="1.0" flags="0x1004"/>
    </TTGlyph>
    <TTGlyph name="h" xMin="20" yMin="0" xMax="610" yMax="800">
      <contour>
        <pt x="20" y="780" on="1"/>
        <pt x="20" y="800" on="1"/>
        <pt x="190" y="800" on="1"/>
        <pt x="190" y="410" on="1"/>
        <pt x="271" y="527" on="0"/>
        <pt x="385" y="527" on="1"/>
        <pt x="457" y="527" on="0"/>
        <pt x="540" y="455" on="0"/>
        <pt x="540" y="384" on="1"/>
        <pt x="540" y="30" on="1"/>
        <pt x="610" y="20" on="1"/>
        <pt x="610" y="0" on="1"/>
        <pt x="380" y="0" on="1"/>
        <pt x="380" y="20" on="1"/>
        <pt x="440" y="30" on="1"/>
        <pt x="440" y="382" on="1"/>
        <pt x="440" y="491" on="0"/>
        <pt x="354" y="491" on="1"/>
        <pt x="308" y="491" on="0"/>
        <pt x="223" y="424" on="0"/>
        <pt x="190" y="375" on="1"/>
        <pt x="190" y="30" on="1"/>
        <pt x="250" y="20" on="1"/>
        <pt x="250" y="0" on="1"/>
        <pt x="20" y="0" on="1"/>
        <pt x="20" y="20" on="1"/>
        <pt x="90" y="30" on="1"/>
        <pt x="90" y="770" on="1"/>
      </contour>
    </TTGlyph>
    <TTGlyph name="hyphen" xMin="62" yMin="257" xMax="281" yMax="290">
      <contour>
        <pt x="62" y="257" on="1"/>
        <pt x="62" y="290" on="1"/>
        <pt x="281" y="290" on="1"/>
        <pt x="281" y="257" on="1"/>
      </contour>
    </TTGlyph>
    <TTGlyph name="i" xMin="27" yMin="0" xMax="267" yMax="767">
      <contour>
        <pt x="65" y="729" on="0"/>
        <pt x="104" y="767" on="0"/>
        <pt x="160" y="767" on="0"/>
        <pt x="198" y="729" on="0"/>
        <pt x="198" y="673" on="0"/>
        <pt x="160" y="634" on="0"/>
        <pt x="105" y="634" on="0"/>
        <pt x="65" y="673" on="0"/>
      </contour>
      <contour>
        <pt x="27" y="497" on="1"/>
        <pt x="27" y="517" on="1"/>
        <pt x="197" y="517" on="1"/>
        <pt x="197" y="30" on="1"/>
        <pt x="267" y="20" on="1"/>
        <pt x="267" y="0" on="1"/>
        <pt x="27" y="0" on="1"/>
        <pt x="27" y="20" on="1"/>
        <pt x="97" y="30" on="1"/>
        <pt x="97" y="487" on="1"/>
      </contour>
    </TTGlyph>
    <TTGlyph name="iacute" xMin="27" yMin="0" xMax="277" yMax="769">
      <component glyphName="acute" x="84" y="0" flags="0x1004"/>
      <component glyphName="dotlessi" x="0" y="0" flags="0x1004"/>
    </TTGlyph>
    <TTGlyph name="icircumflex" xMin="0" yMin="0" xMax="279" yMax="759">
      <component glyphName="circumflex" x="-39" y="0" flags="0x1004"/>
      <component glyphName="dotlessi" x="0" y="0" flags="0x1004"/>
    </TTGlyph>
    <TTGlyph name="idieresis" xMin="-9" yMin="0" xMax="295" yMax="729">
      <component glyphName="dotlessi" x="0" y="0" flags="0x1204"/>
      <component glyphName="dieresis" x="-52" y="-4" flags="0x1004"/>
    </TTGlyph>
    <TTGlyph name="igrave" xMin="-3" yMin="0" xMax="267" yMax="769">
      <component glyphName="grave" x="17" y="0" flags="0x1004"/>
      <component glyphName="dotlessi" x="0" y="0" flags="0x1004"/>
    </TTGlyph>
    <TTGlyph name="j" xMin="-31" yMin="-195" xMax="192" yMax="767">
      <contour>
        <pt x="87" y="-195" on="1"/>
        <pt x="36" y="-195" on="0"/>
        <pt x="-31" y="-138" on="0"/>
        <pt x="-31" y="-89" on="1"/>
        <pt x="-31" y="-59" on="0"/>
        <pt x="3" y="-21" on="0"/>
        <pt x="55" y="-21" on="0"/>
        <pt x="87" y="-48" on="0"/>
        <pt x="90" y="-61" on="1"/>
        <pt x="94" y="-74" on="1"/>
        <pt x="62" y="-95" on="0"/>
        <pt x="62" y="-127" on="1"/>
        <pt x="62" y="-168" on="0"/>
        <pt x="103" y="-168" on="1"/>
        <pt x="129" y="-168" on="0"/>
        <pt x="160" y="-125" on="0"/>
        <pt x="160" y="-43" on="0"/>
        <pt x="89" y="80" on="0"/>
        <pt x="89" y="133" on="1"/>
        <pt x="89" y="488" on="1"/>
        <pt x="14" y="498" on="1"/>
        <pt x="14" y="518" on="1"/>
        <pt x="189" y="518" on="1"/>
        <pt x="189" y="-57" on="1"/>
        <pt x="189" y="-195" on="0"/>
      </contour>
      <contour>
        <pt x="59" y="729" on="0"/>
        <pt x="98" y="767" on="0"/>
        <pt x="154" y="767" on="0"/>
        <pt x="192" y="729" on="0"/>
        <pt x="192" y="673" on="0"/>
        <pt x="154" y="634" on="0"/>
        <pt x="99" y="634" on="0"/>
        <pt x="59" y="673" on="0"/>
      </contour>
    </TTGlyph>
    <TTGlyph name="k" xMin="20" yMin="0" xMax="578" yMax="800">
      <contour>
        <pt x="20" y="0" on="1"/>
        <pt x="20" y="20" on="1"/>
        <pt x="90" y="30" on="1"/>
        <pt x="90" y="770" on="1"/>
        <pt x="20" y="780" on="1"/>
        <pt x="20" y="800" on="1"/>
        <pt x="190" y="800" on="1"/>
        <pt x="190" y="287" on="1"/>
        <pt x="419" y="475" on="1"/>
        <pt x="332" y="498" on="1"/>
        <pt x="332" y="518" on="1"/>
        <pt x="520" y="518" on="1"/>
        <pt x="520" y="498" on="1"/>
        <pt x="456" y="475" on="1"/>
        <pt x="290" y="339" on="1"/>
        <pt x="524" y="29" on="1"/>
        <pt x="578" y="20" on="1"/>
        <pt x="578" y="0" on="1"/>
        <pt x="344" y="0" on="1"/>
        <pt x="344" y="20" on="1"/>
        <pt x="404" y="30" on="1"/>
        <pt x="216" y="278" on="1"/>
        <pt x="190" y="256" on="1"/>
        <pt x="190" y="30" on="1"/>
        <pt x="250" y="20" on="1"/>
        <pt x="250" y="0" on="1"/>
      </contour>
    </TTGlyph>
    <TTGlyph name="l" xMin="18" yMin="0" xMax="263" yMax="800">
      <contour>
        <pt x="18" y="780" on="1"/>
        <pt x="18" y="800" on="1"/>
        <pt x="193" y="800" on="1"/>
        <pt x="193" y="30" on="1"/>
        <pt x="263" y="20" on="1"/>
        <pt x="263" y="0" on="1"/>
        <pt x="18" y="0" on="1"/>
        <pt x="18" y="20" on="1"/>
        <pt x="93" y="30" on="1"/>
        <pt x="93" y="770" on="1"/>
      </contour>
    </TTGlyph>
    <TTGlyph name="less" xMin="31" yMin="139" xMax="420" yMax="577">
      <contour>
        <pt x="31" y="347" on="1"/>
        <pt x="31" y="367" on="1"/>
        <pt x="420" y="577" on="1"/>
        <pt x="420" y="539" on="1"/>
        <pt x="85" y="357" on="1"/>
        <pt x="420" y="177" on="1"/>
        <pt x="420" y="139" on="1"/>
      </contour>
    </TTGlyph>
    <TTGlyph name="logicalnot" xMin="72" yMin="123" xMax="486" yMax="375">
      <contour>
        <pt x="72" y="375" on="1"/>
        <pt x="486" y="375" on="1"/>
        <pt x="486" y="123" on="1"/>
        <pt x="450" y="123" on="1"/>
        <pt x="450" y="340" on="1"/>
        <pt x="72" y="340" on="1"/>
      </contour>
    </TTGlyph>
    <TTGlyph name="m" xMin="26" yMin="0" xMax="927" yMax="527">
      <contour>
        <pt x="366" y="0" on="1"/>
        <pt x="366" y="20" on="1"/>
        <pt x="426" y="30" on="1"/>
        <pt x="426" y="382" on="1"/>
        <pt x="426" y="491" on="0"/>
        <pt x="345" y="491" on="1"/>
        <pt x="267" y="491" on="0"/>
        <pt x="196" y="391" on="1"/>
        <pt x="196" y="30" on="1"/>
        <pt x="256" y="20" on="1"/>
        <pt x="256" y="0" on="1"/>
        <pt x="26" y="0" on="1"/>
        <pt x="26" y="20" on="1"/>
        <pt x="96" y="30" on="1"/>
        <pt x="96" y="488" on="1"/>
        <pt x="26" y="498" on="1"/>
        <pt x="26" y="518" on="1"/>
        <pt x="196" y="518" on="1"/>
        <pt x="196" y="426" on="1"/>
        <pt x="273" y="527" on="0"/>
        <pt x="376" y="527" on="1"/>
        <pt x="503" y="527" on="0"/>
        <pt x="524" y="421" on="1"/>
        <pt x="601" y="527" on="0"/>
        <pt x="707" y="527" on="1"/>
        <pt x="778" y="527" on="0"/>
        <pt x="857" y="456" on="0"/>
        <pt x="857" y="384" on="1"/>
        <pt x="857" y="30" on="1"/>
        <pt x="927" y="20" on="1"/>
        <pt x="927" y="0" on="1"/>
        <pt x="697" y="0" on="1"/>
        <pt x="697" y="20" on="1"/>
        <pt x="757" y="30" on="1"/>
        <pt x="757" y="382" on="1"/>
        <pt x="757" y="491" on="0"/>
        <pt x="676" y="491" on="1"/>
        <pt x="598" y="491" on="0"/>
        <pt x="527" y="391" on="1"/>
        <pt x="527" y="30" on="1"/>
        <pt x="587" y="20" on="1"/>
        <pt x="587" y="0" on="1"/>
      </contour>
    </TTGlyph>
    <TTGlyph name="macron" xMin="0" yMin="666" xMax="459" yMax="700">
      <contour>
        <pt x="459" y="700" on="1"/>
        <pt x="459" y="666" on="1"/>
        <pt x="0" y="666" on="1"/>
        <pt x="0" y="700" on="1"/>
      </contour>
    </TTGlyph>
    <TTGlyph name="minus" xMin="72" yMin="338" xMax="522" yMax="376">
      <contour>
        <pt x="72" y="338" on="1"/>
        <pt x="72" y="376" on="1"/>
        <pt x="522" y="376" on="1"/>
        <pt x="522" y="338" on="1"/>
      </contour>
    </TTGlyph>
    <TTGlyph name="mu" xMin="90" yMin="-292" xMax="616" yMax="518">
      <contour>
        <pt x="96" y="133" on="1"/>
        <pt x="96" y="518" on="1"/>
        <pt x="196" y="518" on="1"/>
        <pt x="196" y="135" on="1"/>
        <pt x="196" y="26" on="0"/>
        <pt x="366" y="26" on="0"/>
        <pt x="446" y="143" on="1"/>
        <pt x="446" y="518" on="1"/>
        <pt x="546" y="518" on="1"/>
        <pt x="546" y="30" on="1"/>
        <pt x="616" y="20" on="1"/>
        <pt x="616" y="0" on="1"/>
        <pt x="446" y="0" on="1"/>
        <pt x="446" y="107" on="1"/>
        <pt x="365" y="-10" on="0"/>
        <pt x="251" y="-10" on="1"/>
        <pt x="170" y="-10" on="0"/>
        <pt x="131" y="32" on="1"/>
        <pt x="139" y="-84" on="0"/>
        <pt x="197" y="-215" on="0"/>
        <pt x="250" y="-242" on="1"/>
        <pt x="239" y="-264" on="0"/>
        <pt x="194" y="-292" on="0"/>
        <pt x="165" y="-292" on="1"/>
        <pt x="90" y="-292" on="0"/>
        <pt x="90" y="-211" on="1"/>
      </contour>
    </TTGlyph>
    <TTGlyph name="multiply" xMin="58" yMin="170" xMax="430" yMax="543">
      <contour>
        <pt x="58" y="515" on="1"/>
        <pt x="85" y="542" on="1"/>
        <pt x="243" y="383" on="1"/>
        <pt x="403" y="543" on="1"/>
        <pt x="430" y="516" on="1"/>
        <pt x="270" y="356" on="1"/>
        <pt x="430" y="197" on="1"/>
        <pt x="403" y="170" on="1"/>
        <pt x="244" y="330" on="1"/>
        <pt x="85" y="171" on="1"/>
        <pt x="58" y="198" on="1"/>
        <pt x="216" y="356" on="1"/>
      </contour>
    </TTGlyph>
    <TTGlyph name="n" xMin="26" yMin="0" xMax="616" yMax="527">
      <contour>
        <pt x="386" y="0" on="1"/>
        <pt x="386" y="20" on="1"/>
        <pt x="446" y="30" on="1"/>
        <pt x="446" y="382" on="1"/>
        <pt x="446" y="491" on="0"/>
        <pt x="360" y="491" on="1"/>
        <pt x="314" y="491" on="0"/>
        <pt x="229" y="424" on="0"/>
        <pt x="196" y="375" on="1"/>
        <pt x="196" y="30" on="1"/>
        <pt x="256" y="20" on="1"/>
        <pt x="256" y="0" on="1"/>
        <pt x="26" y="0" on="1"/>
        <pt x="26" y="20" on="1"/>
        <pt x="96" y="30" on="1"/>
        <pt x="96" y="488" on="1"/>
        <pt x="26" y="498" on="1"/>
        <pt x="26" y="518" on="1"/>
        <pt x="196" y="518" on="1"/>
        <pt x="196" y="410" on="1"/>
        <pt x="277" y="527" on="0"/>
        <pt x="391" y="527" on="1"/>
        <pt x="463" y="527" on="0"/>
        <pt x="546" y="455" on="0"/>
        <pt x="546" y="384" on="1"/>
        <pt x="546" y="30" on="1"/>
        <pt x="616" y="20" on="1"/>
        <pt x="616" y="0" on="1"/>
      </contour>
    </TTGlyph>
    <TTGlyph name="nine" xMin="49" yMin="-20" xMax="587" yMax="820">
      <contour>
        <pt x="292" y="0" on="1"/>
        <pt x="462" y="0" on="0"/>
        <pt x="463" y="265" on="1"/>
        <pt x="463" y="377" on="1"/>
        <pt x="403" y="302" on="0"/>
        <pt x="189" y="302" on="0"/>
        <pt x="49" y="437" on="0"/>
        <pt x="49" y="678" on="0"/>
        <pt x="205" y="820" on="0"/>
        <pt x="318" y="820" on="1"/>
        <pt x="469" y="820" on="0"/>
        <pt x="531" y="698" on="1"/>
        <pt x="587" y="586" on="0"/>
        <pt x="587" y="188" on="0"/>
        <pt x="430" y="-20" on="0"/>
        <pt x="292" y="-20" on="1"/>
        <pt x="198" y="-20" on="0"/>
        <pt x="74" y="57" on="0"/>
        <pt x="74" y="115" on="1"/>
        <pt x="74" y="149" on="0"/>
        <pt x="117" y="196" on="0"/>
        <pt x="176" y="196" on="0"/>
        <pt x="212" y="166" on="0"/>
        <pt x="212" y="140" on="1"/>
        <pt x="184" y="118" on="0"/>
        <pt x="184" y="50" on="0"/>
        <pt x="244" y="0" on="0"/>
      </contour>
      <contour>
        <pt x="308" y="326" on="1"/>
        <pt x="356" y="326" on="0"/>
        <pt x="441" y="379" on="0"/>
        <pt x="464" y="425" on="1"/>
        <pt x="465" y="564" on="1"/>
        <pt x="465" y="567" on="0"/>
        <pt x="465" y="570" on="1"/>
        <pt x="465" y="798" on="0"/>
        <pt x="318" y="798" on="1"/>
        <pt x="246" y="798" on="0"/>
        <pt x="169" y="696" on="0"/>
        <pt x="169" y="606" on="1"/>
        <pt x="169" y="508" on="1"/>
        <pt x="169" y="421" on="0"/>
        <pt x="238" y="326" on="0"/>
      </contour>
    </TTGlyph>
    <TTGlyph name="ntilde" xMin="26" yMin="0" xMax="616" yMax="737">
      <component glyphName="n" x="0" y="0" flags="0x1204"/>
      <component glyphName="tilde" x="119" y="0" flags="0x1004"/>
    </TTGlyph>
    <TTGlyph name="numbersign" xMin="36" yMin="0" xMax="541" yMax="715">
      <contour>
        <pt x="69" y="383" on="1"/>
        <pt x="69" y="428" on="1"/>
        <pt x="180" y="428" on="1"/>
        <pt x="234" y="715" on="1"/>
        <pt x="280" y="715" on="1"/>
        <pt x="225" y="428" on="1"/>
        <pt x="380" y="428" on="1"/>
        <pt x="434" y="715" on="1"/>
        <pt x="480" y="715" on="1"/>
        <pt x="425" y="428" on="1"/>
        <pt x="541" y="428" on="1"/>
        <pt x="541" y="383" on="1"/>
        <pt x="417" y="383" on="1"/>
        <pt x="393" y="255" on="1"/>
        <pt x="508" y="255" on="1"/>
        <pt x="508" y="210" on="1"/>
        <pt x="384" y="210" on="1"/>
        <pt x="345" y="0" on="1"/>
        <pt x="300" y="0" on="1"/>
        <pt x="339" y="210" on="1"/>
        <pt x="184" y="210" on="1"/>
        <pt x="145" y="0" on="1"/>
        <pt x="100" y="0" on="1"/>
        <pt x="139" y="210" on="1"/>
        <pt x="36" y="210" on="1"/>
        <pt x="36" y="255" on="1"/>
        <pt x="148" y="255" on="1"/>
        <pt x="172" y="383" on="1"/>
      </contour>
      <contour>
        <pt x="217" y="383" on="1"/>
        <pt x="193" y="255" on="1"/>
        <pt x="348" y="255" on="1"/>
        <pt x="372" y="383" on="1"/>
      </contour>
    </TTGlyph>
    <TTGlyph name="o" xMin="41" yMin="-10" xMax="559" yMax="527">
      <contour>
        <pt x="449" y="209" on="1"/>
        <pt x="449" y="309" on="1"/>
        <pt x="449" y="399" on="0"/>
        <pt x="375" y="505" on="0"/>
        <pt x="300" y="505" on="1"/>
        <pt x="225" y="505" on="0"/>
        <pt x="151" y="399" on="0"/>
        <pt x="151" y="309" on="1"/>
        <pt x="151" y="209" on="1"/>
        <pt x="151" y="120" on="0"/>
        <pt x="226" y="12" on="0"/>
        <pt x="300" y="12" on="1"/>
        <pt x="374" y="12" on="0"/>
        <pt x="449" y="120" on="0"/>
      </contour>
      <contour>
        <pt x="115" y="64" on="1"/>
        <pt x="41" y="140" on="0"/>
        <pt x="41" y="259" on="1"/>
        <pt x="41" y="377" on="0"/>
        <pt x="116" y="454" on="1"/>
        <pt x="188" y="527" on="0"/>
        <pt x="300" y="527" on="1"/>
        <pt x="411" y="527" on="0"/>
        <pt x="484" y="452" on="1"/>
        <pt x="559" y="376" on="0"/>
        <pt x="559" y="259" on="1"/>
        <pt x="559" y="142" on="0"/>
        <pt x="484" y="66" on="1"/>
        <pt x="411" y="-10" on="0"/>
        <pt x="191" y="-10" on="0"/>
      </contour>
    </TTGlyph>
    <TTGlyph name="oacute" xMin="41" yMin="-10" xMax="559" yMax="769">
      <component glyphName="o" x="0" y="0" flags="0x1204"/>
      <component glyphName="acute" x="258" y="0" flags="0x1004"/>
    </TTGlyph>
    <TTGlyph name="ocircumflex" xMin="41" yMin="-10" xMax="559" yMax="759">
      <component glyphName="o" x="0" y="0" flags="0x1204"/>
      <component glyphName="circumflex" x="122" y="0" flags="0x1004"/>
    </TTGlyph>
    <TTGlyph name="odieresis" xMin="41" yMin="-10" xMax="559" yMax="729">
      <component glyphName="o" x="0" y="0" flags="0x1204"/>
      <component glyphName="dieresis" x="105" y="-4" flags="0x1004"/>
    </TTGlyph>
    <TTGlyph name="oe" xMin="41" yMin="-10" xMax="928" yMax="527">
      <contour>
        <pt x="711" y="12" on="1"/>
        <pt x="747" y="12" on="0"/>
        <pt x="810" y="33" on="0"/>
        <pt x="835" y="52" on="1"/>
        <pt x="888" y="91" on="0"/>
        <pt x="900" y="152" on="1"/>
        <pt x="923" y="152" on="1"/>
        <pt x="909" y="77" on="0"/>
        <pt x="795" y="-10" on="0"/>
        <pt x="713" y="-10" on="1"/>
        <pt x="581" y="-10" on="0"/>
        <pt x="504" y="88" on="1"/>
        <pt x="469" y="40" on="0"/>
        <pt x="363" y="-10" on="0"/>
        <pt x="245" y="-10" on="0"/>
        <pt x="151" y="29" on="0"/>
        <pt x="116" y="64" on="1"/>
        <pt x="41" y="141" on="0"/>
        <pt x="41" y="259" on="1"/>
        <pt x="41" y="377" on="0"/>
        <pt x="116" y="454" on="1"/>
        <pt x="188" y="527" on="0"/>
        <pt x="300" y="527" on="1"/>
        <pt x="429" y="527" on="0"/>
        <pt x="504" y="430" on="1"/>
        <pt x="577" y="527" on="0"/>
        <pt x="708" y="527" on="1"/>
        <pt x="802" y="527" on="0"/>
        <pt x="864" y="466" on="1"/>
        <pt x="926" y="406" on="0"/>
        <pt x="928" y="308" on="1"/>
        <pt x="560" y="308" on="1"/>
        <pt x="560" y="209" on="1"/>
        <pt x="560" y="120" on="0"/>
        <pt x="599" y="67" on="1"/>
        <pt x="639" y="12" on="0"/>
      </contour>
      <contour>
        <pt x="449" y="209" on="1"/>
        <pt x="449" y="309" on="1"/>
        <pt x="449" y="398" on="0"/>
        <pt x="374" y="505" on="0"/>
        <pt x="226" y="505" on="0"/>
        <pt x="151" y="398" on="0"/>
        <pt x="151" y="309" on="1"/>
        <pt x="151" y="209" on="1"/>
        <pt x="151" y="120" on="0"/>
        <pt x="226" y="12" on="0"/>
        <pt x="374" y="12" on="0"/>
        <pt x="449" y="120" on="0"/>
      </contour>
      <contour>
        <pt x="707" y="505" on="1"/>
        <pt x="640" y="505" on="0"/>
        <pt x="566" y="411" on="0"/>
        <pt x="561" y="333" on="1"/>
        <pt x="818" y="333" on="1"/>
        <pt x="818" y="505" on="0"/>
      </contour>
    </TTGlyph>
    <TTGlyph name="ograve" xMin="41" yMin="-10" xMax="559" yMax="769">
      <component glyphName="o" x="0" y="0" flags="0x1204"/>
      <component glyphName="grave" x="180" y="0" flags="0x1004"/>
    </TTGlyph>
    <TTGlyph name="one" xMin="52" yMin="0" xMax="292" yMax="800">
      <contour>
        <pt x="52" y="780" on="1"/>
        <pt x="52" y="800" on="1"/>
        <pt x="222" y="800" on="1"/>
        <pt x="222" y="30" on="1"/>
        <pt x="292" y="20" on="1"/>
        <pt x="292" y="0" on="1"/>
        <pt x="52" y="0" on="1"/>
        <pt x="52" y="20" on="1"/>
        <pt x="122" y="30" on="1"/>
        <pt x="122" y="770" on="1"/>
      </contour>
    </TTGlyph>
    <TTGlyph name="onehalf" xMin="47" yMin="0" xMax="658" yMax="800">
      <component glyphName="onesuperior" x="-3" y="0" flags="0x1004"/>
      <component glyphName="twosuperior" x="332" y="-379" flags="0x1004"/>
      <component glyphName="fraction" x="112" y="0" flags="0x1004"/>
    </TTGlyph>
    <TTGlyph name="onequarter" xMin="44" yMin="0" xMax="629" yMax="800">
      <component glyphName="onesuperior" x="-6" y="0" flags="0x1004"/>
      <component glyphName="foursuperior" x="319" y="-374" flags="0x1004"/>
      <component glyphName="fraction" x="140" y="0" flags="0x1004"/>
    </TTGlyph>
    <TTGlyph name="onesuperior" xMin="50" yMin="375" xMax="206" yMax="800">
      <contour>
        <pt x="50" y="779" on="1"/>
        <pt x="50" y="800" on="1"/>
        <pt x="164" y="800" on="1"/>
        <pt x="164" y="401" on="1"/>
        <pt x="206" y="396" on="1"/>
        <pt x="206" y="375" on="1"/>
        <pt x="50" y="375" on="1"/>
        <pt x="50" y="396" on="1"/>
        <pt x="92" y="401" on="1"/>
        <pt x="92" y="774" on="1"/>
      </contour>
    </TTGlyph>
    <TTGlyph name="ordfeminine" xMin="41" yMin="371" xMax="474" yMax="805">
      <contour>
        <pt x="282" y="624" on="1"/>
        <pt x="307" y="624" on="1"/>
        <pt x="307" y="696" on="1"/>
        <pt x="307" y="741" on="0"/>
        <pt x="270" y="777" on="0"/>
        <pt x="196" y="777" on="0"/>
        <pt x="154" y="753" on="0"/>
        <pt x="154" y="707" on="0"/>
        <pt x="179" y="698" on="1"/>
        <pt x="179" y="676" on="0"/>
        <pt x="144" y="642" on="0"/>
        <pt x="98" y="642" on="0"/>
        <pt x="67" y="675" on="0"/>
        <pt x="67" y="698" on="1"/>
        <pt x="67" y="748" on="0"/>
        <pt x="161" y="805" on="0"/>
        <pt x="229" y="805" on="1"/>
        <pt x="397" y="805" on="0"/>
        <pt x="397" y="680" on="1"/>
        <pt x="397" y="433" on="1"/>
        <pt x="397" y="407" on="0"/>
        <pt x="423" y="407" on="1"/>
        <pt x="433" y="407" on="0"/>
        <pt x="447" y="420" on="0"/>
        <pt x="447" y="432" on="1"/>
        <pt x="474" y="432" on="1"/>
        <pt x="474" y="403" on="0"/>
        <pt x="432" y="371" on="0"/>
        <pt x="367" y="371" on="0"/>
        <pt x="318" y="404" on="0"/>
        <pt x="310" y="436" on="1"/>
        <pt x="264" y="371" on="0"/>
        <pt x="166" y="371" on="1"/>
        <pt x="110" y="371" on="0"/>
        <pt x="41" y="425" on="0"/>
        <pt x="41" y="518" on="0"/>
        <pt x="83" y="577" on="0"/>
        <pt x="119" y="593" on="1"/>
        <pt x="189" y="624" on="0"/>
      </contour>
      <contour>
        <pt x="307" y="517" on="1"/>
        <pt x="307" y="595" on="1"/>
        <pt x="282" y="595" on="1"/>
        <pt x="221" y="595" on="0"/>
        <pt x="138" y="533" on="0"/>
        <pt x="138" y="478" on="1"/>
        <pt x="138" y="409" on="0"/>
        <pt x="200" y="409" on="1"/>
        <pt x="239" y="409" on="0"/>
        <pt x="302" y="468" on="0"/>
      </contour>
    </TTGlyph>
    <TTGlyph name="ordmasculine" xMin="36" yMin="371" xMax="465" yMax="805">
      <contour>
        <pt x="366" y="547" on="1"/>
        <pt x="366" y="628" on="1"/>
        <pt x="366" y="697" on="0"/>
        <pt x="310" y="777" on="0"/>
        <pt x="250" y="777" on="1"/>
        <pt x="190" y="777" on="0"/>
        <pt x="134" y="697" on="0"/>
        <pt x="134" y="628" on="1"/>
        <pt x="134" y="547" on="1"/>
        <pt x="134" y="478" on="0"/>
        <pt x="190" y="398" on="0"/>
        <pt x="250" y="398" on="1"/>
        <pt x="310" y="398" on="0"/>
        <pt x="366" y="478" on="0"/>
      </contour>
      <contour>
        <pt x="36" y="588" on="1"/>
        <pt x="36" y="636" on="0"/>
        <pt x="69" y="716" on="0"/>
        <pt x="98" y="744" on="1"/>
        <pt x="158" y="805" on="0"/>
        <pt x="250" y="805" on="1"/>
        <pt x="341" y="805" on="0"/>
        <pt x="403" y="744" on="1"/>
        <pt x="465" y="684" on="0"/>
        <pt x="465" y="587" on="1"/>
        <pt x="465" y="492" on="0"/>
        <pt x="403" y="432" on="1"/>
        <pt x="341" y="371" on="0"/>
        <pt x="250" y="371" on="1"/>
        <pt x="157" y="371" on="0"/>
        <pt x="98" y="430" on="1"/>
        <pt x="36" y="492" on="0"/>
      </contour>
    </TTGlyph>
    <TTGlyph name="oslash" xMin="41" yMin="-74" xMax="559" yMax="601">
      <contour>
        <pt x="41" y="259" on="1"/>
        <pt x="41" y="379" on="0"/>
        <pt x="190" y="527" on="0"/>
        <pt x="300" y="527" on="1"/>
        <pt x="347" y="527" on="0"/>
        <pt x="393" y="511" on="1"/>
        <pt x="433" y="601" on="1"/>
        <pt x="473" y="601" on="1"/>
        <pt x="427" y="496" on="1"/>
        <pt x="488" y="463" on="0"/>
        <pt x="559" y="340" on="0"/>
        <pt x="559" y="259" on="1"/>
        <pt x="559" y="139" on="0"/>
        <pt x="410" y="-10" on="0"/>
        <pt x="300" y="-10" on="1"/>
        <pt x="249" y="-10" on="0"/>
        <pt x="204" y="7" on="1"/>
        <pt x="168" y="-74" on="1"/>
        <pt x="128" y="-74" on="1"/>
        <pt x="171" y="22" on="1"/>
        <pt x="111" y="55" on="0"/>
        <pt x="41" y="178" on="0"/>
      </contour>
      <contour>
        <pt x="449" y="209" on="1"/>
        <pt x="449" y="309" on="1"/>
        <pt x="449" y="407" on="0"/>
        <pt x="407" y="458" on="1"/>
        <pt x="219" y="35" on="1"/>
        <pt x="253" y="12" on="0"/>
        <pt x="300" y="12" on="1"/>
        <pt x="374" y="12" on="0"/>
        <pt x="449" y="120" on="0"/>
      </contour>
      <contour>
        <pt x="151" y="209" on="1"/>
        <pt x="151" y="115" on="0"/>
        <pt x="191" y="62" on="1"/>
        <pt x="378" y="484" on="1"/>
        <pt x="344" y="505" on="0"/>
        <pt x="300" y="505" on="1"/>
        <pt x="226" y="505" on="0"/>
        <pt x="151" y="398" on="0"/>
        <pt x="151" y="309" on="1"/>
      </contour>
    </TTGlyph>
    <TTGlyph name="otilde" xMin="41" yMin="-10" xMax="559" yMax="737">
      <component glyphName="o" x="0" y="0" flags="0x1204"/>
      <component glyphName="tilde" x="88" y="0" flags="0x1004"/>
    </TTGlyph>
    <TTGlyph name="p" xMin="20" yMin="-283" xMax="598" yMax="527">
      <contour>
        <pt x="190" y="518" on="1"/>
        <pt x="190" y="412" on="1"/>
        <pt x="243" y="527" on="0"/>
        <pt x="467" y="527" on="0"/>
        <pt x="598" y="380" on="0"/>
        <pt x="598" y="136" on="0"/>
        <pt x="467" y="-10" on="0"/>
        <pt x="244" y="-10" on="0"/>
        <pt x="190" y="104" on="1"/>
        <pt x="190" y="-253" on="1"/>
        <pt x="284" y="-263" on="1"/>
        <pt x="284" y="-283" on="1"/>
        <pt x="20" y="-283" on="1"/>
        <pt x="20" y="-263" on="1"/>
        <pt x="90" y="-253" on="1"/>
        <pt x="90" y="488" on="1"/>
        <pt x="20" y="498" on="1"/>
        <pt x="20" y="518" on="1"/>
      </contour>
      <contour>
        <pt x="488" y="208" on="1"/>
        <pt x="488" y="308" on="1"/>
        <pt x="488" y="502" on="0"/>
        <pt x="349" y="502" on="1"/>
        <pt x="282" y="502" on="0"/>
        <pt x="192" y="392" on="0"/>
        <pt x="190" y="315" on="1"/>
        <pt x="190" y="208" on="1"/>
        <pt x="190" y="129" on="0"/>
        <pt x="281" y="15" on="0"/>
        <pt x="349" y="15" on="1"/>
        <pt x="488" y="15" on="0"/>
      </contour>
    </TTGlyph>
    <TTGlyph name="paragraph" xMin="32" yMin="-112" xMax="504" yMax="800">
      <contour>
        <pt x="228" y="-112" on="1"/>
        <pt x="228" y="426" on="1"/>
        <pt x="136" y="426" on="0"/>
        <pt x="32" y="532" on="0"/>
        <pt x="32" y="694" on="0"/>
        <pt x="136" y="800" on="0"/>
        <pt x="227" y="800" on="1"/>
        <pt x="504" y="800" on="1"/>
        <pt x="504" y="778" on="1"/>
        <pt x="412" y="764" on="1"/>
        <pt x="412" y="-112" on="1"/>
        <pt x="370" y="-112" on="1"/>
        <pt x="370" y="767" on="1"/>
        <pt x="271" y="767" on="1"/>
        <pt x="271" y="-112" on="1"/>
      </contour>
    </TTGlyph>
    <TTGlyph name="parenleft" xMin="37" yMin="-195" xMax="350" yMax="907">
      <contour>
        <pt x="157" y="356" on="1"/>
        <pt x="157" y="237" on="0"/>
        <pt x="194" y="42" on="0"/>
        <pt x="224" y="-20" on="1"/>
        <pt x="282" y="-138" on="0"/>
        <pt x="350" y="-171" on="1"/>
        <pt x="344" y="-195" on="1"/>
        <pt x="202" y="-154" on="0"/>
        <pt x="37" y="142" on="0"/>
        <pt x="37" y="571" on="0"/>
        <pt x="201" y="866" on="0"/>
        <pt x="343" y="907" on="1"/>
        <pt x="350" y="884" on="1"/>
        <pt x="157" y="814" on="0"/>
      </contour>
    </TTGlyph>
    <TTGlyph name="parenright" xMin="-6" yMin="-195" xMax="307" yMax="907">
      <component glyphName="parenleft" x="344" y="0" scalex="-1.0" scaley="1.0" flags="0x1004"/>
    </TTGlyph>
    <TTGlyph name="percent" xMin="36" yMin="-5" xMax="789" yMax="805">
      <contour>
        <pt x="631" y="-5" on="1"/>
        <pt x="559" y="-5" on="0"/>
        <pt x="472" y="107" on="0"/>
        <pt x="472" y="213" on="1"/>
        <pt x="472" y="319" on="0"/>
        <pt x="559" y="430" on="0"/>
        <pt x="631" y="430" on="1"/>
        <pt x="703" y="430" on="0"/>
        <pt x="789" y="319" on="0"/>
        <pt x="789" y="213" on="1"/>
        <pt x="789" y="107" on="0"/>
        <pt x="703" y="-5" on="0"/>
      </contour>
      <contour>
        <pt x="712" y="162" on="1"/>
        <pt x="712" y="264" on="1"/>
        <pt x="712" y="409" on="0"/>
        <pt x="631" y="409" on="1"/>
        <pt x="550" y="409" on="0"/>
        <pt x="550" y="264" on="1"/>
        <pt x="550" y="162" on="1"/>
        <pt x="550" y="17" on="0"/>
        <pt x="631" y="17" on="1"/>
        <pt x="712" y="17" on="0"/>
      </contour>
      <contour>
        <pt x="194" y="370" on="1"/>
        <pt x="122" y="370" on="0"/>
        <pt x="36" y="482" on="0"/>
        <pt x="36" y="588" on="1"/>
        <pt x="36" y="694" on="0"/>
        <pt x="122" y="805" on="0"/>
        <pt x="194" y="805" on="1"/>
        <pt x="266" y="805" on="0"/>
        <pt x="353" y="694" on="0"/>
        <pt x="353" y="588" on="1"/>
        <pt x="353" y="482" on="0"/>
        <pt x="266" y="370" on="0"/>
      </contour>
      <contour>
        <pt x="275" y="537" on="1"/>
        <pt x="275" y="639" on="1"/>
        <pt x="275" y="784" on="0"/>
        <pt x="194" y="784" on="1"/>
        <pt x="113" y="784" on="0"/>
        <pt x="113" y="639" on="1"/>
        <pt x="113" y="537" on="1"/>
        <pt x="113" y="392" on="0"/>
        <pt x="194" y="392" on="1"/>
        <pt x="275" y="392" on="0"/>
      </contour>
      <contour>
        <pt x="638" y="800" on="1"/>
        <pt x="239" y="0" on="1"/>
        <pt x="187" y="0" on="1"/>
        <pt x="587" y="800" on="1"/>
      </contour>
    </TTGlyph>
    <TTGlyph name="period" xMin="48" yMin="-10" xMax="167" yMax="108">
      <contour>
        <pt x="65" y="7" on="1"/>
        <pt x="48" y="24" on="0"/>
        <pt x="48" y="75" on="0"/>
        <pt x="85" y="108" on="0"/>
        <pt x="108" y="108" on="1"/>
        <pt x="131" y="108" on="0"/>
        <pt x="167" y="75" on="0"/>
        <pt x="167" y="50" on="1"/>
        <pt x="167" y="25" on="0"/>
        <pt x="133" y="-10" on="0"/>
        <pt x="82" y="-10" on="0"/>
      </contour>
    </TTGlyph>
    <TTGlyph name="periodcentered" xMin="55" yMin="234" xMax="185" yMax="364">
      <contour>
        <pt x="147" y="234" on="0"/>
        <pt x="93" y="234" on="0"/>
        <pt x="74" y="253" on="1"/>
        <pt x="55" y="272" on="0"/>
        <pt x="55" y="326" on="0"/>
        <pt x="96" y="364" on="0"/>
        <pt x="145" y="364" on="0"/>
        <pt x="185" y="324" on="0"/>
        <pt x="185" y="275" on="0"/>
      </contour>
    </TTGlyph>
    <TTGlyph name="plus" xMin="33" yMin="127" xMax="492" yMax="586">
      <contour>
        <pt x="243" y="586" on="1"/>
        <pt x="281" y="586" on="1"/>
        <pt x="281" y="376" on="1"/>
        <pt x="492" y="376" on="1"/>
        <pt x="492" y="338" on="1"/>
        <pt x="281" y="338" on="1"/>
        <pt x="281" y="127" on="1"/>
        <pt x="243" y="127" on="1"/>
        <pt x="243" y="338" on="1"/>
        <pt x="33" y="338" on="1"/>
        <pt x="33" y="376" on="1"/>
        <pt x="243" y="376" on="1"/>
      </contour>
    </TTGlyph>
    <TTGlyph name="plusminus" xMin="74" yMin="112" xMax="533" yMax="537">
      <contour>
        <pt x="74" y="112" on="1"/>
        <pt x="74" y="150" on="1"/>
        <pt x="533" y="150" on="1"/>
        <pt x="533" y="112" on="1"/>
      </contour>
      <contour>
        <pt x="284" y="537" on="1"/>
        <pt x="322" y="537" on="1"/>
        <pt x="322" y="376" on="1"/>
        <pt x="533" y="376" on="1"/>
        <pt x="533" y="338" on="1"/>
        <pt x="322" y="338" on="1"/>
        <pt x="322" y="177" on="1"/>
        <pt x="284" y="177" on="1"/>
        <pt x="284" y="338" on="1"/>
        <pt x="74" y="338" on="1"/>
        <pt x="74" y="376" on="1"/>
        <pt x="284" y="376" on="1"/>
      </contour>
    </TTGlyph>
    <TTGlyph name="q" xMin="42" yMin="-283" xMax="620" yMax="527">
      <contour>
        <pt x="450" y="-253" on="1"/>
        <pt x="450" y="104" on="1"/>
        <pt x="396" y="-10" on="0"/>
        <pt x="173" y="-10" on="0"/>
        <pt x="42" y="136" on="0"/>
        <pt x="42" y="380" on="0"/>
        <pt x="173" y="527" on="0"/>
        <pt x="397" y="527" on="0"/>
        <pt x="450" y="412" on="1"/>
        <pt x="450" y="518" on="1"/>
        <pt x="620" y="518" on="1"/>
        <pt x="620" y="498" on="1"/>
        <pt x="550" y="488" on="1"/>
        <pt x="550" y="-253" on="1"/>
        <pt x="620" y="-263" on="1"/>
        <pt x="620" y="-283" on="1"/>
        <pt x="331" y="-283" on="1"/>
        <pt x="331" y="-263" on="1"/>
      </contour>
      <contour>
        <pt x="152" y="308" on="1"/>
        <pt x="152" y="208" on="1"/>
        <pt x="152" y="15" on="0"/>
        <pt x="291" y="15" on="1"/>
        <pt x="357" y="15" on="0"/>
        <pt x="448" y="124" on="0"/>
        <pt x="450" y="200" on="1"/>
        <pt x="450" y="315" on="1"/>
        <pt x="448" y="392" on="0"/>
        <pt x="357" y="502" on="0"/>
        <pt x="291" y="502" on="1"/>
        <pt x="152" y="502" on="0"/>
      </contour>
    </TTGlyph>
    <TTGlyph name="question" xMin="33" yMin="-10" xMax="483" yMax="820">
      <contour>
        <pt x="258" y="-10" on="0"/>
        <pt x="208" y="-10" on="0"/>
        <pt x="174" y="25" on="0"/>
        <pt x="174" y="75" on="0"/>
        <pt x="208" y="108" on="0"/>
        <pt x="258" y="108" on="0"/>
        <pt x="292" y="75" on="0"/>
        <pt x="292" y="25" on="0"/>
      </contour>
      <contour>
        <pt x="222" y="165" on="1"/>
        <pt x="222" y="273" on="0"/>
        <pt x="272" y="368" on="1"/>
        <pt x="292" y="408" on="0"/>
        <pt x="312" y="446" on="1"/>
        <pt x="361" y="539" on="0"/>
        <pt x="361" y="616" on="1"/>
        <pt x="361" y="718" on="0"/>
        <pt x="303" y="798" on="0"/>
        <pt x="202" y="798" on="0"/>
        <pt x="128" y="746" on="0"/>
        <pt x="128" y="705" on="1"/>
        <pt x="128" y="653" on="0"/>
        <pt x="178" y="629" on="1"/>
        <pt x="178" y="594" on="0"/>
        <pt x="137" y="557" on="0"/>
        <pt x="78" y="557" on="0"/>
        <pt x="33" y="602" on="0"/>
        <pt x="33" y="641" on="1"/>
        <pt x="33" y="719" on="0"/>
        <pt x="172" y="820" on="0"/>
        <pt x="375" y="820" on="0"/>
        <pt x="483" y="730" on="0"/>
        <pt x="483" y="623" on="1"/>
        <pt x="483" y="579" on="0"/>
        <pt x="448" y="497" on="0"/>
        <pt x="394" y="437" on="0"/>
        <pt x="333" y="367" on="0"/>
        <pt x="279" y="304" on="0"/>
        <pt x="244" y="214" on="0"/>
        <pt x="244" y="165" on="1"/>
      </contour>
    </TTGlyph>
    <TTGlyph name="questiondown" xMin="35" yMin="-303" xMax="486" yMax="527">
      <component glyphName="question" x="519" y="517" scale="-1.0" flags="0x1004"/>
    </TTGlyph>
    <TTGlyph name="quotedbl" xMin="44" yMin="565" xMax="229" yMax="810">
      <component glyphName="quotesingle" x="0" y="0" flags="0x1000"/>
      <component glyphName="quotesingle" x="110" y="0" flags="0x1000"/>
    </TTGlyph>
    <TTGlyph name="quotedblbase" xMin="48" yMin="-162" xMax="357" yMax="108">
      <component glyphName="quotesinglbase" x="0" y="0" flags="0x1000"/>
      <component glyphName="quotesinglbase" x="173" y="0" flags="0x1000"/>
    </TTGlyph>
    <TTGlyph name="quotedblleft" xMin="40" yMin="539" xMax="349" yMax="809">
      <component glyphName="quoteleft" x="0" y="0" flags="0x1000"/>
      <component glyphName="quoteleft" x="173" y="0" flags="0x1000"/>
    </TTGlyph>
    <TTGlyph name="quotedblright" xMin="49" yMin="539" xMax="358" yMax="809">
      <component glyphName="quoteright" x="0" y="0" flags="0x1000"/>
      <component glyphName="quoteright" x="173" y="0" flags="0x1000"/>
    </TTGlyph>
    <TTGlyph name="quoteleft" xMin="40" yMin="539" xMax="176" yMax="809">
      <contour>
        <pt x="164" y="809" on="1"/>
        <pt x="175" y="793" on="1"/>
        <pt x="144" y="775" on="0"/>
        <pt x="127" y="751" on="1"/>
        <pt x="96" y="709" on="0"/>
        <pt x="96" y="677" on="1"/>
        <pt x="96" y="657" on="0"/>
        <pt x="141" y="657" on="0"/>
        <pt x="176" y="622" on="0"/>
        <pt x="176" y="597" on="1"/>
        <pt x="176" y="572" on="0"/>
        <pt x="141" y="539" on="0"/>
        <pt x="81" y="539" on="0"/>
        <pt x="40" y="589" on="0"/>
        <pt x="40" y="631" on="1"/>
        <pt x="40" y="748" on="0"/>
      </contour>
    </TTGlyph>
    <TTGlyph name="quoteright" xMin="49" yMin="539" xMax="185" yMax="809">
      <contour>
        <pt x="61" y="539" on="1"/>
        <pt x="50" y="555" on="1"/>
        <pt x="81" y="573" on="0"/>
        <pt x="98" y="597" on="1"/>
        <pt x="129" y="639" on="0"/>
        <pt x="129" y="671" on="1"/>
        <pt x="129" y="691" on="0"/>
        <pt x="84" y="691" on="0"/>
        <pt x="49" y="726" on="0"/>
        <pt x="49" y="751" on="1"/>
        <pt x="49" y="776" on="0"/>
        <pt x="84" y="809" on="0"/>
        <pt x="144" y="809" on="0"/>
        <pt x="185" y="759" on="0"/>
        <pt x="185" y="717" on="1"/>
        <pt x="185" y="600" on="0"/>
      </contour>
    </TTGlyph>
    <TTGlyph name="quotesinglbase" xMin="48" yMin="-162" xMax="184" yMax="108">
      <contour>
        <pt x="60" y="-162" on="1"/>
        <pt x="49" y="-146" on="1"/>
        <pt x="80" y="-128" on="0"/>
        <pt x="97" y="-104" on="1"/>
        <pt x="128" y="-62" on="0"/>
        <pt x="128" y="-30" on="1"/>
        <pt x="128" y="-10" on="0"/>
        <pt x="83" y="-10" on="0"/>
        <pt x="48" y="25" on="0"/>
        <pt x="48" y="50" on="1"/>
        <pt x="48" y="75" on="0"/>
        <pt x="83" y="108" on="0"/>
        <pt x="143" y="108" on="0"/>
        <pt x="184" y="58" on="0"/>
        <pt x="184" y="16" on="1"/>
        <pt x="184" y="-101" on="0"/>
      </contour>
    </TTGlyph>
    <TTGlyph name="quotesingle" xMin="44" yMin="565" xMax="119" yMax="810">
      <contour>
        <pt x="90" y="565" on="1"/>
        <pt x="73" y="565" on="1"/>
        <pt x="68" y="631" on="0"/>
        <pt x="44" y="752" on="0"/>
        <pt x="44" y="786" on="0"/>
        <pt x="63" y="810" on="0"/>
        <pt x="99" y="810" on="0"/>
        <pt x="119" y="786" on="0"/>
        <pt x="119" y="752" on="0"/>
        <pt x="95" y="631" on="0"/>
      </contour>
    </TTGlyph>
    <TTGlyph name="r" xMin="26" yMin="0" xMax="434" yMax="527">
      <contour>
        <pt x="26" y="0" on="1"/>
        <pt x="26" y="20" on="1"/>
        <pt x="96" y="30" on="1"/>
        <pt x="96" y="488" on="1"/>
        <pt x="26" y="498" on="1"/>
        <pt x="26" y="518" on="1"/>
        <pt x="196" y="518" on="1"/>
        <pt x="196" y="441" on="1"/>
        <pt x="259" y="527" on="0"/>
        <pt x="338" y="527" on="1"/>
        <pt x="376" y="527" on="0"/>
        <pt x="434" y="488" on="0"/>
        <pt x="434" y="426" on="0"/>
        <pt x="400" y="391" on="0"/>
        <pt x="340" y="391" on="0"/>
        <pt x="320" y="416" on="1"/>
        <pt x="331" y="430" on="0"/>
        <pt x="331" y="463" on="0"/>
        <pt x="308" y="484" on="0"/>
        <pt x="289" y="484" on="1"/>
        <pt x="251" y="484" on="0"/>
        <pt x="196" y="404" on="1"/>
        <pt x="196" y="30" on="1"/>
        <pt x="276" y="20" on="1"/>
        <pt x="276" y="0" on="1"/>
      </contour>
    </TTGlyph>
    <TTGlyph name="registered" xMin="49" yMin="-10" xMax="869" yMax="810">
      <contour>
        <pt x="114" y="166" on="0"/>
        <pt x="49" y="315" on="0"/>
        <pt x="49" y="484" on="0"/>
        <pt x="114" y="633" on="0"/>
        <pt x="226" y="745" on="0"/>
        <pt x="375" y="810" on="0"/>
        <pt x="459" y="810" on="1"/>
        <pt x="543" y="810" on="0"/>
        <pt x="692" y="744" on="0"/>
        <pt x="804" y="632" on="0"/>
        <pt x="869" y="483" on="0"/>
        <pt x="869" y="399" on="1"/>
        <pt x="869" y="315" on="0"/>
        <pt x="804" y="166" on="0"/>
        <pt x="692" y="55" on="0"/>
        <pt x="543" y="-10" on="0"/>
        <pt x="459" y="-10" on="1"/>
        <pt x="375" y="-10" on="0"/>
        <pt x="226" y="55" on="0"/>
      </contour>
      <contour>
        <pt x="145" y="611" on="0"/>
        <pt x="87" y="476" on="0"/>
        <pt x="87" y="321" on="0"/>
        <pt x="145" y="186" on="0"/>
        <pt x="246" y="85" on="0"/>
        <pt x="381" y="27" on="0"/>
        <pt x="459" y="27" on="1"/>
        <pt x="537" y="27" on="0"/>
        <pt x="672" y="86" on="0"/>
        <pt x="772" y="187" on="0"/>
        <pt x="830" y="322" on="0"/>
        <pt x="830" y="399" on="1"/>
        <pt x="830" y="476" on="0"/>
        <pt x="772" y="611" on="0"/>
        <pt x="672" y="712" on="0"/>
        <pt x="537" y="771" on="0"/>
        <pt x="382" y="771" on="0"/>
        <pt x="246" y="712" on="0"/>
      </contour>
      <contour>
        <pt x="695" y="194" on="1"/>
        <pt x="712" y="175" on="1"/>
        <pt x="676" y="136" on="0"/>
        <pt x="624" y="136" on="1"/>
        <pt x="549" y="136" on="0"/>
        <pt x="538" y="212" on="1"/>
        <pt x="525" y="298" on="1"/>
        <pt x="519" y="340" on="0"/>
        <pt x="476" y="385" on="0"/>
        <pt x="426" y="385" on="1"/>
        <pt x="386" y="385" on="1"/>
        <pt x="386" y="175" on="1"/>
        <pt x="445" y="166" on="1"/>
        <pt x="445" y="142" on="1"/>
        <pt x="244" y="142" on="1"/>
        <pt x="244" y="166" on="1"/>
        <pt x="304" y="175" on="1"/>
        <pt x="304" y="621" on="1"/>
        <pt x="244" y="630" on="1"/>
        <pt x="244" y="654" on="1"/>
        <pt x="463" y="654" on="1"/>
        <pt x="569" y="654" on="0"/>
        <pt x="662" y="589" on="0"/>
        <pt x="662" y="522" on="1"/>
        <pt x="662" y="412" on="0"/>
        <pt x="501" y="395" on="1"/>
        <pt x="501" y="391" on="1"/>
        <pt x="604" y="377" on="0"/>
        <pt x="620" y="277" on="1"/>
        <pt x="629" y="222" on="1"/>
        <pt x="632" y="197" on="0"/>
        <pt x="642" y="175" on="0"/>
        <pt x="674" y="175" on="0"/>
      </contour>
      <contour>
        <pt x="448" y="628" on="1"/>
        <pt x="386" y="628" on="1"/>
        <pt x="386" y="411" on="1"/>
        <pt x="448" y="411" on="1"/>
        <pt x="571" y="411" on="0"/>
        <pt x="571" y="519" on="1"/>
        <pt x="571" y="532" on="1"/>
        <pt x="571" y="628" on="0"/>
      </contour>
    </TTGlyph>
    <TTGlyph name="ring" xMin="37" yMin="575" xMax="226" yMax="765">
      <contour>
        <pt x="37" y="709" on="0"/>
        <pt x="92" y="765" on="0"/>
        <pt x="171" y="765" on="0"/>
        <pt x="226" y="709" on="0"/>
        <pt x="226" y="631" on="0"/>
        <pt x="171" y="575" on="0"/>
        <pt x="92" y="575" on="0"/>
        <pt x="37" y="631" on="0"/>
      </contour>
      <contour>
        <pt x="156" y="732" on="0"/>
        <pt x="106" y="732" on="0"/>
        <pt x="69" y="695" on="0"/>
        <pt x="69" y="645" on="0"/>
        <pt x="106" y="608" on="0"/>
        <pt x="156" y="608" on="0"/>
        <pt x="194" y="645" on="0"/>
        <pt x="194" y="695" on="0"/>
      </contour>
    </TTGlyph>
    <TTGlyph name="ring.case" xMin="24" yMin="798" xMax="214" yMax="988">
      <contour>
        <pt x="52" y="826" on="1"/>
        <pt x="24" y="854" on="0"/>
        <pt x="24" y="932" on="0"/>
        <pt x="80" y="988" on="0"/>
        <pt x="158" y="988" on="0"/>
        <pt x="214" y="932" on="0"/>
        <pt x="214" y="854" on="0"/>
        <pt x="158" y="798" on="0"/>
        <pt x="80" y="798" on="0"/>
      </contour>
      <contour>
        <pt x="144" y="955" on="0"/>
        <pt x="94" y="955" on="0"/>
        <pt x="57" y="918" on="0"/>
        <pt x="57" y="868" on="0"/>
        <pt x="94" y="831" on="0"/>
        <pt x="144" y="831" on="0"/>
        <pt x="182" y="868" on="0"/>
        <pt x="182" y="918" on="0"/>
      </contour>
    </TTGlyph>
    <TTGlyph name="s" xMin="41" yMin="-10" xMax="429" yMax="527">
      <contour>
        <pt x="243" y="-10" on="1"/>
        <pt x="41" y="-10" on="0"/>
        <pt x="41" y="101" on="1"/>
        <pt x="41" y="130" on="0"/>
        <pt x="76" y="172" on="0"/>
        <pt x="100" y="172" on="1"/>
        <pt x="147" y="172" on="0"/>
        <pt x="160" y="130" on="1"/>
        <pt x="143" y="111" on="0"/>
        <pt x="143" y="88" on="1"/>
        <pt x="143" y="49" on="0"/>
        <pt x="195" y="9" on="0"/>
        <pt x="305" y="9" on="0"/>
        <pt x="386" y="66" on="0"/>
        <pt x="386" y="143" on="0"/>
        <pt x="331" y="181" on="0"/>
        <pt x="268" y="201" on="1"/>
        <pt x="139" y="242" on="1"/>
        <pt x="49" y="268" on="0"/>
        <pt x="49" y="374" on="1"/>
        <pt x="49" y="440" on="0"/>
        <pt x="152" y="527" on="0"/>
        <pt x="318" y="527" on="0"/>
        <pt x="412" y="470" on="0"/>
        <pt x="412" y="424" on="1"/>
        <pt x="412" y="398" on="0"/>
        <pt x="380" y="363" on="0"/>
        <pt x="334" y="363" on="0"/>
        <pt x="307" y="386" on="0"/>
        <pt x="307" y="406" on="1"/>
        <pt x="328" y="420" on="0"/>
        <pt x="328" y="445" on="1"/>
        <pt x="328" y="508" on="0"/>
        <pt x="237" y="508" on="1"/>
        <pt x="172" y="508" on="0"/>
        <pt x="96" y="456" on="0"/>
        <pt x="96" y="389" on="0"/>
        <pt x="123" y="359" on="0"/>
        <pt x="162" y="346" on="1"/>
        <pt x="321" y="297" on="1"/>
        <pt x="378" y="279" on="0"/>
        <pt x="429" y="208" on="0"/>
        <pt x="429" y="86" on="0"/>
        <pt x="336" y="-10" on="0"/>
      </contour>
    </TTGlyph>
    <TTGlyph name="section" xMin="53" yMin="-137" xMax="473" yMax="810">
      <contour>
        <pt x="53" y="328" on="1"/>
        <pt x="53" y="388" on="0"/>
        <pt x="97" y="468" on="0"/>
        <pt x="139" y="503" on="1"/>
        <pt x="68" y="559" on="0"/>
        <pt x="68" y="727" on="0"/>
        <pt x="162" y="810" on="0"/>
        <pt x="337" y="810" on="0"/>
        <pt x="444" y="746" on="0"/>
        <pt x="444" y="695" on="1"/>
        <pt x="444" y="666" on="0"/>
        <pt x="408" y="627" on="0"/>
        <pt x="358" y="627" on="0"/>
        <pt x="327" y="653" on="0"/>
        <pt x="327" y="675" on="1"/>
        <pt x="351" y="691" on="0"/>
        <pt x="351" y="749" on="0"/>
        <pt x="290" y="790" on="0"/>
        <pt x="188" y="790" on="0"/>
        <pt x="109" y="739" on="0"/>
        <pt x="109" y="691" on="1"/>
        <pt x="109" y="660" on="0"/>
        <pt x="138" y="611" on="0"/>
        <pt x="166" y="589" on="0"/>
        <pt x="193" y="572" on="1"/>
        <pt x="364" y="490" on="1"/>
        <pt x="473" y="437" on="0"/>
        <pt x="473" y="344" on="1"/>
        <pt x="473" y="238" on="0"/>
        <pt x="386" y="163" on="1"/>
        <pt x="454" y="107" on="0"/>
        <pt x="454" y="-54" on="0"/>
        <pt x="357" y="-137" on="0"/>
        <pt x="180" y="-137" on="0"/>
        <pt x="72" y="-74" on="0"/>
        <pt x="72" y="-23" on="1"/>
        <pt x="72" y="6" on="0"/>
        <pt x="108" y="45" on="0"/>
        <pt x="159" y="45" on="0"/>
        <pt x="189" y="19" on="0"/>
        <pt x="189" y="-2" on="1"/>
        <pt x="165" y="-20" on="0"/>
        <pt x="165" y="-77" on="0"/>
        <pt x="227" y="-117" on="0"/>
        <pt x="330" y="-117" on="0"/>
        <pt x="412" y="-66" on="0"/>
        <pt x="412" y="-19" on="1"/>
        <pt x="412" y="12" on="0"/>
        <pt x="382" y="61" on="0"/>
        <pt x="352" y="84" on="0"/>
        <pt x="323" y="101" on="1"/>
        <pt x="153" y="183" on="1"/>
        <pt x="53" y="235" on="0"/>
      </contour>
      <contour>
        <pt x="361" y="181" on="1"/>
        <pt x="362" y="180" on="0"/>
        <pt x="368" y="177" on="0"/>
        <pt x="369" y="176" on="1"/>
        <pt x="435" y="234" on="0"/>
        <pt x="435" y="301" on="1"/>
        <pt x="435" y="335" on="0"/>
        <pt x="378" y="385" on="0"/>
        <pt x="315" y="415" on="1"/>
        <pt x="157" y="491" on="1"/>
        <pt x="123" y="460" on="0"/>
        <pt x="91" y="406" on="0"/>
        <pt x="91" y="338" on="0"/>
        <pt x="143" y="287" on="0"/>
        <pt x="201" y="257" on="1"/>
      </contour>
    </TTGlyph>
    <TTGlyph name="semicolon" xMin="68" yMin="-162" xMax="204" yMax="459">
      <contour>
        <pt x="85" y="358" on="1"/>
        <pt x="68" y="375" on="0"/>
        <pt x="68" y="426" on="0"/>
        <pt x="105" y="459" on="0"/>
        <pt x="128" y="459" on="1"/>
        <pt x="151" y="459" on="0"/>
        <pt x="187" y="426" on="0"/>
        <pt x="187" y="401" on="1"/>
        <pt x="187" y="376" on="0"/>
        <pt x="153" y="341" on="0"/>
        <pt x="102" y="341" on="0"/>
      </contour>
      <contour>
        <pt x="80" y="-162" on="1"/>
        <pt x="69" y="-146" on="1"/>
        <pt x="99" y="-128" on="0"/>
        <pt x="148" y="-63" on="0"/>
        <pt x="148" y="-30" on="1"/>
        <pt x="148" y="-10" on="0"/>
        <pt x="103" y="-10" on="0"/>
        <pt x="68" y="25" on="0"/>
        <pt x="68" y="75" on="0"/>
        <pt x="103" y="108" on="0"/>
        <pt x="163" y="108" on="0"/>
        <pt x="204" y="57" on="0"/>
        <pt x="204" y="16" on="1"/>
        <pt x="204" y="-101" on="0"/>
      </contour>
    </TTGlyph>
    <TTGlyph name="seven" xMin="40" yMin="0" xMax="479" yMax="800">
      <contour>
        <pt x="276" y="0" on="1"/>
        <pt x="139" y="0" on="1"/>
        <pt x="154" y="145" on="0"/>
        <pt x="231" y="286" on="1"/>
        <pt x="265" y="349" on="0"/>
        <pt x="298" y="408" on="1"/>
        <pt x="387" y="565" on="0"/>
        <pt x="428" y="696" on="1"/>
        <pt x="93" y="696" on="1"/>
        <pt x="66" y="577" on="1"/>
        <pt x="40" y="577" on="1"/>
        <pt x="40" y="800" on="1"/>
        <pt x="479" y="800" on="1"/>
        <pt x="467" y="697" on="0"/>
        <pt x="405" y="471" on="0"/>
        <pt x="342" y="306" on="0"/>
        <pt x="284" y="93" on="0"/>
      </contour>
    </TTGlyph>
    <TTGlyph name="six" xMin="57" yMin="-20" xMax="595" yMax="820">
      <contour>
        <pt x="181" y="535" on="1"/>
        <pt x="180" y="423" on="1"/>
        <pt x="242" y="498" on="0"/>
        <pt x="455" y="498" on="0"/>
        <pt x="595" y="363" on="0"/>
        <pt x="595" y="122" on="0"/>
        <pt x="439" y="-20" on="0"/>
        <pt x="326" y="-20" on="1"/>
        <pt x="175" y="-20" on="0"/>
        <pt x="113" y="102" on="1"/>
        <pt x="57" y="214" on="0"/>
        <pt x="57" y="612" on="0"/>
        <pt x="214" y="820" on="0"/>
        <pt x="352" y="820" on="1"/>
        <pt x="446" y="820" on="0"/>
        <pt x="570" y="743" on="0"/>
        <pt x="570" y="685" on="1"/>
        <pt x="570" y="651" on="0"/>
        <pt x="527" y="604" on="0"/>
        <pt x="468" y="604" on="0"/>
        <pt x="432" y="634" on="0"/>
        <pt x="432" y="660" on="1"/>
        <pt x="460" y="682" on="0"/>
        <pt x="460" y="750" on="0"/>
        <pt x="400" y="800" on="0"/>
        <pt x="352" y="800" on="1"/>
        <pt x="182" y="800" on="0"/>
      </contour>
      <contour>
        <pt x="336" y="474" on="1"/>
        <pt x="287" y="474" on="0"/>
        <pt x="203" y="421" on="0"/>
        <pt x="180" y="375" on="1"/>
        <pt x="179" y="236" on="1"/>
        <pt x="179" y="233" on="0"/>
        <pt x="179" y="230" on="1"/>
        <pt x="179" y="2" on="0"/>
        <pt x="326" y="2" on="1"/>
        <pt x="398" y="2" on="0"/>
        <pt x="475" y="104" on="0"/>
        <pt x="475" y="194" on="1"/>
        <pt x="475" y="292" on="1"/>
        <pt x="475" y="379" on="0"/>
        <pt x="406" y="474" on="0"/>
      </contour>
    </TTGlyph>
    <TTGlyph name="slash" xMin="32" yMin="0" xMax="394" yMax="700">
      <contour>
        <pt x="394" y="700" on="1"/>
        <pt x="84" y="0" on="1"/>
        <pt x="32" y="0" on="1"/>
        <pt x="343" y="700" on="1"/>
      </contour>
    </TTGlyph>
    <TTGlyph name="sterling" xMin="63" yMin="0" xMax="569" yMax="820">
      <contour>
        <pt x="63" y="409" on="1"/>
        <pt x="63" y="447" on="1"/>
        <pt x="171" y="447" on="1"/>
        <pt x="163" y="459" on="0"/>
        <pt x="117" y="522" on="0"/>
        <pt x="95" y="556" on="0"/>
        <pt x="74" y="615" on="0"/>
        <pt x="74" y="644" on="1"/>
        <pt x="74" y="717" on="0"/>
        <pt x="202" y="820" on="0"/>
        <pt x="424" y="820" on="0"/>
        <pt x="569" y="715" on="0"/>
        <pt x="569" y="634" on="1"/>
        <pt x="569" y="593" on="0"/>
        <pt x="523" y="546" on="0"/>
        <pt x="461" y="546" on="0"/>
        <pt x="418" y="584" on="0"/>
        <pt x="418" y="620" on="1"/>
        <pt x="470" y="645" on="0"/>
        <pt x="470" y="743" on="0"/>
        <pt x="393" y="797" on="0"/>
        <pt x="279" y="797" on="0"/>
        <pt x="202" y="724" on="0"/>
        <pt x="202" y="661" on="1"/>
        <pt x="202" y="589" on="0"/>
        <pt x="237" y="505" on="1"/>
        <pt x="254" y="464" on="0"/>
        <pt x="260" y="447" on="1"/>
        <pt x="424" y="447" on="1"/>
        <pt x="424" y="409" on="1"/>
        <pt x="269" y="409" on="1"/>
        <pt x="274" y="382" on="0"/>
        <pt x="274" y="336" on="0"/>
        <pt x="271" y="320" on="1"/>
        <pt x="424" y="320" on="1"/>
        <pt x="424" y="283" on="1"/>
        <pt x="263" y="283" on="1"/>
        <pt x="252" y="245" on="0"/>
        <pt x="198" y="170" on="0"/>
        <pt x="171" y="144" on="0"/>
        <pt x="135" y="112" on="1"/>
        <pt x="480" y="112" on="1"/>
        <pt x="541" y="273" on="1"/>
        <pt x="568" y="273" on="1"/>
        <pt x="568" y="0" on="1"/>
        <pt x="65" y="0" on="1"/>
        <pt x="65" y="77" on="1"/>
        <pt x="68" y="80" on="0"/>
        <pt x="125" y="136" on="0"/>
        <pt x="143" y="158" on="0"/>
        <pt x="162" y="183" on="1"/>
        <pt x="197" y="227" on="0"/>
        <pt x="207" y="283" on="1"/>
        <pt x="63" y="283" on="1"/>
        <pt x="63" y="320" on="1"/>
        <pt x="212" y="320" on="1"/>
        <pt x="212" y="329" on="1"/>
        <pt x="212" y="369" on="0"/>
        <pt x="192" y="409" on="1"/>
      </contour>
    </TTGlyph>
    <TTGlyph name="t" xMin="17" yMin="-10" xMax="341" yMax="626">
      <contour>
        <pt x="318" y="518" on="1"/>
        <pt x="318" y="498" on="1"/>
        <pt x="188" y="488" on="1"/>
        <pt x="188" y="130" on="1"/>
        <pt x="188" y="24" on="0"/>
        <pt x="264" y="24" on="1"/>
        <pt x="299" y="24" on="0"/>
        <pt x="328" y="46" on="1"/>
        <pt x="341" y="30" on="1"/>
        <pt x="296" y="-10" on="0"/>
        <pt x="233" y="-10" on="1"/>
        <pt x="88" y="-10" on="0"/>
        <pt x="88" y="128" on="1"/>
        <pt x="88" y="488" on="1"/>
        <pt x="17" y="498" on="1"/>
        <pt x="17" y="518" on="1"/>
        <pt x="88" y="518" on="1"/>
        <pt x="88" y="601" on="1"/>
        <pt x="188" y="626" on="1"/>
        <pt x="188" y="518" on="1"/>
      </contour>
    </TTGlyph>
    <TTGlyph name="thorn" xMin="7" yMin="-283" xMax="582" yMax="800">
      <contour>
        <pt x="177" y="800" on="1"/>
        <pt x="177" y="418" on="1"/>
        <pt x="231" y="527" on="0"/>
        <pt x="343" y="527" on="1"/>
        <pt x="450" y="527" on="0"/>
        <pt x="516" y="452" on="1"/>
        <pt x="582" y="379" on="0"/>
        <pt x="582" y="258" on="1"/>
        <pt x="582" y="137" on="0"/>
        <pt x="517" y="64" on="1"/>
        <pt x="451" y="-10" on="0"/>
        <pt x="230" y="-10" on="0"/>
        <pt x="177" y="97" on="1"/>
        <pt x="177" y="-253" on="1"/>
        <pt x="271" y="-263" on="1"/>
        <pt x="271" y="-283" on="1"/>
        <pt x="7" y="-283" on="1"/>
        <pt x="7" y="-263" on="1"/>
        <pt x="77" y="-253" on="1"/>
        <pt x="77" y="770" on="1"/>
        <pt x="7" y="780" on="1"/>
        <pt x="7" y="800" on="1"/>
      </contour>
      <contour>
        <pt x="472" y="208" on="1"/>
        <pt x="472" y="308" on="1"/>
        <pt x="472" y="502" on="0"/>
        <pt x="333" y="502" on="1"/>
        <pt x="273" y="502" on="0"/>
        <pt x="188" y="413" on="0"/>
        <pt x="177" y="346" on="1"/>
        <pt x="177" y="170" on="1"/>
        <pt x="188" y="103" on="0"/>
        <pt x="273" y="15" on="0"/>
        <pt x="333" y="15" on="1"/>
        <pt x="472" y="15" on="0"/>
      </contour>
    </TTGlyph>
    <TTGlyph name="three" xMin="40" yMin="-20" xMax="565" yMax="820">
      <contour>
        <pt x="190" y="435" on="1"/>
        <pt x="190" y="457" on="1"/>
        <pt x="295" y="463" on="0"/>
        <pt x="412" y="564" on="0"/>
        <pt x="412" y="650" on="1"/>
        <pt x="412" y="717" on="0"/>
        <pt x="339" y="797" on="0"/>
        <pt x="223" y="797" on="0"/>
        <pt x="160" y="760" on="0"/>
        <pt x="160" y="727" on="1"/>
        <pt x="160" y="674" on="0"/>
        <pt x="210" y="651" on="1"/>
        <pt x="210" y="616" on="0"/>
        <pt x="169" y="580" on="0"/>
        <pt x="110" y="580" on="0"/>
        <pt x="66" y="626" on="0"/>
        <pt x="66" y="664" on="1"/>
        <pt x="66" y="731" on="0"/>
        <pt x="199" y="820" on="0"/>
        <pt x="403" y="820" on="0"/>
        <pt x="531" y="728" on="0"/>
        <pt x="531" y="645" on="1"/>
        <pt x="531" y="479" on="0"/>
        <pt x="287" y="447" on="1"/>
        <pt x="287" y="444" on="1"/>
        <pt x="412" y="438" on="0"/>
        <pt x="565" y="317" on="0"/>
        <pt x="565" y="112" on="0"/>
        <pt x="410" y="-20" on="0"/>
        <pt x="265" y="-20" on="1"/>
        <pt x="171" y="-20" on="0"/>
        <pt x="40" y="84" on="0"/>
        <pt x="40" y="161" on="1"/>
        <pt x="40" y="202" on="0"/>
        <pt x="86" y="249" on="0"/>
        <pt x="148" y="249" on="0"/>
        <pt x="192" y="211" on="0"/>
        <pt x="192" y="175" on="1"/>
        <pt x="139" y="149" on="0"/>
        <pt x="139" y="95" on="1"/>
        <pt x="139" y="54" on="0"/>
        <pt x="208" y="3" on="0"/>
        <pt x="337" y="3" on="0"/>
        <pt x="427" y="111" on="0"/>
        <pt x="427" y="208" on="1"/>
        <pt x="427" y="420" on="0"/>
      </contour>
    </TTGlyph>
    <TTGlyph name="threequarters" xMin="37" yMin="0" xMax="652" yMax="805">
      <component glyphName="foursuperior" x="342" y="-374" flags="0x1004"/>
      <component glyphName="threesuperior" x="-4" y="0" flags="0x1004"/>
      <component glyphName="fraction" x="189" y="0" flags="0x1004"/>
    </TTGlyph>
    <TTGlyph name="threesuperior" xMin="41" yMin="371" xMax="330" yMax="805">
      <contour>
        <pt x="131" y="602" on="1"/>
        <pt x="131" y="623" on="1"/>
        <pt x="185" y="626" on="0"/>
        <pt x="228" y="670" on="0"/>
        <pt x="228" y="715" on="1"/>
        <pt x="228" y="783" on="0"/>
        <pt x="165" y="783" on="1"/>
        <pt x="115" y="783" on="0"/>
        <pt x="115" y="746" on="1"/>
        <pt x="115" y="722" on="0"/>
        <pt x="144" y="711" on="1"/>
        <pt x="144" y="691" on="0"/>
        <pt x="120" y="669" on="0"/>
        <pt x="85" y="669" on="0"/>
        <pt x="60" y="696" on="0"/>
        <pt x="60" y="719" on="1"/>
        <pt x="60" y="762" on="0"/>
        <pt x="126" y="805" on="0"/>
        <pt x="235" y="805" on="0"/>
        <pt x="303" y="758" on="0"/>
        <pt x="303" y="712" on="1"/>
        <pt x="303" y="628" on="0"/>
        <pt x="183" y="613" on="1"/>
        <pt x="183" y="611" on="1"/>
        <pt x="330" y="602" on="0"/>
        <pt x="330" y="492" on="1"/>
        <pt x="330" y="442" on="0"/>
        <pt x="241" y="371" on="0"/>
        <pt x="164" y="371" on="1"/>
        <pt x="113" y="371" on="0"/>
        <pt x="41" y="426" on="0"/>
        <pt x="41" y="469" on="1"/>
        <pt x="41" y="492" on="0"/>
        <pt x="67" y="519" on="0"/>
        <pt x="102" y="519" on="0"/>
        <pt x="127" y="497" on="0"/>
        <pt x="127" y="477" on="1"/>
        <pt x="97" y="461" on="0"/>
        <pt x="97" y="437" on="1"/>
        <pt x="97" y="393" on="0"/>
        <pt x="164" y="393" on="1"/>
        <pt x="198" y="393" on="0"/>
        <pt x="245" y="443" on="0"/>
        <pt x="245" y="546" on="0"/>
        <pt x="193" y="598" on="0"/>
      </contour>
    </TTGlyph>
    <TTGlyph name="tilde" xMin="28" yMin="602" xMax="415" yMax="737">
      <contour>
        <pt x="366" y="626" on="0"/>
        <pt x="319" y="602" on="0"/>
        <pt x="252" y="602" on="0"/>
        <pt x="137" y="673" on="0"/>
        <pt x="112" y="673" on="1"/>
        <pt x="73" y="673" on="0"/>
        <pt x="55" y="624" on="1"/>
        <pt x="28" y="628" on="1"/>
        <pt x="38" y="670" on="0"/>
        <pt x="58" y="691" on="1"/>
        <pt x="98" y="737" on="0"/>
        <pt x="153" y="737" on="1"/>
        <pt x="191" y="737" on="0"/>
        <pt x="306" y="666" on="0"/>
        <pt x="331" y="666" on="1"/>
        <pt x="370" y="666" on="0"/>
        <pt x="388" y="715" on="1"/>
        <pt x="415" y="711" on="1"/>
        <pt x="405" y="669" on="0"/>
      </contour>
    </TTGlyph>
    <TTGlyph name="tilde.case" xMin="42" yMin="822" xMax="405" yMax="957">
      <contour>
        <pt x="332" y="834" on="1"/>
        <pt x="308" y="822" on="0"/>
        <pt x="242" y="822" on="0"/>
        <pt x="152" y="893" on="0"/>
        <pt x="126" y="893" on="1"/>
        <pt x="88" y="893" on="0"/>
        <pt x="70" y="844" on="1"/>
        <pt x="42" y="848" on="1"/>
        <pt x="59" y="916" on="0"/>
        <pt x="116" y="945" on="1"/>
        <pt x="139" y="957" on="0"/>
        <pt x="197" y="957" on="0"/>
        <pt x="251" y="922" on="0"/>
        <pt x="299" y="886" on="0"/>
        <pt x="321" y="886" on="1"/>
        <pt x="361" y="886" on="0"/>
        <pt x="377" y="935" on="1"/>
        <pt x="405" y="931" on="1"/>
        <pt x="388" y="863" on="0"/>
      </contour>
    </TTGlyph>
    <TTGlyph name="two" xMin="36" yMin="0" xMax="539" yMax="820">
      <contour>
        <pt x="539" y="253" on="1"/>
        <pt x="539" y="0" on="1"/>
        <pt x="36" y="0" on="1"/>
        <pt x="36" y="77" on="1"/>
        <pt x="247" y="292" on="1"/>
        <pt x="417" y="464" on="0"/>
        <pt x="417" y="797" on="0"/>
        <pt x="278" y="797" on="1"/>
        <pt x="228" y="797" on="0"/>
        <pt x="154" y="743" on="0"/>
        <pt x="154" y="646" on="0"/>
        <pt x="207" y="620" on="1"/>
        <pt x="207" y="584" on="0"/>
        <pt x="163" y="546" on="0"/>
        <pt x="101" y="546" on="0"/>
        <pt x="55" y="593" on="0"/>
        <pt x="55" y="634" on="1"/>
        <pt x="55" y="715" on="0"/>
        <pt x="197" y="820" on="0"/>
        <pt x="294" y="820" on="1"/>
        <pt x="417" y="820" on="0"/>
        <pt x="534" y="704" on="0"/>
        <pt x="534" y="611" on="1"/>
        <pt x="534" y="510" on="0"/>
        <pt x="456" y="427" on="1"/>
        <pt x="418" y="386" on="0"/>
        <pt x="338" y="316" on="1"/>
        <pt x="99" y="105" on="1"/>
        <pt x="472" y="105" on="1"/>
        <pt x="513" y="253" on="1"/>
      </contour>
    </TTGlyph>
    <TTGlyph name="twosuperior" xMin="51" yMin="380" xMax="326" yMax="805">
      <contour>
        <pt x="325" y="523" on="1"/>
        <pt x="325" y="380" on="1"/>
        <pt x="51" y="380" on="1"/>
        <pt x="51" y="420" on="1"/>
        <pt x="167" y="533" on="1"/>
        <pt x="249" y="613" on="0"/>
        <pt x="249" y="699" on="1"/>
        <pt x="249" y="738" on="0"/>
        <pt x="211" y="783" on="0"/>
        <pt x="154" y="783" on="0"/>
        <pt x="118" y="759" on="0"/>
        <pt x="118" y="712" on="0"/>
        <pt x="149" y="695" on="1"/>
        <pt x="149" y="674" on="0"/>
        <pt x="124" y="651" on="0"/>
        <pt x="87" y="651" on="0"/>
        <pt x="59" y="679" on="0"/>
        <pt x="59" y="703" on="1"/>
        <pt x="59" y="752" on="0"/>
        <pt x="129" y="805" on="0"/>
        <pt x="254" y="805" on="0"/>
        <pt x="326" y="744" on="0"/>
        <pt x="326" y="650" on="0"/>
        <pt x="275" y="578" on="0"/>
        <pt x="228" y="541" on="1"/>
        <pt x="108" y="444" on="1"/>
        <pt x="274" y="444" on="1"/>
        <pt x="302" y="523" on="1"/>
      </contour>
    </TTGlyph>
    <TTGlyph name="u" xMin="16" yMin="-10" xMax="606" yMax="518">
      <contour>
        <pt x="186" y="518" on="1"/>
        <pt x="186" y="135" on="1"/>
        <pt x="186" y="26" on="0"/>
        <pt x="272" y="26" on="1"/>
        <pt x="358" y="26" on="0"/>
        <pt x="436" y="132" on="1"/>
        <pt x="436" y="488" on="1"/>
        <pt x="366" y="498" on="1"/>
        <pt x="366" y="518" on="1"/>
        <pt x="536" y="518" on="1"/>
        <pt x="536" y="30" on="1"/>
        <pt x="606" y="20" on="1"/>
        <pt x="606" y="0" on="1"/>
        <pt x="436" y="0" on="1"/>
        <pt x="436" y="96" on="1"/>
        <pt x="358" y="-10" on="0"/>
        <pt x="241" y="-10" on="1"/>
        <pt x="169" y="-10" on="0"/>
        <pt x="86" y="61" on="0"/>
        <pt x="86" y="133" on="1"/>
        <pt x="86" y="488" on="1"/>
        <pt x="16" y="498" on="1"/>
        <pt x="16" y="518" on="1"/>
      </contour>
    </TTGlyph>
    <TTGlyph name="uacute" xMin="16" yMin="-10" xMax="606" yMax="769">
      <component glyphName="u" x="0" y="0" flags="0x1204"/>
      <component glyphName="acute" x="220" y="0" flags="0x1004"/>
    </TTGlyph>
    <TTGlyph name="ucircumflex" xMin="16" yMin="-10" xMax="606" yMax="759">
      <component glyphName="u" x="0" y="0" flags="0x1204"/>
      <component glyphName="circumflex" x="129" y="0" flags="0x1004"/>
    </TTGlyph>
    <TTGlyph name="udieresis" xMin="16" yMin="-10" xMax="606" yMax="729">
      <component glyphName="u" x="0" y="0" flags="0x1204"/>
      <component glyphName="dieresis" x="114" y="-4" flags="0x1004"/>
    </TTGlyph>
    <TTGlyph name="ugrave" xMin="16" yMin="-10" xMax="606" yMax="769">
      <component glyphName="u" x="0" y="0" flags="0x1204"/>
      <component glyphName="grave" x="181" y="0" flags="0x1004"/>
    </TTGlyph>
    <TTGlyph name="underscore" xMin="0" yMin="-113" xMax="459" yMax="-78">
      <contour>
        <pt x="459" y="-78" on="1"/>
        <pt x="459" y="-113" on="1"/>
        <pt x="0" y="-113" on="1"/>
        <pt x="0" y="-78" on="1"/>
      </contour>
    </TTGlyph>
    <TTGlyph name="uni00AD" xMin="62" yMin="339" xMax="322" yMax="375">
      <contour>
        <pt x="322" y="339" on="1"/>
        <pt x="62" y="339" on="1"/>
        <pt x="62" y="375" on="1"/>
        <pt x="322" y="375" on="1"/>
      </contour>
    </TTGlyph>
    <TTGlyph name="v" xMin="-13" yMin="-20" xMax="541" yMax="518">
      <contour>
        <pt x="294" y="-20" on="1"/>
        <pt x="266" y="-20" on="1"/>
        <pt x="52" y="488" on="1"/>
        <pt x="-13" y="498" on="1"/>
        <pt x="-13" y="518" on="1"/>
        <pt x="236" y="518" on="1"/>
        <pt x="236" y="498" on="1"/>
        <pt x="164" y="485" on="1"/>
        <pt x="315" y="109" on="1"/>
        <pt x="450" y="472" on="1"/>
        <pt x="362" y="497" on="1"/>
        <pt x="362" y="517" on="1"/>
        <pt x="541" y="517" on="1"/>
        <pt x="541" y="497" on="1"/>
        <pt x="478" y="473" on="1"/>
      </contour>
    </TTGlyph>
    <TTGlyph name="w" xMin="-13" yMin="-20" xMax="833" yMax="518">
      <contour>
        <pt x="587" y="-20" on="1"/>
        <pt x="559" y="-20" on="1"/>
        <pt x="418" y="318" on="1"/>
        <pt x="294" y="-20" on="1"/>
        <pt x="266" y="-20" on="1"/>
        <pt x="52" y="488" on="1"/>
        <pt x="-13" y="498" on="1"/>
        <pt x="-13" y="518" on="1"/>
        <pt x="211" y="518" on="1"/>
        <pt x="211" y="498" on="1"/>
        <pt x="164" y="485" on="1"/>
        <pt x="315" y="109" on="1"/>
        <pt x="404" y="352" on="1"/>
        <pt x="345" y="488" on="1"/>
        <pt x="293" y="498" on="1"/>
        <pt x="293" y="518" on="1"/>
        <pt x="529" y="518" on="1"/>
        <pt x="529" y="498" on="1"/>
        <pt x="457" y="485" on="1"/>
        <pt x="608" y="109" on="1"/>
        <pt x="743" y="471" on="1"/>
        <pt x="659" y="497" on="1"/>
        <pt x="659" y="517" on="1"/>
        <pt x="833" y="517" on="1"/>
        <pt x="833" y="497" on="1"/>
        <pt x="771" y="473" on="1"/>
      </contour>
    </TTGlyph>
    <TTGlyph name="x" xMin="1" yMin="0" xMax="600" yMax="518">
      <contour>
        <pt x="13" y="0" on="1"/>
        <pt x="13" y="20" on="1"/>
        <pt x="80" y="45" on="1"/>
        <pt x="249" y="245" on="1"/>
        <pt x="61" y="489" on="1"/>
        <pt x="1" y="498" on="1"/>
        <pt x="1" y="518" on="1"/>
        <pt x="245" y="518" on="1"/>
        <pt x="245" y="498" on="1"/>
        <pt x="183" y="487" on="1"/>
        <pt x="319" y="311" on="1"/>
        <pt x="461" y="474" on="1"/>
        <pt x="382" y="497" on="1"/>
        <pt x="382" y="517" on="1"/>
        <pt x="566" y="517" on="1"/>
        <pt x="566" y="497" on="1"/>
        <pt x="493" y="471" on="1"/>
        <pt x="335" y="290" on="1"/>
        <pt x="537" y="29" on="1"/>
        <pt x="600" y="20" on="1"/>
        <pt x="600" y="0" on="1"/>
        <pt x="356" y="0" on="1"/>
        <pt x="356" y="20" on="1"/>
        <pt x="415" y="30" on="1"/>
        <pt x="266" y="223" on="1"/>
        <pt x="111" y="43" on="1"/>
        <pt x="192" y="20" on="1"/>
        <pt x="192" y="0" on="1"/>
      </contour>
    </TTGlyph>
    <TTGlyph name="y" xMin="-13" yMin="-292" xMax="546" yMax="517">
      <contour>
        <pt x="546" y="517" on="1"/>
        <pt x="546" y="497" on="1"/>
        <pt x="478" y="472" on="1"/>
        <pt x="254" y="-179" on="1"/>
        <pt x="233" y="-238" on="0"/>
        <pt x="174" y="-292" on="0"/>
        <pt x="67" y="-292" on="0"/>
        <pt x="3" y="-240" on="0"/>
        <pt x="3" y="-166" on="0"/>
        <pt x="38" y="-129" on="0"/>
        <pt x="64" y="-129" on="1"/>
        <pt x="105" y="-129" on="0"/>
        <pt x="122" y="-161" on="1"/>
        <pt x="107" y="-182" on="0"/>
        <pt x="107" y="-225" on="0"/>
        <pt x="133" y="-251" on="0"/>
        <pt x="153" y="-251" on="1"/>
        <pt x="201" y="-251" on="0"/>
        <pt x="226" y="-179" on="1"/>
        <pt x="286" y="-7" on="1"/>
        <pt x="54" y="487" on="1"/>
        <pt x="-13" y="497" on="1"/>
        <pt x="-13" y="517" on="1"/>
        <pt x="236" y="517" on="1"/>
        <pt x="236" y="497" on="1"/>
        <pt x="166" y="485" on="1"/>
        <pt x="333" y="128" on="1"/>
        <pt x="452" y="472" on="1"/>
        <pt x="366" y="497" on="1"/>
        <pt x="366" y="517" on="1"/>
      </contour>
    </TTGlyph>
    <TTGlyph name="yacute" xMin="-13" yMin="-292" xMax="546" yMax="769">
      <component glyphName="y" x="0" y="0" flags="0x1204"/>
      <component glyphName="acute" x="243" y="0" flags="0x1004"/>
    </TTGlyph>
    <TTGlyph name="ydieresis" xMin="-13" yMin="-292" xMax="546" yMax="729">
      <component glyphName="y" x="0" y="0" flags="0x1204"/>
      <component glyphName="dieresis" x="95" y="-4" flags="0x1004"/>
    </TTGlyph>
    <TTGlyph name="yen" xMin="30" yMin="0" xMax="745" yMax="800">
      <contour>
        <pt x="189" y="344" on="1"/>
        <pt x="189" y="382" on="1"/>
        <pt x="327" y="382" on="1"/>
        <pt x="109" y="764" on="1"/>
        <pt x="30" y="778" on="1"/>
        <pt x="30" y="800" on="1"/>
        <pt x="331" y="800" on="1"/>
        <pt x="331" y="778" on="1"/>
        <pt x="238" y="764" on="1"/>
        <pt x="448" y="401" on="1"/>
        <pt x="641" y="730" on="1"/>
        <pt x="521" y="778" on="1"/>
        <pt x="521" y="800" on="1"/>
        <pt x="745" y="800" on="1"/>
        <pt x="745" y="778" on="1"/>
        <pt x="668" y="729" on="1"/>
        <pt x="465" y="382" on="1"/>
        <pt x="618" y="382" on="1"/>
        <pt x="618" y="344" on="1"/>
        <pt x="460" y="344" on="1"/>
        <pt x="460" y="275" on="1"/>
        <pt x="618" y="275" on="1"/>
        <pt x="618" y="237" on="1"/>
        <pt x="460" y="237" on="1"/>
        <pt x="460" y="36" on="1"/>
        <pt x="553" y="21" on="1"/>
        <pt x="553" y="0" on="1"/>
        <pt x="259" y="0" on="1"/>
        <pt x="259" y="21" on="1"/>
        <pt x="352" y="36" on="1"/>
        <pt x="352" y="237" on="1"/>
        <pt x="189" y="237" on="1"/>
        <pt x="189" y="275" on="1"/>
        <pt x="352" y="275" on="1"/>
        <pt x="352" y="340" on="1"/>
        <pt x="349" y="344" on="1"/>
      </contour>
    </TTGlyph>
    <TTGlyph name="z" xMin="37" yMin="0" xMax="475" yMax="518">
      <contour>
        <pt x="75" y="368" on="1"/>
        <pt x="44" y="368" on="1"/>
        <pt x="55" y="518" on="1"/>
        <pt x="464" y="518" on="1"/>
        <pt x="464" y="493" on="1"/>
        <pt x="154" y="24" on="1"/>
        <pt x="375" y="24" on="1"/>
        <pt x="441" y="161" on="1"/>
        <pt x="475" y="161" on="1"/>
        <pt x="463" y="0" on="1"/>
        <pt x="37" y="0" on="1"/>
        <pt x="37" y="24" on="1"/>
        <pt x="347" y="493" on="1"/>
        <pt x="135" y="493" on="1"/>
      </contour>
    </TTGlyph>
    <TTGlyph name="zero" xMin="56" yMin="-20" xMax="634" yMax="820">
      <contour>
        <pt x="634" y="195" on="0"/>
        <pt x="478" y="-20" on="0"/>
        <pt x="345" y="-20" on="1"/>
        <pt x="210" y="-20" on="0"/>
        <pt x="134" y="88" on="1"/>
        <pt x="56" y="198" on="0"/>
        <pt x="56" y="400" on="1"/>
        <pt x="56" y="602" on="0"/>
        <pt x="134" y="713" on="1"/>
        <pt x="210" y="820" on="0"/>
        <pt x="345" y="820" on="1"/>
        <pt x="478" y="820" on="0"/>
        <pt x="555" y="713" on="1"/>
        <pt x="634" y="603" on="0"/>
      </contour>
      <contour>
        <pt x="506" y="304" on="1"/>
        <pt x="506" y="497" on="1"/>
        <pt x="506" y="651" on="0"/>
        <pt x="420" y="797" on="0"/>
        <pt x="345" y="797" on="1"/>
        <pt x="270" y="797" on="0"/>
        <pt x="184" y="651" on="0"/>
        <pt x="184" y="497" on="1"/>
        <pt x="184" y="304" on="1"/>
        <pt x="184" y="150" on="0"/>
        <pt x="270" y="3" on="0"/>
        <pt x="345" y="3" on="1"/>
        <pt x="420" y="3" on="0"/>
        <pt x="506" y="148" on="0"/>
      </contour>
    </TTGlyph>
</ttFont>
